M48
; DRILL file {KiCad (5.1.8)-1} date 06/06/21 22:48:41
; FORMAT={-:-/ absolute / metric / decimal}
; #@! TF.CreationDate,2021-06-06T22:48:41+01:00
; #@! TF.GenerationSoftware,Kicad,Pcbnew,(5.1.8)-1
; #@! TF.FileFunction,Plated,1,2,PTH
FMAT,2
METRIC
T1C0.300
T2C1.000
%
G90
G05
T1
X148.3Y-56.8
X151.184Y-69.176
X151.187Y-71.475
X151.193Y-72.407
X151.4Y-79.4
X151.7Y-57.8
X151.7Y-59.1
X151.9Y-74.4
X151.95Y-80.85
X151.971Y-70.129
X152.125Y-61.3
X152.125Y-62.9
X152.95Y-72.25
X153.6Y-79.1
X153.825Y-76.7
X154.3Y-69.0
X154.3Y-70.7
X155.05Y-74.6
X155.7Y-79.4
X156.1Y-69.0
X156.1Y-70.7
X157.3Y-62.3
X158.5Y-73.9
X158.55Y-65.3
X158.95Y-79.35
X159.95Y-63.15
X160.5Y-56.9
X160.55Y-73.75
X164.0Y-82.8
T2
X153.55Y-58.4
X153.55Y-60.94
X153.55Y-63.48
X149.86Y-58.42
X149.86Y-60.96
X149.86Y-63.5
X149.86Y-66.04
X149.86Y-68.58
X149.86Y-71.12
X149.86Y-73.66
X149.86Y-76.2
X149.86Y-78.74
X149.86Y-81.28
X156.2Y-58.46
X156.2Y-61.0
X158.74Y-58.46
X158.74Y-61.0
X153.9Y-81.3
X156.44Y-81.3
X158.98Y-81.3
X156.1Y-77.5
X158.64Y-77.5
X162.56Y-58.42
X162.56Y-60.96
X162.56Y-63.5
X162.56Y-66.04
X162.56Y-68.58
X162.56Y-71.12
X162.56Y-73.66
X162.56Y-76.2
X162.56Y-78.74
X162.56Y-81.28
T0
M30
