G04 #@! TF.GenerationSoftware,KiCad,Pcbnew,(5.1.8)-1*
G04 #@! TF.CreationDate,2021-06-06T22:48:37+01:00*
G04 #@! TF.ProjectId,qfn-practice,71666e2d-7072-4616-9374-6963652e6b69,rev?*
G04 #@! TF.SameCoordinates,Original*
G04 #@! TF.FileFunction,Legend,Bot*
G04 #@! TF.FilePolarity,Positive*
%FSLAX46Y46*%
G04 Gerber Fmt 4.6, Leading zero omitted, Abs format (unit mm)*
G04 Created by KiCad (PCBNEW (5.1.8)-1) date 2021-06-06 22:48:37*
%MOMM*%
%LPD*%
G01*
G04 APERTURE LIST*
%ADD10C,0.120000*%
%ADD11C,0.150000*%
%ADD12R,1.700000X1.700000*%
%ADD13O,1.700000X1.700000*%
G04 APERTURE END LIST*
D10*
G04 #@! TO.C,J1*
X163890000Y-57090000D02*
X162560000Y-57090000D01*
X163890000Y-58420000D02*
X163890000Y-57090000D01*
X163890000Y-59690000D02*
X161230000Y-59690000D01*
X161230000Y-59690000D02*
X161230000Y-82610000D01*
X163890000Y-59690000D02*
X163890000Y-82610000D01*
X163890000Y-82610000D02*
X161230000Y-82610000D01*
G04 #@! TO.C,J2*
X151190000Y-82610000D02*
X148530000Y-82610000D01*
X151190000Y-59690000D02*
X151190000Y-82610000D01*
X148530000Y-59690000D02*
X148530000Y-82610000D01*
X151190000Y-59690000D02*
X148530000Y-59690000D01*
X151190000Y-58420000D02*
X151190000Y-57090000D01*
X151190000Y-57090000D02*
X149860000Y-57090000D01*
G04 #@! TO.C,J1*
D11*
X161153333Y-56002380D02*
X161153333Y-56716666D01*
X161200952Y-56859523D01*
X161296190Y-56954761D01*
X161439047Y-57002380D01*
X161534285Y-57002380D01*
X160153333Y-57002380D02*
X160724761Y-57002380D01*
X160439047Y-57002380D02*
X160439047Y-56002380D01*
X160534285Y-56145238D01*
X160629523Y-56240476D01*
X160724761Y-56288095D01*
G04 #@! TO.C,J2*
X151853333Y-56002380D02*
X151853333Y-56716666D01*
X151900952Y-56859523D01*
X151996190Y-56954761D01*
X152139047Y-57002380D01*
X152234285Y-57002380D01*
X151424761Y-56097619D02*
X151377142Y-56050000D01*
X151281904Y-56002380D01*
X151043809Y-56002380D01*
X150948571Y-56050000D01*
X150900952Y-56097619D01*
X150853333Y-56192857D01*
X150853333Y-56288095D01*
X150900952Y-56430952D01*
X151472380Y-57002380D01*
X150853333Y-57002380D01*
G04 #@! TD*
%LPC*%
D12*
G04 #@! TO.C,J1*
X162560000Y-58420000D03*
D13*
X162560000Y-60960000D03*
X162560000Y-63500000D03*
X162560000Y-66040000D03*
X162560000Y-68580000D03*
X162560000Y-71120000D03*
X162560000Y-73660000D03*
X162560000Y-76200000D03*
X162560000Y-78740000D03*
X162560000Y-81280000D03*
G04 #@! TD*
G04 #@! TO.C,J2*
X149860000Y-81280000D03*
X149860000Y-78740000D03*
X149860000Y-76200000D03*
X149860000Y-73660000D03*
X149860000Y-71120000D03*
X149860000Y-68580000D03*
X149860000Y-66040000D03*
X149860000Y-63500000D03*
X149860000Y-60960000D03*
D12*
X149860000Y-58420000D03*
G04 #@! TD*
G04 #@! TO.C,J3*
X153900000Y-81300000D03*
D13*
X156440000Y-81300000D03*
X158980000Y-81300000D03*
G04 #@! TD*
D12*
G04 #@! TO.C,J5*
X156100000Y-77500000D03*
D13*
X158640000Y-77500000D03*
G04 #@! TD*
D12*
G04 #@! TO.C,J7*
X153550000Y-58400000D03*
D13*
X153550000Y-60940000D03*
X153550000Y-63480000D03*
G04 #@! TD*
D12*
G04 #@! TO.C,J4*
X158740000Y-61000000D03*
D13*
X156200000Y-61000000D03*
X158740000Y-58460000D03*
X156200000Y-58460000D03*
G04 #@! TD*
M02*
