G04 #@! TF.GenerationSoftware,KiCad,Pcbnew,(5.1.8)-1*
G04 #@! TF.CreationDate,2021-06-06T23:54:00+01:00*
G04 #@! TF.ProjectId,qfn-practice,71666e2d-7072-4616-9374-6963652e6b69,rev?*
G04 #@! TF.SameCoordinates,Original*
G04 #@! TF.FileFunction,Copper,L2,Inr*
G04 #@! TF.FilePolarity,Positive*
%FSLAX46Y46*%
G04 Gerber Fmt 4.6, Leading zero omitted, Abs format (unit mm)*
G04 Created by KiCad (PCBNEW (5.1.8)-1) date 2021-06-06 23:54:00*
%MOMM*%
%LPD*%
G01*
G04 APERTURE LIST*
G04 #@! TA.AperFunction,ComponentPad*
%ADD10R,1.700000X1.700000*%
G04 #@! TD*
G04 #@! TA.AperFunction,ComponentPad*
%ADD11O,1.700000X1.700000*%
G04 #@! TD*
G04 #@! TA.AperFunction,ViaPad*
%ADD12C,0.600000*%
G04 #@! TD*
G04 #@! TA.AperFunction,Conductor*
%ADD13C,0.250000*%
G04 #@! TD*
G04 #@! TA.AperFunction,Conductor*
%ADD14C,0.254000*%
G04 #@! TD*
G04 #@! TA.AperFunction,Conductor*
%ADD15C,0.100000*%
G04 #@! TD*
G04 APERTURE END LIST*
D10*
G04 #@! TO.N,+3V3*
G04 #@! TO.C,J1*
X162560000Y-58420000D03*
D11*
G04 #@! TO.N,/P19*
X162560000Y-60960000D03*
G04 #@! TO.N,/P18*
X162560000Y-63500000D03*
G04 #@! TO.N,/AT_VCC_ST_PA10*
X162560000Y-66040000D03*
G04 #@! TO.N,/AT_PB2_ST_PA9*
X162560000Y-68580000D03*
G04 #@! TO.N,/AT_PB1_ST_VDD*
X162560000Y-71120000D03*
G04 #@! TO.N,/AT_PB0_ST_GND*
X162560000Y-73660000D03*
G04 #@! TO.N,/P13*
X162560000Y-76200000D03*
G04 #@! TO.N,/P12*
X162560000Y-78740000D03*
G04 #@! TO.N,/P11*
X162560000Y-81280000D03*
G04 #@! TD*
G04 #@! TO.N,GND*
G04 #@! TO.C,J2*
X149860000Y-81280000D03*
G04 #@! TO.N,/P9*
X149860000Y-78740000D03*
G04 #@! TO.N,/P8*
X149860000Y-76200000D03*
G04 #@! TO.N,/AT_GND_ST_PA5*
X149860000Y-73660000D03*
G04 #@! TO.N,/AT_PB4_ST_PA0*
X149860000Y-71120000D03*
G04 #@! TO.N,/AT_PB3_ST_PF1*
X149860000Y-68580000D03*
G04 #@! TO.N,/AT_PB5_!RESET_ST_PF0*
X149860000Y-66040000D03*
G04 #@! TO.N,/P3*
X149860000Y-63500000D03*
G04 #@! TO.N,/P2*
X149860000Y-60960000D03*
D10*
G04 #@! TO.N,/P1*
X149860000Y-58420000D03*
G04 #@! TD*
G04 #@! TO.N,+3V3*
G04 #@! TO.C,J3*
X153900000Y-81300000D03*
D11*
G04 #@! TO.N,/ST_BOOT0*
X156440000Y-81300000D03*
G04 #@! TO.N,GND*
X158980000Y-81300000D03*
G04 #@! TD*
D10*
G04 #@! TO.N,/ST_PA6*
G04 #@! TO.C,J5*
X156100000Y-77500000D03*
D11*
G04 #@! TO.N,/ST_PA7*
X158640000Y-77500000D03*
G04 #@! TD*
D10*
G04 #@! TO.N,/ST_PB3_SCK*
G04 #@! TO.C,J7*
X153550000Y-58400000D03*
D11*
G04 #@! TO.N,/ST_PB4_MISO*
X153550000Y-60940000D03*
G04 #@! TO.N,/ST_PB5_MOSI*
X153550000Y-63480000D03*
G04 #@! TD*
D10*
G04 #@! TO.N,/ST_USART-TX*
G04 #@! TO.C,J4*
X158740000Y-61000000D03*
D11*
G04 #@! TO.N,/ST_USART-RX*
X156200000Y-61000000D03*
G04 #@! TO.N,GND*
X158740000Y-58460000D03*
G04 #@! TO.N,/ST_PA1*
X156200000Y-58460000D03*
G04 #@! TD*
D12*
G04 #@! TO.N,GND*
X154300000Y-69000000D03*
X156100000Y-69000000D03*
X156100000Y-70700000D03*
X154300000Y-70700000D03*
X158950000Y-79350000D03*
X159950000Y-63150000D03*
X160550000Y-73750000D03*
X158550000Y-65300000D03*
X158500000Y-73900000D03*
X155050000Y-75100000D03*
X153600000Y-79100000D03*
X151950000Y-80850000D03*
X164000000Y-82800000D03*
X160500000Y-56900000D03*
X151700000Y-59100000D03*
X148300000Y-56800000D03*
X157300000Y-62300000D03*
X152100000Y-76699992D03*
X161200000Y-70500000D03*
X148300000Y-80000000D03*
X148300000Y-82800000D03*
X151400000Y-82900000D03*
X158100000Y-82900000D03*
X160300000Y-83000000D03*
X157500000Y-57000000D03*
X164000000Y-70300000D03*
X164200000Y-61200000D03*
X164100000Y-75500000D03*
X148200000Y-72100000D03*
X148300000Y-64900000D03*
X148200000Y-60000000D03*
X158000000Y-76100000D03*
X157400000Y-78800000D03*
G04 #@! TO.N,+3V3*
X151900000Y-74800000D03*
X153000000Y-76100000D03*
X154100000Y-74300000D03*
X151950000Y-70350000D03*
G04 #@! TO.N,/P11*
X152980010Y-72000000D03*
G04 #@! TO.N,/P8*
X151193413Y-72406587D03*
G04 #@! TO.N,/P3*
X151022172Y-69173631D03*
G04 #@! TO.N,/ST_BOOT0*
X152399994Y-68300000D03*
G04 #@! TO.N,/ST_PA1*
X151184866Y-71510011D03*
G04 #@! TD*
D13*
G04 #@! TO.N,GND*
X157400000Y-59800000D02*
X158740000Y-58460000D01*
X157400000Y-62200000D02*
X157400000Y-59800000D01*
X157300000Y-62300000D02*
X157400000Y-62200000D01*
X158000000Y-76100000D02*
X157400000Y-76700000D01*
X157400000Y-76700000D02*
X157400000Y-78800000D01*
X161900000Y-69800000D02*
X163500000Y-69800000D01*
X163500000Y-69800000D02*
X164000000Y-70300000D01*
X161200000Y-70500000D02*
X161900000Y-69800000D01*
X151200000Y-75799992D02*
X152100000Y-76699992D01*
X151200000Y-73300000D02*
X151200000Y-75799992D01*
X150299999Y-72399999D02*
X151200000Y-73300000D01*
X148499999Y-72399999D02*
X150299999Y-72399999D01*
X148200000Y-72100000D02*
X148499999Y-72399999D01*
G04 #@! TD*
D14*
G04 #@! TO.N,GND*
X164694001Y-83414000D02*
X147726000Y-83414000D01*
X147726000Y-81636890D01*
X148418524Y-81636890D01*
X148463175Y-81784099D01*
X148588359Y-82046920D01*
X148762412Y-82280269D01*
X148978645Y-82475178D01*
X149228748Y-82624157D01*
X149503109Y-82721481D01*
X149733000Y-82600814D01*
X149733000Y-81407000D01*
X149987000Y-81407000D01*
X149987000Y-82600814D01*
X150216891Y-82721481D01*
X150491252Y-82624157D01*
X150741355Y-82475178D01*
X150957588Y-82280269D01*
X151131641Y-82046920D01*
X151256825Y-81784099D01*
X151301476Y-81636890D01*
X151180155Y-81407000D01*
X149987000Y-81407000D01*
X149733000Y-81407000D01*
X148539845Y-81407000D01*
X148418524Y-81636890D01*
X147726000Y-81636890D01*
X147726000Y-80923110D01*
X148418524Y-80923110D01*
X148539845Y-81153000D01*
X149733000Y-81153000D01*
X149733000Y-81133000D01*
X149987000Y-81133000D01*
X149987000Y-81153000D01*
X151180155Y-81153000D01*
X151301476Y-80923110D01*
X151256825Y-80775901D01*
X151131641Y-80513080D01*
X151084591Y-80450000D01*
X152667157Y-80450000D01*
X152667157Y-82150000D01*
X152674513Y-82224689D01*
X152696299Y-82296508D01*
X152731678Y-82362696D01*
X152779289Y-82420711D01*
X152837304Y-82468322D01*
X152903492Y-82503701D01*
X152975311Y-82525487D01*
X153050000Y-82532843D01*
X154750000Y-82532843D01*
X154824689Y-82525487D01*
X154896508Y-82503701D01*
X154962696Y-82468322D01*
X155020711Y-82420711D01*
X155068322Y-82362696D01*
X155103701Y-82296508D01*
X155125487Y-82224689D01*
X155132843Y-82150000D01*
X155132843Y-81178757D01*
X155209000Y-81178757D01*
X155209000Y-81421243D01*
X155256307Y-81659069D01*
X155349102Y-81883097D01*
X155483820Y-82084717D01*
X155655283Y-82256180D01*
X155856903Y-82390898D01*
X156080931Y-82483693D01*
X156318757Y-82531000D01*
X156561243Y-82531000D01*
X156799069Y-82483693D01*
X157023097Y-82390898D01*
X157224717Y-82256180D01*
X157396180Y-82084717D01*
X157530898Y-81883097D01*
X157578228Y-81768832D01*
X157635843Y-81931252D01*
X157784822Y-82181355D01*
X157979731Y-82397588D01*
X158213080Y-82571641D01*
X158475901Y-82696825D01*
X158623110Y-82741476D01*
X158853000Y-82620155D01*
X158853000Y-81427000D01*
X159107000Y-81427000D01*
X159107000Y-82620155D01*
X159336890Y-82741476D01*
X159484099Y-82696825D01*
X159746920Y-82571641D01*
X159980269Y-82397588D01*
X160175178Y-82181355D01*
X160324157Y-81931252D01*
X160421481Y-81656891D01*
X160300814Y-81427000D01*
X159107000Y-81427000D01*
X158853000Y-81427000D01*
X158833000Y-81427000D01*
X158833000Y-81173000D01*
X158853000Y-81173000D01*
X158853000Y-79979845D01*
X159107000Y-79979845D01*
X159107000Y-81173000D01*
X160300814Y-81173000D01*
X160308289Y-81158757D01*
X161329000Y-81158757D01*
X161329000Y-81401243D01*
X161376307Y-81639069D01*
X161469102Y-81863097D01*
X161603820Y-82064717D01*
X161775283Y-82236180D01*
X161976903Y-82370898D01*
X162200931Y-82463693D01*
X162438757Y-82511000D01*
X162681243Y-82511000D01*
X162919069Y-82463693D01*
X163143097Y-82370898D01*
X163344717Y-82236180D01*
X163516180Y-82064717D01*
X163650898Y-81863097D01*
X163743693Y-81639069D01*
X163791000Y-81401243D01*
X163791000Y-81158757D01*
X163743693Y-80920931D01*
X163650898Y-80696903D01*
X163516180Y-80495283D01*
X163344717Y-80323820D01*
X163143097Y-80189102D01*
X162919069Y-80096307D01*
X162681243Y-80049000D01*
X162438757Y-80049000D01*
X162200931Y-80096307D01*
X161976903Y-80189102D01*
X161775283Y-80323820D01*
X161603820Y-80495283D01*
X161469102Y-80696903D01*
X161376307Y-80920931D01*
X161329000Y-81158757D01*
X160308289Y-81158757D01*
X160421481Y-80943109D01*
X160324157Y-80668748D01*
X160175178Y-80418645D01*
X159980269Y-80202412D01*
X159746920Y-80028359D01*
X159484099Y-79903175D01*
X159336890Y-79858524D01*
X159107000Y-79979845D01*
X158853000Y-79979845D01*
X158623110Y-79858524D01*
X158475901Y-79903175D01*
X158213080Y-80028359D01*
X157979731Y-80202412D01*
X157784822Y-80418645D01*
X157635843Y-80668748D01*
X157578228Y-80831168D01*
X157530898Y-80716903D01*
X157396180Y-80515283D01*
X157224717Y-80343820D01*
X157023097Y-80209102D01*
X156799069Y-80116307D01*
X156561243Y-80069000D01*
X156318757Y-80069000D01*
X156080931Y-80116307D01*
X155856903Y-80209102D01*
X155655283Y-80343820D01*
X155483820Y-80515283D01*
X155349102Y-80716903D01*
X155256307Y-80940931D01*
X155209000Y-81178757D01*
X155132843Y-81178757D01*
X155132843Y-80450000D01*
X155125487Y-80375311D01*
X155103701Y-80303492D01*
X155068322Y-80237304D01*
X155020711Y-80179289D01*
X154962696Y-80131678D01*
X154896508Y-80096299D01*
X154824689Y-80074513D01*
X154750000Y-80067157D01*
X153050000Y-80067157D01*
X152975311Y-80074513D01*
X152903492Y-80096299D01*
X152837304Y-80131678D01*
X152779289Y-80179289D01*
X152731678Y-80237304D01*
X152696299Y-80303492D01*
X152674513Y-80375311D01*
X152667157Y-80450000D01*
X151084591Y-80450000D01*
X150957588Y-80279731D01*
X150741355Y-80084822D01*
X150491252Y-79935843D01*
X150328832Y-79878228D01*
X150443097Y-79830898D01*
X150644717Y-79696180D01*
X150816180Y-79524717D01*
X150950898Y-79323097D01*
X151043693Y-79099069D01*
X151091000Y-78861243D01*
X151091000Y-78618757D01*
X151043693Y-78380931D01*
X150950898Y-78156903D01*
X150816180Y-77955283D01*
X150644717Y-77783820D01*
X150443097Y-77649102D01*
X150219069Y-77556307D01*
X149981243Y-77509000D01*
X149738757Y-77509000D01*
X149500931Y-77556307D01*
X149276903Y-77649102D01*
X149075283Y-77783820D01*
X148903820Y-77955283D01*
X148769102Y-78156903D01*
X148676307Y-78380931D01*
X148629000Y-78618757D01*
X148629000Y-78861243D01*
X148676307Y-79099069D01*
X148769102Y-79323097D01*
X148903820Y-79524717D01*
X149075283Y-79696180D01*
X149276903Y-79830898D01*
X149391168Y-79878228D01*
X149228748Y-79935843D01*
X148978645Y-80084822D01*
X148762412Y-80279731D01*
X148588359Y-80513080D01*
X148463175Y-80775901D01*
X148418524Y-80923110D01*
X147726000Y-80923110D01*
X147726000Y-76078757D01*
X148629000Y-76078757D01*
X148629000Y-76321243D01*
X148676307Y-76559069D01*
X148769102Y-76783097D01*
X148903820Y-76984717D01*
X149075283Y-77156180D01*
X149276903Y-77290898D01*
X149500931Y-77383693D01*
X149738757Y-77431000D01*
X149981243Y-77431000D01*
X150219069Y-77383693D01*
X150443097Y-77290898D01*
X150644717Y-77156180D01*
X150816180Y-76984717D01*
X150950898Y-76783097D01*
X151043693Y-76559069D01*
X151091000Y-76321243D01*
X151091000Y-76078757D01*
X151081884Y-76032927D01*
X152319000Y-76032927D01*
X152319000Y-76167073D01*
X152345171Y-76298640D01*
X152396506Y-76422574D01*
X152471033Y-76534112D01*
X152565888Y-76628967D01*
X152677426Y-76703494D01*
X152801360Y-76754829D01*
X152932927Y-76781000D01*
X153067073Y-76781000D01*
X153198640Y-76754829D01*
X153322574Y-76703494D01*
X153402633Y-76650000D01*
X154867157Y-76650000D01*
X154867157Y-78350000D01*
X154874513Y-78424689D01*
X154896299Y-78496508D01*
X154931678Y-78562696D01*
X154979289Y-78620711D01*
X155037304Y-78668322D01*
X155103492Y-78703701D01*
X155175311Y-78725487D01*
X155250000Y-78732843D01*
X156950000Y-78732843D01*
X157024689Y-78725487D01*
X157096508Y-78703701D01*
X157162696Y-78668322D01*
X157220711Y-78620711D01*
X157268322Y-78562696D01*
X157303701Y-78496508D01*
X157325487Y-78424689D01*
X157332843Y-78350000D01*
X157332843Y-77378757D01*
X157409000Y-77378757D01*
X157409000Y-77621243D01*
X157456307Y-77859069D01*
X157549102Y-78083097D01*
X157683820Y-78284717D01*
X157855283Y-78456180D01*
X158056903Y-78590898D01*
X158280931Y-78683693D01*
X158518757Y-78731000D01*
X158761243Y-78731000D01*
X158999069Y-78683693D01*
X159155839Y-78618757D01*
X161329000Y-78618757D01*
X161329000Y-78861243D01*
X161376307Y-79099069D01*
X161469102Y-79323097D01*
X161603820Y-79524717D01*
X161775283Y-79696180D01*
X161976903Y-79830898D01*
X162200931Y-79923693D01*
X162438757Y-79971000D01*
X162681243Y-79971000D01*
X162919069Y-79923693D01*
X163143097Y-79830898D01*
X163344717Y-79696180D01*
X163516180Y-79524717D01*
X163650898Y-79323097D01*
X163743693Y-79099069D01*
X163791000Y-78861243D01*
X163791000Y-78618757D01*
X163743693Y-78380931D01*
X163650898Y-78156903D01*
X163516180Y-77955283D01*
X163344717Y-77783820D01*
X163143097Y-77649102D01*
X162919069Y-77556307D01*
X162681243Y-77509000D01*
X162438757Y-77509000D01*
X162200931Y-77556307D01*
X161976903Y-77649102D01*
X161775283Y-77783820D01*
X161603820Y-77955283D01*
X161469102Y-78156903D01*
X161376307Y-78380931D01*
X161329000Y-78618757D01*
X159155839Y-78618757D01*
X159223097Y-78590898D01*
X159424717Y-78456180D01*
X159596180Y-78284717D01*
X159730898Y-78083097D01*
X159823693Y-77859069D01*
X159871000Y-77621243D01*
X159871000Y-77378757D01*
X159823693Y-77140931D01*
X159730898Y-76916903D01*
X159596180Y-76715283D01*
X159424717Y-76543820D01*
X159223097Y-76409102D01*
X158999069Y-76316307D01*
X158761243Y-76269000D01*
X158518757Y-76269000D01*
X158280931Y-76316307D01*
X158056903Y-76409102D01*
X157855283Y-76543820D01*
X157683820Y-76715283D01*
X157549102Y-76916903D01*
X157456307Y-77140931D01*
X157409000Y-77378757D01*
X157332843Y-77378757D01*
X157332843Y-76650000D01*
X157325487Y-76575311D01*
X157303701Y-76503492D01*
X157268322Y-76437304D01*
X157220711Y-76379289D01*
X157162696Y-76331678D01*
X157096508Y-76296299D01*
X157024689Y-76274513D01*
X156950000Y-76267157D01*
X155250000Y-76267157D01*
X155175311Y-76274513D01*
X155103492Y-76296299D01*
X155037304Y-76331678D01*
X154979289Y-76379289D01*
X154931678Y-76437304D01*
X154896299Y-76503492D01*
X154874513Y-76575311D01*
X154867157Y-76650000D01*
X153402633Y-76650000D01*
X153434112Y-76628967D01*
X153528967Y-76534112D01*
X153603494Y-76422574D01*
X153654829Y-76298640D01*
X153681000Y-76167073D01*
X153681000Y-76078757D01*
X161329000Y-76078757D01*
X161329000Y-76321243D01*
X161376307Y-76559069D01*
X161469102Y-76783097D01*
X161603820Y-76984717D01*
X161775283Y-77156180D01*
X161976903Y-77290898D01*
X162200931Y-77383693D01*
X162438757Y-77431000D01*
X162681243Y-77431000D01*
X162919069Y-77383693D01*
X163143097Y-77290898D01*
X163344717Y-77156180D01*
X163516180Y-76984717D01*
X163650898Y-76783097D01*
X163743693Y-76559069D01*
X163791000Y-76321243D01*
X163791000Y-76078757D01*
X163743693Y-75840931D01*
X163650898Y-75616903D01*
X163516180Y-75415283D01*
X163344717Y-75243820D01*
X163143097Y-75109102D01*
X162919069Y-75016307D01*
X162681243Y-74969000D01*
X162438757Y-74969000D01*
X162200931Y-75016307D01*
X161976903Y-75109102D01*
X161775283Y-75243820D01*
X161603820Y-75415283D01*
X161469102Y-75616903D01*
X161376307Y-75840931D01*
X161329000Y-76078757D01*
X153681000Y-76078757D01*
X153681000Y-76032927D01*
X153654829Y-75901360D01*
X153603494Y-75777426D01*
X153528967Y-75665888D01*
X153434112Y-75571033D01*
X153322574Y-75496506D01*
X153198640Y-75445171D01*
X153067073Y-75419000D01*
X152932927Y-75419000D01*
X152801360Y-75445171D01*
X152677426Y-75496506D01*
X152565888Y-75571033D01*
X152471033Y-75665888D01*
X152396506Y-75777426D01*
X152345171Y-75901360D01*
X152319000Y-76032927D01*
X151081884Y-76032927D01*
X151043693Y-75840931D01*
X150950898Y-75616903D01*
X150816180Y-75415283D01*
X150644717Y-75243820D01*
X150443097Y-75109102D01*
X150219069Y-75016307D01*
X149981243Y-74969000D01*
X149738757Y-74969000D01*
X149500931Y-75016307D01*
X149276903Y-75109102D01*
X149075283Y-75243820D01*
X148903820Y-75415283D01*
X148769102Y-75616903D01*
X148676307Y-75840931D01*
X148629000Y-76078757D01*
X147726000Y-76078757D01*
X147726000Y-70998757D01*
X148629000Y-70998757D01*
X148629000Y-71241243D01*
X148676307Y-71479069D01*
X148769102Y-71703097D01*
X148903820Y-71904717D01*
X149075283Y-72076180D01*
X149276903Y-72210898D01*
X149500931Y-72303693D01*
X149738757Y-72351000D01*
X149981243Y-72351000D01*
X150219069Y-72303693D01*
X150443097Y-72210898D01*
X150573435Y-72123809D01*
X150538584Y-72207947D01*
X150512413Y-72339514D01*
X150512413Y-72473660D01*
X150538584Y-72605227D01*
X150554435Y-72643496D01*
X150443097Y-72569102D01*
X150219069Y-72476307D01*
X149981243Y-72429000D01*
X149738757Y-72429000D01*
X149500931Y-72476307D01*
X149276903Y-72569102D01*
X149075283Y-72703820D01*
X148903820Y-72875283D01*
X148769102Y-73076903D01*
X148676307Y-73300931D01*
X148629000Y-73538757D01*
X148629000Y-73781243D01*
X148676307Y-74019069D01*
X148769102Y-74243097D01*
X148903820Y-74444717D01*
X149075283Y-74616180D01*
X149276903Y-74750898D01*
X149500931Y-74843693D01*
X149738757Y-74891000D01*
X149981243Y-74891000D01*
X150219069Y-74843693D01*
X150443097Y-74750898D01*
X150469992Y-74732927D01*
X151219000Y-74732927D01*
X151219000Y-74867073D01*
X151245171Y-74998640D01*
X151296506Y-75122574D01*
X151371033Y-75234112D01*
X151465888Y-75328967D01*
X151577426Y-75403494D01*
X151701360Y-75454829D01*
X151832927Y-75481000D01*
X151967073Y-75481000D01*
X152098640Y-75454829D01*
X152222574Y-75403494D01*
X152334112Y-75328967D01*
X152428967Y-75234112D01*
X152503494Y-75122574D01*
X152554829Y-74998640D01*
X152581000Y-74867073D01*
X152581000Y-74732927D01*
X152554829Y-74601360D01*
X152503494Y-74477426D01*
X152428967Y-74365888D01*
X152334112Y-74271033D01*
X152277083Y-74232927D01*
X153419000Y-74232927D01*
X153419000Y-74367073D01*
X153445171Y-74498640D01*
X153496506Y-74622574D01*
X153571033Y-74734112D01*
X153665888Y-74828967D01*
X153777426Y-74903494D01*
X153901360Y-74954829D01*
X154032927Y-74981000D01*
X154167073Y-74981000D01*
X154298640Y-74954829D01*
X154422574Y-74903494D01*
X154534112Y-74828967D01*
X154628967Y-74734112D01*
X154703494Y-74622574D01*
X154754829Y-74498640D01*
X154781000Y-74367073D01*
X154781000Y-74232927D01*
X154754829Y-74101360D01*
X154703494Y-73977426D01*
X154628967Y-73865888D01*
X154534112Y-73771033D01*
X154422574Y-73696506D01*
X154298640Y-73645171D01*
X154167073Y-73619000D01*
X154032927Y-73619000D01*
X153901360Y-73645171D01*
X153777426Y-73696506D01*
X153665888Y-73771033D01*
X153571033Y-73865888D01*
X153496506Y-73977426D01*
X153445171Y-74101360D01*
X153419000Y-74232927D01*
X152277083Y-74232927D01*
X152222574Y-74196506D01*
X152098640Y-74145171D01*
X151967073Y-74119000D01*
X151832927Y-74119000D01*
X151701360Y-74145171D01*
X151577426Y-74196506D01*
X151465888Y-74271033D01*
X151371033Y-74365888D01*
X151296506Y-74477426D01*
X151245171Y-74601360D01*
X151219000Y-74732927D01*
X150469992Y-74732927D01*
X150644717Y-74616180D01*
X150816180Y-74444717D01*
X150950898Y-74243097D01*
X151043693Y-74019069D01*
X151091000Y-73781243D01*
X151091000Y-73538757D01*
X161329000Y-73538757D01*
X161329000Y-73781243D01*
X161376307Y-74019069D01*
X161469102Y-74243097D01*
X161603820Y-74444717D01*
X161775283Y-74616180D01*
X161976903Y-74750898D01*
X162200931Y-74843693D01*
X162438757Y-74891000D01*
X162681243Y-74891000D01*
X162919069Y-74843693D01*
X163143097Y-74750898D01*
X163344717Y-74616180D01*
X163516180Y-74444717D01*
X163650898Y-74243097D01*
X163743693Y-74019069D01*
X163791000Y-73781243D01*
X163791000Y-73538757D01*
X163743693Y-73300931D01*
X163650898Y-73076903D01*
X163516180Y-72875283D01*
X163344717Y-72703820D01*
X163143097Y-72569102D01*
X162919069Y-72476307D01*
X162681243Y-72429000D01*
X162438757Y-72429000D01*
X162200931Y-72476307D01*
X161976903Y-72569102D01*
X161775283Y-72703820D01*
X161603820Y-72875283D01*
X161469102Y-73076903D01*
X161376307Y-73300931D01*
X161329000Y-73538757D01*
X151091000Y-73538757D01*
X151043693Y-73300931D01*
X150950898Y-73076903D01*
X150919800Y-73030361D01*
X150994773Y-73061416D01*
X151126340Y-73087587D01*
X151260486Y-73087587D01*
X151392053Y-73061416D01*
X151515987Y-73010081D01*
X151627525Y-72935554D01*
X151722380Y-72840699D01*
X151796907Y-72729161D01*
X151848242Y-72605227D01*
X151874413Y-72473660D01*
X151874413Y-72339514D01*
X151848242Y-72207947D01*
X151796907Y-72084013D01*
X151722380Y-71972475D01*
X151703931Y-71954026D01*
X151713833Y-71944123D01*
X151721313Y-71932927D01*
X152299010Y-71932927D01*
X152299010Y-72067073D01*
X152325181Y-72198640D01*
X152376516Y-72322574D01*
X152451043Y-72434112D01*
X152545898Y-72528967D01*
X152657436Y-72603494D01*
X152781370Y-72654829D01*
X152912937Y-72681000D01*
X153047083Y-72681000D01*
X153178650Y-72654829D01*
X153302584Y-72603494D01*
X153414122Y-72528967D01*
X153508977Y-72434112D01*
X153583504Y-72322574D01*
X153634839Y-72198640D01*
X153661010Y-72067073D01*
X153661010Y-71932927D01*
X153634839Y-71801360D01*
X153583504Y-71677426D01*
X153508977Y-71565888D01*
X153414122Y-71471033D01*
X153302584Y-71396506D01*
X153178650Y-71345171D01*
X153047083Y-71319000D01*
X152912937Y-71319000D01*
X152781370Y-71345171D01*
X152657436Y-71396506D01*
X152545898Y-71471033D01*
X152451043Y-71565888D01*
X152376516Y-71677426D01*
X152325181Y-71801360D01*
X152299010Y-71932927D01*
X151721313Y-71932927D01*
X151788360Y-71832585D01*
X151839695Y-71708651D01*
X151865866Y-71577084D01*
X151865866Y-71442938D01*
X151839695Y-71311371D01*
X151788360Y-71187437D01*
X151713833Y-71075899D01*
X151618978Y-70981044D01*
X151507440Y-70906517D01*
X151383506Y-70855182D01*
X151251939Y-70829011D01*
X151117793Y-70829011D01*
X151059540Y-70840599D01*
X151043693Y-70760931D01*
X150950898Y-70536903D01*
X150816180Y-70335283D01*
X150763824Y-70282927D01*
X151269000Y-70282927D01*
X151269000Y-70417073D01*
X151295171Y-70548640D01*
X151346506Y-70672574D01*
X151421033Y-70784112D01*
X151515888Y-70878967D01*
X151627426Y-70953494D01*
X151751360Y-71004829D01*
X151882927Y-71031000D01*
X152017073Y-71031000D01*
X152148640Y-71004829D01*
X152163299Y-70998757D01*
X161329000Y-70998757D01*
X161329000Y-71241243D01*
X161376307Y-71479069D01*
X161469102Y-71703097D01*
X161603820Y-71904717D01*
X161775283Y-72076180D01*
X161976903Y-72210898D01*
X162200931Y-72303693D01*
X162438757Y-72351000D01*
X162681243Y-72351000D01*
X162919069Y-72303693D01*
X163143097Y-72210898D01*
X163344717Y-72076180D01*
X163516180Y-71904717D01*
X163650898Y-71703097D01*
X163743693Y-71479069D01*
X163791000Y-71241243D01*
X163791000Y-70998757D01*
X163743693Y-70760931D01*
X163650898Y-70536903D01*
X163516180Y-70335283D01*
X163344717Y-70163820D01*
X163143097Y-70029102D01*
X162919069Y-69936307D01*
X162681243Y-69889000D01*
X162438757Y-69889000D01*
X162200931Y-69936307D01*
X161976903Y-70029102D01*
X161775283Y-70163820D01*
X161603820Y-70335283D01*
X161469102Y-70536903D01*
X161376307Y-70760931D01*
X161329000Y-70998757D01*
X152163299Y-70998757D01*
X152272574Y-70953494D01*
X152384112Y-70878967D01*
X152478967Y-70784112D01*
X152553494Y-70672574D01*
X152604829Y-70548640D01*
X152631000Y-70417073D01*
X152631000Y-70282927D01*
X152604829Y-70151360D01*
X152553494Y-70027426D01*
X152478967Y-69915888D01*
X152384112Y-69821033D01*
X152272574Y-69746506D01*
X152148640Y-69695171D01*
X152017073Y-69669000D01*
X151882927Y-69669000D01*
X151751360Y-69695171D01*
X151627426Y-69746506D01*
X151515888Y-69821033D01*
X151421033Y-69915888D01*
X151346506Y-70027426D01*
X151295171Y-70151360D01*
X151269000Y-70282927D01*
X150763824Y-70282927D01*
X150644717Y-70163820D01*
X150443097Y-70029102D01*
X150219069Y-69936307D01*
X149981243Y-69889000D01*
X149738757Y-69889000D01*
X149500931Y-69936307D01*
X149276903Y-70029102D01*
X149075283Y-70163820D01*
X148903820Y-70335283D01*
X148769102Y-70536903D01*
X148676307Y-70760931D01*
X148629000Y-70998757D01*
X147726000Y-70998757D01*
X147726000Y-68458757D01*
X148629000Y-68458757D01*
X148629000Y-68701243D01*
X148676307Y-68939069D01*
X148769102Y-69163097D01*
X148903820Y-69364717D01*
X149075283Y-69536180D01*
X149276903Y-69670898D01*
X149500931Y-69763693D01*
X149738757Y-69811000D01*
X149981243Y-69811000D01*
X150219069Y-69763693D01*
X150443097Y-69670898D01*
X150510993Y-69625531D01*
X150588060Y-69702598D01*
X150699598Y-69777125D01*
X150823532Y-69828460D01*
X150955099Y-69854631D01*
X151089245Y-69854631D01*
X151220812Y-69828460D01*
X151344746Y-69777125D01*
X151456284Y-69702598D01*
X151551139Y-69607743D01*
X151625666Y-69496205D01*
X151677001Y-69372271D01*
X151703172Y-69240704D01*
X151703172Y-69106558D01*
X151677001Y-68974991D01*
X151625666Y-68851057D01*
X151551139Y-68739519D01*
X151456284Y-68644664D01*
X151344746Y-68570137D01*
X151220812Y-68518802D01*
X151091000Y-68492980D01*
X151091000Y-68458757D01*
X151046080Y-68232927D01*
X151718994Y-68232927D01*
X151718994Y-68367073D01*
X151745165Y-68498640D01*
X151796500Y-68622574D01*
X151871027Y-68734112D01*
X151965882Y-68828967D01*
X152077420Y-68903494D01*
X152201354Y-68954829D01*
X152332921Y-68981000D01*
X152467067Y-68981000D01*
X152598634Y-68954829D01*
X152722568Y-68903494D01*
X152834106Y-68828967D01*
X152928961Y-68734112D01*
X153003488Y-68622574D01*
X153054823Y-68498640D01*
X153062756Y-68458757D01*
X161329000Y-68458757D01*
X161329000Y-68701243D01*
X161376307Y-68939069D01*
X161469102Y-69163097D01*
X161603820Y-69364717D01*
X161775283Y-69536180D01*
X161976903Y-69670898D01*
X162200931Y-69763693D01*
X162438757Y-69811000D01*
X162681243Y-69811000D01*
X162919069Y-69763693D01*
X163143097Y-69670898D01*
X163344717Y-69536180D01*
X163516180Y-69364717D01*
X163650898Y-69163097D01*
X163743693Y-68939069D01*
X163791000Y-68701243D01*
X163791000Y-68458757D01*
X163743693Y-68220931D01*
X163650898Y-67996903D01*
X163516180Y-67795283D01*
X163344717Y-67623820D01*
X163143097Y-67489102D01*
X162919069Y-67396307D01*
X162681243Y-67349000D01*
X162438757Y-67349000D01*
X162200931Y-67396307D01*
X161976903Y-67489102D01*
X161775283Y-67623820D01*
X161603820Y-67795283D01*
X161469102Y-67996903D01*
X161376307Y-68220931D01*
X161329000Y-68458757D01*
X153062756Y-68458757D01*
X153080994Y-68367073D01*
X153080994Y-68232927D01*
X153054823Y-68101360D01*
X153003488Y-67977426D01*
X152928961Y-67865888D01*
X152834106Y-67771033D01*
X152722568Y-67696506D01*
X152598634Y-67645171D01*
X152467067Y-67619000D01*
X152332921Y-67619000D01*
X152201354Y-67645171D01*
X152077420Y-67696506D01*
X151965882Y-67771033D01*
X151871027Y-67865888D01*
X151796500Y-67977426D01*
X151745165Y-68101360D01*
X151718994Y-68232927D01*
X151046080Y-68232927D01*
X151043693Y-68220931D01*
X150950898Y-67996903D01*
X150816180Y-67795283D01*
X150644717Y-67623820D01*
X150443097Y-67489102D01*
X150219069Y-67396307D01*
X149981243Y-67349000D01*
X149738757Y-67349000D01*
X149500931Y-67396307D01*
X149276903Y-67489102D01*
X149075283Y-67623820D01*
X148903820Y-67795283D01*
X148769102Y-67996903D01*
X148676307Y-68220931D01*
X148629000Y-68458757D01*
X147726000Y-68458757D01*
X147726000Y-65918757D01*
X148629000Y-65918757D01*
X148629000Y-66161243D01*
X148676307Y-66399069D01*
X148769102Y-66623097D01*
X148903820Y-66824717D01*
X149075283Y-66996180D01*
X149276903Y-67130898D01*
X149500931Y-67223693D01*
X149738757Y-67271000D01*
X149981243Y-67271000D01*
X150219069Y-67223693D01*
X150443097Y-67130898D01*
X150644717Y-66996180D01*
X150816180Y-66824717D01*
X150950898Y-66623097D01*
X151043693Y-66399069D01*
X151091000Y-66161243D01*
X151091000Y-65918757D01*
X161329000Y-65918757D01*
X161329000Y-66161243D01*
X161376307Y-66399069D01*
X161469102Y-66623097D01*
X161603820Y-66824717D01*
X161775283Y-66996180D01*
X161976903Y-67130898D01*
X162200931Y-67223693D01*
X162438757Y-67271000D01*
X162681243Y-67271000D01*
X162919069Y-67223693D01*
X163143097Y-67130898D01*
X163344717Y-66996180D01*
X163516180Y-66824717D01*
X163650898Y-66623097D01*
X163743693Y-66399069D01*
X163791000Y-66161243D01*
X163791000Y-65918757D01*
X163743693Y-65680931D01*
X163650898Y-65456903D01*
X163516180Y-65255283D01*
X163344717Y-65083820D01*
X163143097Y-64949102D01*
X162919069Y-64856307D01*
X162681243Y-64809000D01*
X162438757Y-64809000D01*
X162200931Y-64856307D01*
X161976903Y-64949102D01*
X161775283Y-65083820D01*
X161603820Y-65255283D01*
X161469102Y-65456903D01*
X161376307Y-65680931D01*
X161329000Y-65918757D01*
X151091000Y-65918757D01*
X151043693Y-65680931D01*
X150950898Y-65456903D01*
X150816180Y-65255283D01*
X150644717Y-65083820D01*
X150443097Y-64949102D01*
X150219069Y-64856307D01*
X149981243Y-64809000D01*
X149738757Y-64809000D01*
X149500931Y-64856307D01*
X149276903Y-64949102D01*
X149075283Y-65083820D01*
X148903820Y-65255283D01*
X148769102Y-65456903D01*
X148676307Y-65680931D01*
X148629000Y-65918757D01*
X147726000Y-65918757D01*
X147726000Y-63378757D01*
X148629000Y-63378757D01*
X148629000Y-63621243D01*
X148676307Y-63859069D01*
X148769102Y-64083097D01*
X148903820Y-64284717D01*
X149075283Y-64456180D01*
X149276903Y-64590898D01*
X149500931Y-64683693D01*
X149738757Y-64731000D01*
X149981243Y-64731000D01*
X150219069Y-64683693D01*
X150443097Y-64590898D01*
X150644717Y-64456180D01*
X150816180Y-64284717D01*
X150950898Y-64083097D01*
X151043693Y-63859069D01*
X151091000Y-63621243D01*
X151091000Y-63378757D01*
X151087022Y-63358757D01*
X152319000Y-63358757D01*
X152319000Y-63601243D01*
X152366307Y-63839069D01*
X152459102Y-64063097D01*
X152593820Y-64264717D01*
X152765283Y-64436180D01*
X152966903Y-64570898D01*
X153190931Y-64663693D01*
X153428757Y-64711000D01*
X153671243Y-64711000D01*
X153909069Y-64663693D01*
X154133097Y-64570898D01*
X154334717Y-64436180D01*
X154506180Y-64264717D01*
X154640898Y-64063097D01*
X154733693Y-63839069D01*
X154781000Y-63601243D01*
X154781000Y-63378757D01*
X161329000Y-63378757D01*
X161329000Y-63621243D01*
X161376307Y-63859069D01*
X161469102Y-64083097D01*
X161603820Y-64284717D01*
X161775283Y-64456180D01*
X161976903Y-64590898D01*
X162200931Y-64683693D01*
X162438757Y-64731000D01*
X162681243Y-64731000D01*
X162919069Y-64683693D01*
X163143097Y-64590898D01*
X163344717Y-64456180D01*
X163516180Y-64284717D01*
X163650898Y-64083097D01*
X163743693Y-63859069D01*
X163791000Y-63621243D01*
X163791000Y-63378757D01*
X163743693Y-63140931D01*
X163650898Y-62916903D01*
X163516180Y-62715283D01*
X163344717Y-62543820D01*
X163143097Y-62409102D01*
X162919069Y-62316307D01*
X162681243Y-62269000D01*
X162438757Y-62269000D01*
X162200931Y-62316307D01*
X161976903Y-62409102D01*
X161775283Y-62543820D01*
X161603820Y-62715283D01*
X161469102Y-62916903D01*
X161376307Y-63140931D01*
X161329000Y-63378757D01*
X154781000Y-63378757D01*
X154781000Y-63358757D01*
X154733693Y-63120931D01*
X154640898Y-62896903D01*
X154506180Y-62695283D01*
X154334717Y-62523820D01*
X154133097Y-62389102D01*
X153909069Y-62296307D01*
X153671243Y-62249000D01*
X153428757Y-62249000D01*
X153190931Y-62296307D01*
X152966903Y-62389102D01*
X152765283Y-62523820D01*
X152593820Y-62695283D01*
X152459102Y-62896903D01*
X152366307Y-63120931D01*
X152319000Y-63358757D01*
X151087022Y-63358757D01*
X151043693Y-63140931D01*
X150950898Y-62916903D01*
X150816180Y-62715283D01*
X150644717Y-62543820D01*
X150443097Y-62409102D01*
X150219069Y-62316307D01*
X149981243Y-62269000D01*
X149738757Y-62269000D01*
X149500931Y-62316307D01*
X149276903Y-62409102D01*
X149075283Y-62543820D01*
X148903820Y-62715283D01*
X148769102Y-62916903D01*
X148676307Y-63140931D01*
X148629000Y-63378757D01*
X147726000Y-63378757D01*
X147726000Y-60838757D01*
X148629000Y-60838757D01*
X148629000Y-61081243D01*
X148676307Y-61319069D01*
X148769102Y-61543097D01*
X148903820Y-61744717D01*
X149075283Y-61916180D01*
X149276903Y-62050898D01*
X149500931Y-62143693D01*
X149738757Y-62191000D01*
X149981243Y-62191000D01*
X150219069Y-62143693D01*
X150443097Y-62050898D01*
X150644717Y-61916180D01*
X150816180Y-61744717D01*
X150950898Y-61543097D01*
X151043693Y-61319069D01*
X151091000Y-61081243D01*
X151091000Y-60838757D01*
X151087022Y-60818757D01*
X152319000Y-60818757D01*
X152319000Y-61061243D01*
X152366307Y-61299069D01*
X152459102Y-61523097D01*
X152593820Y-61724717D01*
X152765283Y-61896180D01*
X152966903Y-62030898D01*
X153190931Y-62123693D01*
X153428757Y-62171000D01*
X153671243Y-62171000D01*
X153909069Y-62123693D01*
X154133097Y-62030898D01*
X154334717Y-61896180D01*
X154506180Y-61724717D01*
X154640898Y-61523097D01*
X154733693Y-61299069D01*
X154781000Y-61061243D01*
X154781000Y-60878757D01*
X154969000Y-60878757D01*
X154969000Y-61121243D01*
X155016307Y-61359069D01*
X155109102Y-61583097D01*
X155243820Y-61784717D01*
X155415283Y-61956180D01*
X155616903Y-62090898D01*
X155840931Y-62183693D01*
X156078757Y-62231000D01*
X156321243Y-62231000D01*
X156559069Y-62183693D01*
X156783097Y-62090898D01*
X156984717Y-61956180D01*
X157156180Y-61784717D01*
X157290898Y-61583097D01*
X157383693Y-61359069D01*
X157431000Y-61121243D01*
X157431000Y-60878757D01*
X157383693Y-60640931D01*
X157290898Y-60416903D01*
X157156180Y-60215283D01*
X156984717Y-60043820D01*
X156783097Y-59909102D01*
X156559069Y-59816307D01*
X156321243Y-59769000D01*
X156078757Y-59769000D01*
X155840931Y-59816307D01*
X155616903Y-59909102D01*
X155415283Y-60043820D01*
X155243820Y-60215283D01*
X155109102Y-60416903D01*
X155016307Y-60640931D01*
X154969000Y-60878757D01*
X154781000Y-60878757D01*
X154781000Y-60818757D01*
X154733693Y-60580931D01*
X154640898Y-60356903D01*
X154506180Y-60155283D01*
X154334717Y-59983820D01*
X154133097Y-59849102D01*
X153909069Y-59756307D01*
X153671243Y-59709000D01*
X153428757Y-59709000D01*
X153190931Y-59756307D01*
X152966903Y-59849102D01*
X152765283Y-59983820D01*
X152593820Y-60155283D01*
X152459102Y-60356903D01*
X152366307Y-60580931D01*
X152319000Y-60818757D01*
X151087022Y-60818757D01*
X151043693Y-60600931D01*
X150950898Y-60376903D01*
X150816180Y-60175283D01*
X150644717Y-60003820D01*
X150443097Y-59869102D01*
X150219069Y-59776307D01*
X149981243Y-59729000D01*
X149738757Y-59729000D01*
X149500931Y-59776307D01*
X149276903Y-59869102D01*
X149075283Y-60003820D01*
X148903820Y-60175283D01*
X148769102Y-60376903D01*
X148676307Y-60600931D01*
X148629000Y-60838757D01*
X147726000Y-60838757D01*
X147726000Y-57570000D01*
X148627157Y-57570000D01*
X148627157Y-59270000D01*
X148634513Y-59344689D01*
X148656299Y-59416508D01*
X148691678Y-59482696D01*
X148739289Y-59540711D01*
X148797304Y-59588322D01*
X148863492Y-59623701D01*
X148935311Y-59645487D01*
X149010000Y-59652843D01*
X150710000Y-59652843D01*
X150784689Y-59645487D01*
X150856508Y-59623701D01*
X150922696Y-59588322D01*
X150980711Y-59540711D01*
X151028322Y-59482696D01*
X151063701Y-59416508D01*
X151085487Y-59344689D01*
X151092843Y-59270000D01*
X151092843Y-57570000D01*
X151090874Y-57550000D01*
X152317157Y-57550000D01*
X152317157Y-59250000D01*
X152324513Y-59324689D01*
X152346299Y-59396508D01*
X152381678Y-59462696D01*
X152429289Y-59520711D01*
X152487304Y-59568322D01*
X152553492Y-59603701D01*
X152625311Y-59625487D01*
X152700000Y-59632843D01*
X154400000Y-59632843D01*
X154474689Y-59625487D01*
X154546508Y-59603701D01*
X154612696Y-59568322D01*
X154670711Y-59520711D01*
X154718322Y-59462696D01*
X154753701Y-59396508D01*
X154775487Y-59324689D01*
X154782843Y-59250000D01*
X154782843Y-58338757D01*
X154969000Y-58338757D01*
X154969000Y-58581243D01*
X155016307Y-58819069D01*
X155109102Y-59043097D01*
X155243820Y-59244717D01*
X155415283Y-59416180D01*
X155616903Y-59550898D01*
X155840931Y-59643693D01*
X156078757Y-59691000D01*
X156321243Y-59691000D01*
X156559069Y-59643693D01*
X156783097Y-59550898D01*
X156984717Y-59416180D01*
X157156180Y-59244717D01*
X157290898Y-59043097D01*
X157334909Y-58936846D01*
X157343175Y-58964099D01*
X157468359Y-59226920D01*
X157642412Y-59460269D01*
X157858645Y-59655178D01*
X158046633Y-59767157D01*
X157890000Y-59767157D01*
X157815311Y-59774513D01*
X157743492Y-59796299D01*
X157677304Y-59831678D01*
X157619289Y-59879289D01*
X157571678Y-59937304D01*
X157536299Y-60003492D01*
X157514513Y-60075311D01*
X157507157Y-60150000D01*
X157507157Y-61850000D01*
X157514513Y-61924689D01*
X157536299Y-61996508D01*
X157571678Y-62062696D01*
X157619289Y-62120711D01*
X157677304Y-62168322D01*
X157743492Y-62203701D01*
X157815311Y-62225487D01*
X157890000Y-62232843D01*
X159590000Y-62232843D01*
X159664689Y-62225487D01*
X159736508Y-62203701D01*
X159802696Y-62168322D01*
X159860711Y-62120711D01*
X159908322Y-62062696D01*
X159943701Y-61996508D01*
X159965487Y-61924689D01*
X159972843Y-61850000D01*
X159972843Y-60838757D01*
X161329000Y-60838757D01*
X161329000Y-61081243D01*
X161376307Y-61319069D01*
X161469102Y-61543097D01*
X161603820Y-61744717D01*
X161775283Y-61916180D01*
X161976903Y-62050898D01*
X162200931Y-62143693D01*
X162438757Y-62191000D01*
X162681243Y-62191000D01*
X162919069Y-62143693D01*
X163143097Y-62050898D01*
X163344717Y-61916180D01*
X163516180Y-61744717D01*
X163650898Y-61543097D01*
X163743693Y-61319069D01*
X163791000Y-61081243D01*
X163791000Y-60838757D01*
X163743693Y-60600931D01*
X163650898Y-60376903D01*
X163516180Y-60175283D01*
X163344717Y-60003820D01*
X163143097Y-59869102D01*
X162919069Y-59776307D01*
X162681243Y-59729000D01*
X162438757Y-59729000D01*
X162200931Y-59776307D01*
X161976903Y-59869102D01*
X161775283Y-60003820D01*
X161603820Y-60175283D01*
X161469102Y-60376903D01*
X161376307Y-60600931D01*
X161329000Y-60838757D01*
X159972843Y-60838757D01*
X159972843Y-60150000D01*
X159965487Y-60075311D01*
X159943701Y-60003492D01*
X159908322Y-59937304D01*
X159860711Y-59879289D01*
X159802696Y-59831678D01*
X159736508Y-59796299D01*
X159664689Y-59774513D01*
X159590000Y-59767157D01*
X159433367Y-59767157D01*
X159621355Y-59655178D01*
X159837588Y-59460269D01*
X160011641Y-59226920D01*
X160136825Y-58964099D01*
X160181476Y-58816890D01*
X160060155Y-58587000D01*
X158867000Y-58587000D01*
X158867000Y-58607000D01*
X158613000Y-58607000D01*
X158613000Y-58587000D01*
X158593000Y-58587000D01*
X158593000Y-58333000D01*
X158613000Y-58333000D01*
X158613000Y-57139186D01*
X158867000Y-57139186D01*
X158867000Y-58333000D01*
X160060155Y-58333000D01*
X160181476Y-58103110D01*
X160136825Y-57955901D01*
X160011641Y-57693080D01*
X159919837Y-57570000D01*
X161327157Y-57570000D01*
X161327157Y-59270000D01*
X161334513Y-59344689D01*
X161356299Y-59416508D01*
X161391678Y-59482696D01*
X161439289Y-59540711D01*
X161497304Y-59588322D01*
X161563492Y-59623701D01*
X161635311Y-59645487D01*
X161710000Y-59652843D01*
X163410000Y-59652843D01*
X163484689Y-59645487D01*
X163556508Y-59623701D01*
X163622696Y-59588322D01*
X163680711Y-59540711D01*
X163728322Y-59482696D01*
X163763701Y-59416508D01*
X163785487Y-59344689D01*
X163792843Y-59270000D01*
X163792843Y-57570000D01*
X163785487Y-57495311D01*
X163763701Y-57423492D01*
X163728322Y-57357304D01*
X163680711Y-57299289D01*
X163622696Y-57251678D01*
X163556508Y-57216299D01*
X163484689Y-57194513D01*
X163410000Y-57187157D01*
X161710000Y-57187157D01*
X161635311Y-57194513D01*
X161563492Y-57216299D01*
X161497304Y-57251678D01*
X161439289Y-57299289D01*
X161391678Y-57357304D01*
X161356299Y-57423492D01*
X161334513Y-57495311D01*
X161327157Y-57570000D01*
X159919837Y-57570000D01*
X159837588Y-57459731D01*
X159621355Y-57264822D01*
X159371252Y-57115843D01*
X159096891Y-57018519D01*
X158867000Y-57139186D01*
X158613000Y-57139186D01*
X158383109Y-57018519D01*
X158108748Y-57115843D01*
X157858645Y-57264822D01*
X157642412Y-57459731D01*
X157468359Y-57693080D01*
X157343175Y-57955901D01*
X157334909Y-57983154D01*
X157290898Y-57876903D01*
X157156180Y-57675283D01*
X156984717Y-57503820D01*
X156783097Y-57369102D01*
X156559069Y-57276307D01*
X156321243Y-57229000D01*
X156078757Y-57229000D01*
X155840931Y-57276307D01*
X155616903Y-57369102D01*
X155415283Y-57503820D01*
X155243820Y-57675283D01*
X155109102Y-57876903D01*
X155016307Y-58100931D01*
X154969000Y-58338757D01*
X154782843Y-58338757D01*
X154782843Y-57550000D01*
X154775487Y-57475311D01*
X154753701Y-57403492D01*
X154718322Y-57337304D01*
X154670711Y-57279289D01*
X154612696Y-57231678D01*
X154546508Y-57196299D01*
X154474689Y-57174513D01*
X154400000Y-57167157D01*
X152700000Y-57167157D01*
X152625311Y-57174513D01*
X152553492Y-57196299D01*
X152487304Y-57231678D01*
X152429289Y-57279289D01*
X152381678Y-57337304D01*
X152346299Y-57403492D01*
X152324513Y-57475311D01*
X152317157Y-57550000D01*
X151090874Y-57550000D01*
X151085487Y-57495311D01*
X151063701Y-57423492D01*
X151028322Y-57357304D01*
X150980711Y-57299289D01*
X150922696Y-57251678D01*
X150856508Y-57216299D01*
X150784689Y-57194513D01*
X150710000Y-57187157D01*
X149010000Y-57187157D01*
X148935311Y-57194513D01*
X148863492Y-57216299D01*
X148797304Y-57251678D01*
X148739289Y-57299289D01*
X148691678Y-57357304D01*
X148656299Y-57423492D01*
X148634513Y-57495311D01*
X148627157Y-57570000D01*
X147726000Y-57570000D01*
X147726000Y-56286000D01*
X164694000Y-56286000D01*
X164694001Y-83414000D01*
G04 #@! TA.AperFunction,Conductor*
D15*
G36*
X164694001Y-83414000D02*
G01*
X147726000Y-83414000D01*
X147726000Y-81636890D01*
X148418524Y-81636890D01*
X148463175Y-81784099D01*
X148588359Y-82046920D01*
X148762412Y-82280269D01*
X148978645Y-82475178D01*
X149228748Y-82624157D01*
X149503109Y-82721481D01*
X149733000Y-82600814D01*
X149733000Y-81407000D01*
X149987000Y-81407000D01*
X149987000Y-82600814D01*
X150216891Y-82721481D01*
X150491252Y-82624157D01*
X150741355Y-82475178D01*
X150957588Y-82280269D01*
X151131641Y-82046920D01*
X151256825Y-81784099D01*
X151301476Y-81636890D01*
X151180155Y-81407000D01*
X149987000Y-81407000D01*
X149733000Y-81407000D01*
X148539845Y-81407000D01*
X148418524Y-81636890D01*
X147726000Y-81636890D01*
X147726000Y-80923110D01*
X148418524Y-80923110D01*
X148539845Y-81153000D01*
X149733000Y-81153000D01*
X149733000Y-81133000D01*
X149987000Y-81133000D01*
X149987000Y-81153000D01*
X151180155Y-81153000D01*
X151301476Y-80923110D01*
X151256825Y-80775901D01*
X151131641Y-80513080D01*
X151084591Y-80450000D01*
X152667157Y-80450000D01*
X152667157Y-82150000D01*
X152674513Y-82224689D01*
X152696299Y-82296508D01*
X152731678Y-82362696D01*
X152779289Y-82420711D01*
X152837304Y-82468322D01*
X152903492Y-82503701D01*
X152975311Y-82525487D01*
X153050000Y-82532843D01*
X154750000Y-82532843D01*
X154824689Y-82525487D01*
X154896508Y-82503701D01*
X154962696Y-82468322D01*
X155020711Y-82420711D01*
X155068322Y-82362696D01*
X155103701Y-82296508D01*
X155125487Y-82224689D01*
X155132843Y-82150000D01*
X155132843Y-81178757D01*
X155209000Y-81178757D01*
X155209000Y-81421243D01*
X155256307Y-81659069D01*
X155349102Y-81883097D01*
X155483820Y-82084717D01*
X155655283Y-82256180D01*
X155856903Y-82390898D01*
X156080931Y-82483693D01*
X156318757Y-82531000D01*
X156561243Y-82531000D01*
X156799069Y-82483693D01*
X157023097Y-82390898D01*
X157224717Y-82256180D01*
X157396180Y-82084717D01*
X157530898Y-81883097D01*
X157578228Y-81768832D01*
X157635843Y-81931252D01*
X157784822Y-82181355D01*
X157979731Y-82397588D01*
X158213080Y-82571641D01*
X158475901Y-82696825D01*
X158623110Y-82741476D01*
X158853000Y-82620155D01*
X158853000Y-81427000D01*
X159107000Y-81427000D01*
X159107000Y-82620155D01*
X159336890Y-82741476D01*
X159484099Y-82696825D01*
X159746920Y-82571641D01*
X159980269Y-82397588D01*
X160175178Y-82181355D01*
X160324157Y-81931252D01*
X160421481Y-81656891D01*
X160300814Y-81427000D01*
X159107000Y-81427000D01*
X158853000Y-81427000D01*
X158833000Y-81427000D01*
X158833000Y-81173000D01*
X158853000Y-81173000D01*
X158853000Y-79979845D01*
X159107000Y-79979845D01*
X159107000Y-81173000D01*
X160300814Y-81173000D01*
X160308289Y-81158757D01*
X161329000Y-81158757D01*
X161329000Y-81401243D01*
X161376307Y-81639069D01*
X161469102Y-81863097D01*
X161603820Y-82064717D01*
X161775283Y-82236180D01*
X161976903Y-82370898D01*
X162200931Y-82463693D01*
X162438757Y-82511000D01*
X162681243Y-82511000D01*
X162919069Y-82463693D01*
X163143097Y-82370898D01*
X163344717Y-82236180D01*
X163516180Y-82064717D01*
X163650898Y-81863097D01*
X163743693Y-81639069D01*
X163791000Y-81401243D01*
X163791000Y-81158757D01*
X163743693Y-80920931D01*
X163650898Y-80696903D01*
X163516180Y-80495283D01*
X163344717Y-80323820D01*
X163143097Y-80189102D01*
X162919069Y-80096307D01*
X162681243Y-80049000D01*
X162438757Y-80049000D01*
X162200931Y-80096307D01*
X161976903Y-80189102D01*
X161775283Y-80323820D01*
X161603820Y-80495283D01*
X161469102Y-80696903D01*
X161376307Y-80920931D01*
X161329000Y-81158757D01*
X160308289Y-81158757D01*
X160421481Y-80943109D01*
X160324157Y-80668748D01*
X160175178Y-80418645D01*
X159980269Y-80202412D01*
X159746920Y-80028359D01*
X159484099Y-79903175D01*
X159336890Y-79858524D01*
X159107000Y-79979845D01*
X158853000Y-79979845D01*
X158623110Y-79858524D01*
X158475901Y-79903175D01*
X158213080Y-80028359D01*
X157979731Y-80202412D01*
X157784822Y-80418645D01*
X157635843Y-80668748D01*
X157578228Y-80831168D01*
X157530898Y-80716903D01*
X157396180Y-80515283D01*
X157224717Y-80343820D01*
X157023097Y-80209102D01*
X156799069Y-80116307D01*
X156561243Y-80069000D01*
X156318757Y-80069000D01*
X156080931Y-80116307D01*
X155856903Y-80209102D01*
X155655283Y-80343820D01*
X155483820Y-80515283D01*
X155349102Y-80716903D01*
X155256307Y-80940931D01*
X155209000Y-81178757D01*
X155132843Y-81178757D01*
X155132843Y-80450000D01*
X155125487Y-80375311D01*
X155103701Y-80303492D01*
X155068322Y-80237304D01*
X155020711Y-80179289D01*
X154962696Y-80131678D01*
X154896508Y-80096299D01*
X154824689Y-80074513D01*
X154750000Y-80067157D01*
X153050000Y-80067157D01*
X152975311Y-80074513D01*
X152903492Y-80096299D01*
X152837304Y-80131678D01*
X152779289Y-80179289D01*
X152731678Y-80237304D01*
X152696299Y-80303492D01*
X152674513Y-80375311D01*
X152667157Y-80450000D01*
X151084591Y-80450000D01*
X150957588Y-80279731D01*
X150741355Y-80084822D01*
X150491252Y-79935843D01*
X150328832Y-79878228D01*
X150443097Y-79830898D01*
X150644717Y-79696180D01*
X150816180Y-79524717D01*
X150950898Y-79323097D01*
X151043693Y-79099069D01*
X151091000Y-78861243D01*
X151091000Y-78618757D01*
X151043693Y-78380931D01*
X150950898Y-78156903D01*
X150816180Y-77955283D01*
X150644717Y-77783820D01*
X150443097Y-77649102D01*
X150219069Y-77556307D01*
X149981243Y-77509000D01*
X149738757Y-77509000D01*
X149500931Y-77556307D01*
X149276903Y-77649102D01*
X149075283Y-77783820D01*
X148903820Y-77955283D01*
X148769102Y-78156903D01*
X148676307Y-78380931D01*
X148629000Y-78618757D01*
X148629000Y-78861243D01*
X148676307Y-79099069D01*
X148769102Y-79323097D01*
X148903820Y-79524717D01*
X149075283Y-79696180D01*
X149276903Y-79830898D01*
X149391168Y-79878228D01*
X149228748Y-79935843D01*
X148978645Y-80084822D01*
X148762412Y-80279731D01*
X148588359Y-80513080D01*
X148463175Y-80775901D01*
X148418524Y-80923110D01*
X147726000Y-80923110D01*
X147726000Y-76078757D01*
X148629000Y-76078757D01*
X148629000Y-76321243D01*
X148676307Y-76559069D01*
X148769102Y-76783097D01*
X148903820Y-76984717D01*
X149075283Y-77156180D01*
X149276903Y-77290898D01*
X149500931Y-77383693D01*
X149738757Y-77431000D01*
X149981243Y-77431000D01*
X150219069Y-77383693D01*
X150443097Y-77290898D01*
X150644717Y-77156180D01*
X150816180Y-76984717D01*
X150950898Y-76783097D01*
X151043693Y-76559069D01*
X151091000Y-76321243D01*
X151091000Y-76078757D01*
X151081884Y-76032927D01*
X152319000Y-76032927D01*
X152319000Y-76167073D01*
X152345171Y-76298640D01*
X152396506Y-76422574D01*
X152471033Y-76534112D01*
X152565888Y-76628967D01*
X152677426Y-76703494D01*
X152801360Y-76754829D01*
X152932927Y-76781000D01*
X153067073Y-76781000D01*
X153198640Y-76754829D01*
X153322574Y-76703494D01*
X153402633Y-76650000D01*
X154867157Y-76650000D01*
X154867157Y-78350000D01*
X154874513Y-78424689D01*
X154896299Y-78496508D01*
X154931678Y-78562696D01*
X154979289Y-78620711D01*
X155037304Y-78668322D01*
X155103492Y-78703701D01*
X155175311Y-78725487D01*
X155250000Y-78732843D01*
X156950000Y-78732843D01*
X157024689Y-78725487D01*
X157096508Y-78703701D01*
X157162696Y-78668322D01*
X157220711Y-78620711D01*
X157268322Y-78562696D01*
X157303701Y-78496508D01*
X157325487Y-78424689D01*
X157332843Y-78350000D01*
X157332843Y-77378757D01*
X157409000Y-77378757D01*
X157409000Y-77621243D01*
X157456307Y-77859069D01*
X157549102Y-78083097D01*
X157683820Y-78284717D01*
X157855283Y-78456180D01*
X158056903Y-78590898D01*
X158280931Y-78683693D01*
X158518757Y-78731000D01*
X158761243Y-78731000D01*
X158999069Y-78683693D01*
X159155839Y-78618757D01*
X161329000Y-78618757D01*
X161329000Y-78861243D01*
X161376307Y-79099069D01*
X161469102Y-79323097D01*
X161603820Y-79524717D01*
X161775283Y-79696180D01*
X161976903Y-79830898D01*
X162200931Y-79923693D01*
X162438757Y-79971000D01*
X162681243Y-79971000D01*
X162919069Y-79923693D01*
X163143097Y-79830898D01*
X163344717Y-79696180D01*
X163516180Y-79524717D01*
X163650898Y-79323097D01*
X163743693Y-79099069D01*
X163791000Y-78861243D01*
X163791000Y-78618757D01*
X163743693Y-78380931D01*
X163650898Y-78156903D01*
X163516180Y-77955283D01*
X163344717Y-77783820D01*
X163143097Y-77649102D01*
X162919069Y-77556307D01*
X162681243Y-77509000D01*
X162438757Y-77509000D01*
X162200931Y-77556307D01*
X161976903Y-77649102D01*
X161775283Y-77783820D01*
X161603820Y-77955283D01*
X161469102Y-78156903D01*
X161376307Y-78380931D01*
X161329000Y-78618757D01*
X159155839Y-78618757D01*
X159223097Y-78590898D01*
X159424717Y-78456180D01*
X159596180Y-78284717D01*
X159730898Y-78083097D01*
X159823693Y-77859069D01*
X159871000Y-77621243D01*
X159871000Y-77378757D01*
X159823693Y-77140931D01*
X159730898Y-76916903D01*
X159596180Y-76715283D01*
X159424717Y-76543820D01*
X159223097Y-76409102D01*
X158999069Y-76316307D01*
X158761243Y-76269000D01*
X158518757Y-76269000D01*
X158280931Y-76316307D01*
X158056903Y-76409102D01*
X157855283Y-76543820D01*
X157683820Y-76715283D01*
X157549102Y-76916903D01*
X157456307Y-77140931D01*
X157409000Y-77378757D01*
X157332843Y-77378757D01*
X157332843Y-76650000D01*
X157325487Y-76575311D01*
X157303701Y-76503492D01*
X157268322Y-76437304D01*
X157220711Y-76379289D01*
X157162696Y-76331678D01*
X157096508Y-76296299D01*
X157024689Y-76274513D01*
X156950000Y-76267157D01*
X155250000Y-76267157D01*
X155175311Y-76274513D01*
X155103492Y-76296299D01*
X155037304Y-76331678D01*
X154979289Y-76379289D01*
X154931678Y-76437304D01*
X154896299Y-76503492D01*
X154874513Y-76575311D01*
X154867157Y-76650000D01*
X153402633Y-76650000D01*
X153434112Y-76628967D01*
X153528967Y-76534112D01*
X153603494Y-76422574D01*
X153654829Y-76298640D01*
X153681000Y-76167073D01*
X153681000Y-76078757D01*
X161329000Y-76078757D01*
X161329000Y-76321243D01*
X161376307Y-76559069D01*
X161469102Y-76783097D01*
X161603820Y-76984717D01*
X161775283Y-77156180D01*
X161976903Y-77290898D01*
X162200931Y-77383693D01*
X162438757Y-77431000D01*
X162681243Y-77431000D01*
X162919069Y-77383693D01*
X163143097Y-77290898D01*
X163344717Y-77156180D01*
X163516180Y-76984717D01*
X163650898Y-76783097D01*
X163743693Y-76559069D01*
X163791000Y-76321243D01*
X163791000Y-76078757D01*
X163743693Y-75840931D01*
X163650898Y-75616903D01*
X163516180Y-75415283D01*
X163344717Y-75243820D01*
X163143097Y-75109102D01*
X162919069Y-75016307D01*
X162681243Y-74969000D01*
X162438757Y-74969000D01*
X162200931Y-75016307D01*
X161976903Y-75109102D01*
X161775283Y-75243820D01*
X161603820Y-75415283D01*
X161469102Y-75616903D01*
X161376307Y-75840931D01*
X161329000Y-76078757D01*
X153681000Y-76078757D01*
X153681000Y-76032927D01*
X153654829Y-75901360D01*
X153603494Y-75777426D01*
X153528967Y-75665888D01*
X153434112Y-75571033D01*
X153322574Y-75496506D01*
X153198640Y-75445171D01*
X153067073Y-75419000D01*
X152932927Y-75419000D01*
X152801360Y-75445171D01*
X152677426Y-75496506D01*
X152565888Y-75571033D01*
X152471033Y-75665888D01*
X152396506Y-75777426D01*
X152345171Y-75901360D01*
X152319000Y-76032927D01*
X151081884Y-76032927D01*
X151043693Y-75840931D01*
X150950898Y-75616903D01*
X150816180Y-75415283D01*
X150644717Y-75243820D01*
X150443097Y-75109102D01*
X150219069Y-75016307D01*
X149981243Y-74969000D01*
X149738757Y-74969000D01*
X149500931Y-75016307D01*
X149276903Y-75109102D01*
X149075283Y-75243820D01*
X148903820Y-75415283D01*
X148769102Y-75616903D01*
X148676307Y-75840931D01*
X148629000Y-76078757D01*
X147726000Y-76078757D01*
X147726000Y-70998757D01*
X148629000Y-70998757D01*
X148629000Y-71241243D01*
X148676307Y-71479069D01*
X148769102Y-71703097D01*
X148903820Y-71904717D01*
X149075283Y-72076180D01*
X149276903Y-72210898D01*
X149500931Y-72303693D01*
X149738757Y-72351000D01*
X149981243Y-72351000D01*
X150219069Y-72303693D01*
X150443097Y-72210898D01*
X150573435Y-72123809D01*
X150538584Y-72207947D01*
X150512413Y-72339514D01*
X150512413Y-72473660D01*
X150538584Y-72605227D01*
X150554435Y-72643496D01*
X150443097Y-72569102D01*
X150219069Y-72476307D01*
X149981243Y-72429000D01*
X149738757Y-72429000D01*
X149500931Y-72476307D01*
X149276903Y-72569102D01*
X149075283Y-72703820D01*
X148903820Y-72875283D01*
X148769102Y-73076903D01*
X148676307Y-73300931D01*
X148629000Y-73538757D01*
X148629000Y-73781243D01*
X148676307Y-74019069D01*
X148769102Y-74243097D01*
X148903820Y-74444717D01*
X149075283Y-74616180D01*
X149276903Y-74750898D01*
X149500931Y-74843693D01*
X149738757Y-74891000D01*
X149981243Y-74891000D01*
X150219069Y-74843693D01*
X150443097Y-74750898D01*
X150469992Y-74732927D01*
X151219000Y-74732927D01*
X151219000Y-74867073D01*
X151245171Y-74998640D01*
X151296506Y-75122574D01*
X151371033Y-75234112D01*
X151465888Y-75328967D01*
X151577426Y-75403494D01*
X151701360Y-75454829D01*
X151832927Y-75481000D01*
X151967073Y-75481000D01*
X152098640Y-75454829D01*
X152222574Y-75403494D01*
X152334112Y-75328967D01*
X152428967Y-75234112D01*
X152503494Y-75122574D01*
X152554829Y-74998640D01*
X152581000Y-74867073D01*
X152581000Y-74732927D01*
X152554829Y-74601360D01*
X152503494Y-74477426D01*
X152428967Y-74365888D01*
X152334112Y-74271033D01*
X152277083Y-74232927D01*
X153419000Y-74232927D01*
X153419000Y-74367073D01*
X153445171Y-74498640D01*
X153496506Y-74622574D01*
X153571033Y-74734112D01*
X153665888Y-74828967D01*
X153777426Y-74903494D01*
X153901360Y-74954829D01*
X154032927Y-74981000D01*
X154167073Y-74981000D01*
X154298640Y-74954829D01*
X154422574Y-74903494D01*
X154534112Y-74828967D01*
X154628967Y-74734112D01*
X154703494Y-74622574D01*
X154754829Y-74498640D01*
X154781000Y-74367073D01*
X154781000Y-74232927D01*
X154754829Y-74101360D01*
X154703494Y-73977426D01*
X154628967Y-73865888D01*
X154534112Y-73771033D01*
X154422574Y-73696506D01*
X154298640Y-73645171D01*
X154167073Y-73619000D01*
X154032927Y-73619000D01*
X153901360Y-73645171D01*
X153777426Y-73696506D01*
X153665888Y-73771033D01*
X153571033Y-73865888D01*
X153496506Y-73977426D01*
X153445171Y-74101360D01*
X153419000Y-74232927D01*
X152277083Y-74232927D01*
X152222574Y-74196506D01*
X152098640Y-74145171D01*
X151967073Y-74119000D01*
X151832927Y-74119000D01*
X151701360Y-74145171D01*
X151577426Y-74196506D01*
X151465888Y-74271033D01*
X151371033Y-74365888D01*
X151296506Y-74477426D01*
X151245171Y-74601360D01*
X151219000Y-74732927D01*
X150469992Y-74732927D01*
X150644717Y-74616180D01*
X150816180Y-74444717D01*
X150950898Y-74243097D01*
X151043693Y-74019069D01*
X151091000Y-73781243D01*
X151091000Y-73538757D01*
X161329000Y-73538757D01*
X161329000Y-73781243D01*
X161376307Y-74019069D01*
X161469102Y-74243097D01*
X161603820Y-74444717D01*
X161775283Y-74616180D01*
X161976903Y-74750898D01*
X162200931Y-74843693D01*
X162438757Y-74891000D01*
X162681243Y-74891000D01*
X162919069Y-74843693D01*
X163143097Y-74750898D01*
X163344717Y-74616180D01*
X163516180Y-74444717D01*
X163650898Y-74243097D01*
X163743693Y-74019069D01*
X163791000Y-73781243D01*
X163791000Y-73538757D01*
X163743693Y-73300931D01*
X163650898Y-73076903D01*
X163516180Y-72875283D01*
X163344717Y-72703820D01*
X163143097Y-72569102D01*
X162919069Y-72476307D01*
X162681243Y-72429000D01*
X162438757Y-72429000D01*
X162200931Y-72476307D01*
X161976903Y-72569102D01*
X161775283Y-72703820D01*
X161603820Y-72875283D01*
X161469102Y-73076903D01*
X161376307Y-73300931D01*
X161329000Y-73538757D01*
X151091000Y-73538757D01*
X151043693Y-73300931D01*
X150950898Y-73076903D01*
X150919800Y-73030361D01*
X150994773Y-73061416D01*
X151126340Y-73087587D01*
X151260486Y-73087587D01*
X151392053Y-73061416D01*
X151515987Y-73010081D01*
X151627525Y-72935554D01*
X151722380Y-72840699D01*
X151796907Y-72729161D01*
X151848242Y-72605227D01*
X151874413Y-72473660D01*
X151874413Y-72339514D01*
X151848242Y-72207947D01*
X151796907Y-72084013D01*
X151722380Y-71972475D01*
X151703931Y-71954026D01*
X151713833Y-71944123D01*
X151721313Y-71932927D01*
X152299010Y-71932927D01*
X152299010Y-72067073D01*
X152325181Y-72198640D01*
X152376516Y-72322574D01*
X152451043Y-72434112D01*
X152545898Y-72528967D01*
X152657436Y-72603494D01*
X152781370Y-72654829D01*
X152912937Y-72681000D01*
X153047083Y-72681000D01*
X153178650Y-72654829D01*
X153302584Y-72603494D01*
X153414122Y-72528967D01*
X153508977Y-72434112D01*
X153583504Y-72322574D01*
X153634839Y-72198640D01*
X153661010Y-72067073D01*
X153661010Y-71932927D01*
X153634839Y-71801360D01*
X153583504Y-71677426D01*
X153508977Y-71565888D01*
X153414122Y-71471033D01*
X153302584Y-71396506D01*
X153178650Y-71345171D01*
X153047083Y-71319000D01*
X152912937Y-71319000D01*
X152781370Y-71345171D01*
X152657436Y-71396506D01*
X152545898Y-71471033D01*
X152451043Y-71565888D01*
X152376516Y-71677426D01*
X152325181Y-71801360D01*
X152299010Y-71932927D01*
X151721313Y-71932927D01*
X151788360Y-71832585D01*
X151839695Y-71708651D01*
X151865866Y-71577084D01*
X151865866Y-71442938D01*
X151839695Y-71311371D01*
X151788360Y-71187437D01*
X151713833Y-71075899D01*
X151618978Y-70981044D01*
X151507440Y-70906517D01*
X151383506Y-70855182D01*
X151251939Y-70829011D01*
X151117793Y-70829011D01*
X151059540Y-70840599D01*
X151043693Y-70760931D01*
X150950898Y-70536903D01*
X150816180Y-70335283D01*
X150763824Y-70282927D01*
X151269000Y-70282927D01*
X151269000Y-70417073D01*
X151295171Y-70548640D01*
X151346506Y-70672574D01*
X151421033Y-70784112D01*
X151515888Y-70878967D01*
X151627426Y-70953494D01*
X151751360Y-71004829D01*
X151882927Y-71031000D01*
X152017073Y-71031000D01*
X152148640Y-71004829D01*
X152163299Y-70998757D01*
X161329000Y-70998757D01*
X161329000Y-71241243D01*
X161376307Y-71479069D01*
X161469102Y-71703097D01*
X161603820Y-71904717D01*
X161775283Y-72076180D01*
X161976903Y-72210898D01*
X162200931Y-72303693D01*
X162438757Y-72351000D01*
X162681243Y-72351000D01*
X162919069Y-72303693D01*
X163143097Y-72210898D01*
X163344717Y-72076180D01*
X163516180Y-71904717D01*
X163650898Y-71703097D01*
X163743693Y-71479069D01*
X163791000Y-71241243D01*
X163791000Y-70998757D01*
X163743693Y-70760931D01*
X163650898Y-70536903D01*
X163516180Y-70335283D01*
X163344717Y-70163820D01*
X163143097Y-70029102D01*
X162919069Y-69936307D01*
X162681243Y-69889000D01*
X162438757Y-69889000D01*
X162200931Y-69936307D01*
X161976903Y-70029102D01*
X161775283Y-70163820D01*
X161603820Y-70335283D01*
X161469102Y-70536903D01*
X161376307Y-70760931D01*
X161329000Y-70998757D01*
X152163299Y-70998757D01*
X152272574Y-70953494D01*
X152384112Y-70878967D01*
X152478967Y-70784112D01*
X152553494Y-70672574D01*
X152604829Y-70548640D01*
X152631000Y-70417073D01*
X152631000Y-70282927D01*
X152604829Y-70151360D01*
X152553494Y-70027426D01*
X152478967Y-69915888D01*
X152384112Y-69821033D01*
X152272574Y-69746506D01*
X152148640Y-69695171D01*
X152017073Y-69669000D01*
X151882927Y-69669000D01*
X151751360Y-69695171D01*
X151627426Y-69746506D01*
X151515888Y-69821033D01*
X151421033Y-69915888D01*
X151346506Y-70027426D01*
X151295171Y-70151360D01*
X151269000Y-70282927D01*
X150763824Y-70282927D01*
X150644717Y-70163820D01*
X150443097Y-70029102D01*
X150219069Y-69936307D01*
X149981243Y-69889000D01*
X149738757Y-69889000D01*
X149500931Y-69936307D01*
X149276903Y-70029102D01*
X149075283Y-70163820D01*
X148903820Y-70335283D01*
X148769102Y-70536903D01*
X148676307Y-70760931D01*
X148629000Y-70998757D01*
X147726000Y-70998757D01*
X147726000Y-68458757D01*
X148629000Y-68458757D01*
X148629000Y-68701243D01*
X148676307Y-68939069D01*
X148769102Y-69163097D01*
X148903820Y-69364717D01*
X149075283Y-69536180D01*
X149276903Y-69670898D01*
X149500931Y-69763693D01*
X149738757Y-69811000D01*
X149981243Y-69811000D01*
X150219069Y-69763693D01*
X150443097Y-69670898D01*
X150510993Y-69625531D01*
X150588060Y-69702598D01*
X150699598Y-69777125D01*
X150823532Y-69828460D01*
X150955099Y-69854631D01*
X151089245Y-69854631D01*
X151220812Y-69828460D01*
X151344746Y-69777125D01*
X151456284Y-69702598D01*
X151551139Y-69607743D01*
X151625666Y-69496205D01*
X151677001Y-69372271D01*
X151703172Y-69240704D01*
X151703172Y-69106558D01*
X151677001Y-68974991D01*
X151625666Y-68851057D01*
X151551139Y-68739519D01*
X151456284Y-68644664D01*
X151344746Y-68570137D01*
X151220812Y-68518802D01*
X151091000Y-68492980D01*
X151091000Y-68458757D01*
X151046080Y-68232927D01*
X151718994Y-68232927D01*
X151718994Y-68367073D01*
X151745165Y-68498640D01*
X151796500Y-68622574D01*
X151871027Y-68734112D01*
X151965882Y-68828967D01*
X152077420Y-68903494D01*
X152201354Y-68954829D01*
X152332921Y-68981000D01*
X152467067Y-68981000D01*
X152598634Y-68954829D01*
X152722568Y-68903494D01*
X152834106Y-68828967D01*
X152928961Y-68734112D01*
X153003488Y-68622574D01*
X153054823Y-68498640D01*
X153062756Y-68458757D01*
X161329000Y-68458757D01*
X161329000Y-68701243D01*
X161376307Y-68939069D01*
X161469102Y-69163097D01*
X161603820Y-69364717D01*
X161775283Y-69536180D01*
X161976903Y-69670898D01*
X162200931Y-69763693D01*
X162438757Y-69811000D01*
X162681243Y-69811000D01*
X162919069Y-69763693D01*
X163143097Y-69670898D01*
X163344717Y-69536180D01*
X163516180Y-69364717D01*
X163650898Y-69163097D01*
X163743693Y-68939069D01*
X163791000Y-68701243D01*
X163791000Y-68458757D01*
X163743693Y-68220931D01*
X163650898Y-67996903D01*
X163516180Y-67795283D01*
X163344717Y-67623820D01*
X163143097Y-67489102D01*
X162919069Y-67396307D01*
X162681243Y-67349000D01*
X162438757Y-67349000D01*
X162200931Y-67396307D01*
X161976903Y-67489102D01*
X161775283Y-67623820D01*
X161603820Y-67795283D01*
X161469102Y-67996903D01*
X161376307Y-68220931D01*
X161329000Y-68458757D01*
X153062756Y-68458757D01*
X153080994Y-68367073D01*
X153080994Y-68232927D01*
X153054823Y-68101360D01*
X153003488Y-67977426D01*
X152928961Y-67865888D01*
X152834106Y-67771033D01*
X152722568Y-67696506D01*
X152598634Y-67645171D01*
X152467067Y-67619000D01*
X152332921Y-67619000D01*
X152201354Y-67645171D01*
X152077420Y-67696506D01*
X151965882Y-67771033D01*
X151871027Y-67865888D01*
X151796500Y-67977426D01*
X151745165Y-68101360D01*
X151718994Y-68232927D01*
X151046080Y-68232927D01*
X151043693Y-68220931D01*
X150950898Y-67996903D01*
X150816180Y-67795283D01*
X150644717Y-67623820D01*
X150443097Y-67489102D01*
X150219069Y-67396307D01*
X149981243Y-67349000D01*
X149738757Y-67349000D01*
X149500931Y-67396307D01*
X149276903Y-67489102D01*
X149075283Y-67623820D01*
X148903820Y-67795283D01*
X148769102Y-67996903D01*
X148676307Y-68220931D01*
X148629000Y-68458757D01*
X147726000Y-68458757D01*
X147726000Y-65918757D01*
X148629000Y-65918757D01*
X148629000Y-66161243D01*
X148676307Y-66399069D01*
X148769102Y-66623097D01*
X148903820Y-66824717D01*
X149075283Y-66996180D01*
X149276903Y-67130898D01*
X149500931Y-67223693D01*
X149738757Y-67271000D01*
X149981243Y-67271000D01*
X150219069Y-67223693D01*
X150443097Y-67130898D01*
X150644717Y-66996180D01*
X150816180Y-66824717D01*
X150950898Y-66623097D01*
X151043693Y-66399069D01*
X151091000Y-66161243D01*
X151091000Y-65918757D01*
X161329000Y-65918757D01*
X161329000Y-66161243D01*
X161376307Y-66399069D01*
X161469102Y-66623097D01*
X161603820Y-66824717D01*
X161775283Y-66996180D01*
X161976903Y-67130898D01*
X162200931Y-67223693D01*
X162438757Y-67271000D01*
X162681243Y-67271000D01*
X162919069Y-67223693D01*
X163143097Y-67130898D01*
X163344717Y-66996180D01*
X163516180Y-66824717D01*
X163650898Y-66623097D01*
X163743693Y-66399069D01*
X163791000Y-66161243D01*
X163791000Y-65918757D01*
X163743693Y-65680931D01*
X163650898Y-65456903D01*
X163516180Y-65255283D01*
X163344717Y-65083820D01*
X163143097Y-64949102D01*
X162919069Y-64856307D01*
X162681243Y-64809000D01*
X162438757Y-64809000D01*
X162200931Y-64856307D01*
X161976903Y-64949102D01*
X161775283Y-65083820D01*
X161603820Y-65255283D01*
X161469102Y-65456903D01*
X161376307Y-65680931D01*
X161329000Y-65918757D01*
X151091000Y-65918757D01*
X151043693Y-65680931D01*
X150950898Y-65456903D01*
X150816180Y-65255283D01*
X150644717Y-65083820D01*
X150443097Y-64949102D01*
X150219069Y-64856307D01*
X149981243Y-64809000D01*
X149738757Y-64809000D01*
X149500931Y-64856307D01*
X149276903Y-64949102D01*
X149075283Y-65083820D01*
X148903820Y-65255283D01*
X148769102Y-65456903D01*
X148676307Y-65680931D01*
X148629000Y-65918757D01*
X147726000Y-65918757D01*
X147726000Y-63378757D01*
X148629000Y-63378757D01*
X148629000Y-63621243D01*
X148676307Y-63859069D01*
X148769102Y-64083097D01*
X148903820Y-64284717D01*
X149075283Y-64456180D01*
X149276903Y-64590898D01*
X149500931Y-64683693D01*
X149738757Y-64731000D01*
X149981243Y-64731000D01*
X150219069Y-64683693D01*
X150443097Y-64590898D01*
X150644717Y-64456180D01*
X150816180Y-64284717D01*
X150950898Y-64083097D01*
X151043693Y-63859069D01*
X151091000Y-63621243D01*
X151091000Y-63378757D01*
X151087022Y-63358757D01*
X152319000Y-63358757D01*
X152319000Y-63601243D01*
X152366307Y-63839069D01*
X152459102Y-64063097D01*
X152593820Y-64264717D01*
X152765283Y-64436180D01*
X152966903Y-64570898D01*
X153190931Y-64663693D01*
X153428757Y-64711000D01*
X153671243Y-64711000D01*
X153909069Y-64663693D01*
X154133097Y-64570898D01*
X154334717Y-64436180D01*
X154506180Y-64264717D01*
X154640898Y-64063097D01*
X154733693Y-63839069D01*
X154781000Y-63601243D01*
X154781000Y-63378757D01*
X161329000Y-63378757D01*
X161329000Y-63621243D01*
X161376307Y-63859069D01*
X161469102Y-64083097D01*
X161603820Y-64284717D01*
X161775283Y-64456180D01*
X161976903Y-64590898D01*
X162200931Y-64683693D01*
X162438757Y-64731000D01*
X162681243Y-64731000D01*
X162919069Y-64683693D01*
X163143097Y-64590898D01*
X163344717Y-64456180D01*
X163516180Y-64284717D01*
X163650898Y-64083097D01*
X163743693Y-63859069D01*
X163791000Y-63621243D01*
X163791000Y-63378757D01*
X163743693Y-63140931D01*
X163650898Y-62916903D01*
X163516180Y-62715283D01*
X163344717Y-62543820D01*
X163143097Y-62409102D01*
X162919069Y-62316307D01*
X162681243Y-62269000D01*
X162438757Y-62269000D01*
X162200931Y-62316307D01*
X161976903Y-62409102D01*
X161775283Y-62543820D01*
X161603820Y-62715283D01*
X161469102Y-62916903D01*
X161376307Y-63140931D01*
X161329000Y-63378757D01*
X154781000Y-63378757D01*
X154781000Y-63358757D01*
X154733693Y-63120931D01*
X154640898Y-62896903D01*
X154506180Y-62695283D01*
X154334717Y-62523820D01*
X154133097Y-62389102D01*
X153909069Y-62296307D01*
X153671243Y-62249000D01*
X153428757Y-62249000D01*
X153190931Y-62296307D01*
X152966903Y-62389102D01*
X152765283Y-62523820D01*
X152593820Y-62695283D01*
X152459102Y-62896903D01*
X152366307Y-63120931D01*
X152319000Y-63358757D01*
X151087022Y-63358757D01*
X151043693Y-63140931D01*
X150950898Y-62916903D01*
X150816180Y-62715283D01*
X150644717Y-62543820D01*
X150443097Y-62409102D01*
X150219069Y-62316307D01*
X149981243Y-62269000D01*
X149738757Y-62269000D01*
X149500931Y-62316307D01*
X149276903Y-62409102D01*
X149075283Y-62543820D01*
X148903820Y-62715283D01*
X148769102Y-62916903D01*
X148676307Y-63140931D01*
X148629000Y-63378757D01*
X147726000Y-63378757D01*
X147726000Y-60838757D01*
X148629000Y-60838757D01*
X148629000Y-61081243D01*
X148676307Y-61319069D01*
X148769102Y-61543097D01*
X148903820Y-61744717D01*
X149075283Y-61916180D01*
X149276903Y-62050898D01*
X149500931Y-62143693D01*
X149738757Y-62191000D01*
X149981243Y-62191000D01*
X150219069Y-62143693D01*
X150443097Y-62050898D01*
X150644717Y-61916180D01*
X150816180Y-61744717D01*
X150950898Y-61543097D01*
X151043693Y-61319069D01*
X151091000Y-61081243D01*
X151091000Y-60838757D01*
X151087022Y-60818757D01*
X152319000Y-60818757D01*
X152319000Y-61061243D01*
X152366307Y-61299069D01*
X152459102Y-61523097D01*
X152593820Y-61724717D01*
X152765283Y-61896180D01*
X152966903Y-62030898D01*
X153190931Y-62123693D01*
X153428757Y-62171000D01*
X153671243Y-62171000D01*
X153909069Y-62123693D01*
X154133097Y-62030898D01*
X154334717Y-61896180D01*
X154506180Y-61724717D01*
X154640898Y-61523097D01*
X154733693Y-61299069D01*
X154781000Y-61061243D01*
X154781000Y-60878757D01*
X154969000Y-60878757D01*
X154969000Y-61121243D01*
X155016307Y-61359069D01*
X155109102Y-61583097D01*
X155243820Y-61784717D01*
X155415283Y-61956180D01*
X155616903Y-62090898D01*
X155840931Y-62183693D01*
X156078757Y-62231000D01*
X156321243Y-62231000D01*
X156559069Y-62183693D01*
X156783097Y-62090898D01*
X156984717Y-61956180D01*
X157156180Y-61784717D01*
X157290898Y-61583097D01*
X157383693Y-61359069D01*
X157431000Y-61121243D01*
X157431000Y-60878757D01*
X157383693Y-60640931D01*
X157290898Y-60416903D01*
X157156180Y-60215283D01*
X156984717Y-60043820D01*
X156783097Y-59909102D01*
X156559069Y-59816307D01*
X156321243Y-59769000D01*
X156078757Y-59769000D01*
X155840931Y-59816307D01*
X155616903Y-59909102D01*
X155415283Y-60043820D01*
X155243820Y-60215283D01*
X155109102Y-60416903D01*
X155016307Y-60640931D01*
X154969000Y-60878757D01*
X154781000Y-60878757D01*
X154781000Y-60818757D01*
X154733693Y-60580931D01*
X154640898Y-60356903D01*
X154506180Y-60155283D01*
X154334717Y-59983820D01*
X154133097Y-59849102D01*
X153909069Y-59756307D01*
X153671243Y-59709000D01*
X153428757Y-59709000D01*
X153190931Y-59756307D01*
X152966903Y-59849102D01*
X152765283Y-59983820D01*
X152593820Y-60155283D01*
X152459102Y-60356903D01*
X152366307Y-60580931D01*
X152319000Y-60818757D01*
X151087022Y-60818757D01*
X151043693Y-60600931D01*
X150950898Y-60376903D01*
X150816180Y-60175283D01*
X150644717Y-60003820D01*
X150443097Y-59869102D01*
X150219069Y-59776307D01*
X149981243Y-59729000D01*
X149738757Y-59729000D01*
X149500931Y-59776307D01*
X149276903Y-59869102D01*
X149075283Y-60003820D01*
X148903820Y-60175283D01*
X148769102Y-60376903D01*
X148676307Y-60600931D01*
X148629000Y-60838757D01*
X147726000Y-60838757D01*
X147726000Y-57570000D01*
X148627157Y-57570000D01*
X148627157Y-59270000D01*
X148634513Y-59344689D01*
X148656299Y-59416508D01*
X148691678Y-59482696D01*
X148739289Y-59540711D01*
X148797304Y-59588322D01*
X148863492Y-59623701D01*
X148935311Y-59645487D01*
X149010000Y-59652843D01*
X150710000Y-59652843D01*
X150784689Y-59645487D01*
X150856508Y-59623701D01*
X150922696Y-59588322D01*
X150980711Y-59540711D01*
X151028322Y-59482696D01*
X151063701Y-59416508D01*
X151085487Y-59344689D01*
X151092843Y-59270000D01*
X151092843Y-57570000D01*
X151090874Y-57550000D01*
X152317157Y-57550000D01*
X152317157Y-59250000D01*
X152324513Y-59324689D01*
X152346299Y-59396508D01*
X152381678Y-59462696D01*
X152429289Y-59520711D01*
X152487304Y-59568322D01*
X152553492Y-59603701D01*
X152625311Y-59625487D01*
X152700000Y-59632843D01*
X154400000Y-59632843D01*
X154474689Y-59625487D01*
X154546508Y-59603701D01*
X154612696Y-59568322D01*
X154670711Y-59520711D01*
X154718322Y-59462696D01*
X154753701Y-59396508D01*
X154775487Y-59324689D01*
X154782843Y-59250000D01*
X154782843Y-58338757D01*
X154969000Y-58338757D01*
X154969000Y-58581243D01*
X155016307Y-58819069D01*
X155109102Y-59043097D01*
X155243820Y-59244717D01*
X155415283Y-59416180D01*
X155616903Y-59550898D01*
X155840931Y-59643693D01*
X156078757Y-59691000D01*
X156321243Y-59691000D01*
X156559069Y-59643693D01*
X156783097Y-59550898D01*
X156984717Y-59416180D01*
X157156180Y-59244717D01*
X157290898Y-59043097D01*
X157334909Y-58936846D01*
X157343175Y-58964099D01*
X157468359Y-59226920D01*
X157642412Y-59460269D01*
X157858645Y-59655178D01*
X158046633Y-59767157D01*
X157890000Y-59767157D01*
X157815311Y-59774513D01*
X157743492Y-59796299D01*
X157677304Y-59831678D01*
X157619289Y-59879289D01*
X157571678Y-59937304D01*
X157536299Y-60003492D01*
X157514513Y-60075311D01*
X157507157Y-60150000D01*
X157507157Y-61850000D01*
X157514513Y-61924689D01*
X157536299Y-61996508D01*
X157571678Y-62062696D01*
X157619289Y-62120711D01*
X157677304Y-62168322D01*
X157743492Y-62203701D01*
X157815311Y-62225487D01*
X157890000Y-62232843D01*
X159590000Y-62232843D01*
X159664689Y-62225487D01*
X159736508Y-62203701D01*
X159802696Y-62168322D01*
X159860711Y-62120711D01*
X159908322Y-62062696D01*
X159943701Y-61996508D01*
X159965487Y-61924689D01*
X159972843Y-61850000D01*
X159972843Y-60838757D01*
X161329000Y-60838757D01*
X161329000Y-61081243D01*
X161376307Y-61319069D01*
X161469102Y-61543097D01*
X161603820Y-61744717D01*
X161775283Y-61916180D01*
X161976903Y-62050898D01*
X162200931Y-62143693D01*
X162438757Y-62191000D01*
X162681243Y-62191000D01*
X162919069Y-62143693D01*
X163143097Y-62050898D01*
X163344717Y-61916180D01*
X163516180Y-61744717D01*
X163650898Y-61543097D01*
X163743693Y-61319069D01*
X163791000Y-61081243D01*
X163791000Y-60838757D01*
X163743693Y-60600931D01*
X163650898Y-60376903D01*
X163516180Y-60175283D01*
X163344717Y-60003820D01*
X163143097Y-59869102D01*
X162919069Y-59776307D01*
X162681243Y-59729000D01*
X162438757Y-59729000D01*
X162200931Y-59776307D01*
X161976903Y-59869102D01*
X161775283Y-60003820D01*
X161603820Y-60175283D01*
X161469102Y-60376903D01*
X161376307Y-60600931D01*
X161329000Y-60838757D01*
X159972843Y-60838757D01*
X159972843Y-60150000D01*
X159965487Y-60075311D01*
X159943701Y-60003492D01*
X159908322Y-59937304D01*
X159860711Y-59879289D01*
X159802696Y-59831678D01*
X159736508Y-59796299D01*
X159664689Y-59774513D01*
X159590000Y-59767157D01*
X159433367Y-59767157D01*
X159621355Y-59655178D01*
X159837588Y-59460269D01*
X160011641Y-59226920D01*
X160136825Y-58964099D01*
X160181476Y-58816890D01*
X160060155Y-58587000D01*
X158867000Y-58587000D01*
X158867000Y-58607000D01*
X158613000Y-58607000D01*
X158613000Y-58587000D01*
X158593000Y-58587000D01*
X158593000Y-58333000D01*
X158613000Y-58333000D01*
X158613000Y-57139186D01*
X158867000Y-57139186D01*
X158867000Y-58333000D01*
X160060155Y-58333000D01*
X160181476Y-58103110D01*
X160136825Y-57955901D01*
X160011641Y-57693080D01*
X159919837Y-57570000D01*
X161327157Y-57570000D01*
X161327157Y-59270000D01*
X161334513Y-59344689D01*
X161356299Y-59416508D01*
X161391678Y-59482696D01*
X161439289Y-59540711D01*
X161497304Y-59588322D01*
X161563492Y-59623701D01*
X161635311Y-59645487D01*
X161710000Y-59652843D01*
X163410000Y-59652843D01*
X163484689Y-59645487D01*
X163556508Y-59623701D01*
X163622696Y-59588322D01*
X163680711Y-59540711D01*
X163728322Y-59482696D01*
X163763701Y-59416508D01*
X163785487Y-59344689D01*
X163792843Y-59270000D01*
X163792843Y-57570000D01*
X163785487Y-57495311D01*
X163763701Y-57423492D01*
X163728322Y-57357304D01*
X163680711Y-57299289D01*
X163622696Y-57251678D01*
X163556508Y-57216299D01*
X163484689Y-57194513D01*
X163410000Y-57187157D01*
X161710000Y-57187157D01*
X161635311Y-57194513D01*
X161563492Y-57216299D01*
X161497304Y-57251678D01*
X161439289Y-57299289D01*
X161391678Y-57357304D01*
X161356299Y-57423492D01*
X161334513Y-57495311D01*
X161327157Y-57570000D01*
X159919837Y-57570000D01*
X159837588Y-57459731D01*
X159621355Y-57264822D01*
X159371252Y-57115843D01*
X159096891Y-57018519D01*
X158867000Y-57139186D01*
X158613000Y-57139186D01*
X158383109Y-57018519D01*
X158108748Y-57115843D01*
X157858645Y-57264822D01*
X157642412Y-57459731D01*
X157468359Y-57693080D01*
X157343175Y-57955901D01*
X157334909Y-57983154D01*
X157290898Y-57876903D01*
X157156180Y-57675283D01*
X156984717Y-57503820D01*
X156783097Y-57369102D01*
X156559069Y-57276307D01*
X156321243Y-57229000D01*
X156078757Y-57229000D01*
X155840931Y-57276307D01*
X155616903Y-57369102D01*
X155415283Y-57503820D01*
X155243820Y-57675283D01*
X155109102Y-57876903D01*
X155016307Y-58100931D01*
X154969000Y-58338757D01*
X154782843Y-58338757D01*
X154782843Y-57550000D01*
X154775487Y-57475311D01*
X154753701Y-57403492D01*
X154718322Y-57337304D01*
X154670711Y-57279289D01*
X154612696Y-57231678D01*
X154546508Y-57196299D01*
X154474689Y-57174513D01*
X154400000Y-57167157D01*
X152700000Y-57167157D01*
X152625311Y-57174513D01*
X152553492Y-57196299D01*
X152487304Y-57231678D01*
X152429289Y-57279289D01*
X152381678Y-57337304D01*
X152346299Y-57403492D01*
X152324513Y-57475311D01*
X152317157Y-57550000D01*
X151090874Y-57550000D01*
X151085487Y-57495311D01*
X151063701Y-57423492D01*
X151028322Y-57357304D01*
X150980711Y-57299289D01*
X150922696Y-57251678D01*
X150856508Y-57216299D01*
X150784689Y-57194513D01*
X150710000Y-57187157D01*
X149010000Y-57187157D01*
X148935311Y-57194513D01*
X148863492Y-57216299D01*
X148797304Y-57251678D01*
X148739289Y-57299289D01*
X148691678Y-57357304D01*
X148656299Y-57423492D01*
X148634513Y-57495311D01*
X148627157Y-57570000D01*
X147726000Y-57570000D01*
X147726000Y-56286000D01*
X164694000Y-56286000D01*
X164694001Y-83414000D01*
G37*
G04 #@! TD.AperFunction*
G04 #@! TD*
M02*
