G04 #@! TF.GenerationSoftware,KiCad,Pcbnew,(5.1.8)-1*
G04 #@! TF.CreationDate,2021-06-06T23:03:40+01:00*
G04 #@! TF.ProjectId,qfn-practice,71666e2d-7072-4616-9374-6963652e6b69,rev?*
G04 #@! TF.SameCoordinates,Original*
G04 #@! TF.FileFunction,Copper,L3,Inr*
G04 #@! TF.FilePolarity,Positive*
%FSLAX46Y46*%
G04 Gerber Fmt 4.6, Leading zero omitted, Abs format (unit mm)*
G04 Created by KiCad (PCBNEW (5.1.8)-1) date 2021-06-06 23:03:40*
%MOMM*%
%LPD*%
G01*
G04 APERTURE LIST*
G04 #@! TA.AperFunction,ComponentPad*
%ADD10R,1.700000X1.700000*%
G04 #@! TD*
G04 #@! TA.AperFunction,ComponentPad*
%ADD11O,1.700000X1.700000*%
G04 #@! TD*
G04 #@! TA.AperFunction,ViaPad*
%ADD12C,0.600000*%
G04 #@! TD*
G04 #@! TA.AperFunction,Conductor*
%ADD13C,0.254000*%
G04 #@! TD*
G04 #@! TA.AperFunction,Conductor*
%ADD14C,0.100000*%
G04 #@! TD*
G04 APERTURE END LIST*
D10*
G04 #@! TO.N,+3V3*
G04 #@! TO.C,J1*
X162560000Y-58420000D03*
D11*
G04 #@! TO.N,/P19*
X162560000Y-60960000D03*
G04 #@! TO.N,/P18*
X162560000Y-63500000D03*
G04 #@! TO.N,/AT_VCC_ST_PA10*
X162560000Y-66040000D03*
G04 #@! TO.N,/AT_PB2_ST_PA9*
X162560000Y-68580000D03*
G04 #@! TO.N,/AT_PB1_ST_VDD*
X162560000Y-71120000D03*
G04 #@! TO.N,/AT_PB0_ST_GND*
X162560000Y-73660000D03*
G04 #@! TO.N,/P13*
X162560000Y-76200000D03*
G04 #@! TO.N,/P12*
X162560000Y-78740000D03*
G04 #@! TO.N,/P11*
X162560000Y-81280000D03*
G04 #@! TD*
G04 #@! TO.N,GND*
G04 #@! TO.C,J2*
X149860000Y-81280000D03*
G04 #@! TO.N,/P9*
X149860000Y-78740000D03*
G04 #@! TO.N,/P8*
X149860000Y-76200000D03*
G04 #@! TO.N,/AT_GND_ST_PA5*
X149860000Y-73660000D03*
G04 #@! TO.N,/AT_PB4_ST_PA0*
X149860000Y-71120000D03*
G04 #@! TO.N,/AT_PB3_ST_PF1*
X149860000Y-68580000D03*
G04 #@! TO.N,/AT_PB5_!RESET_ST_PF0*
X149860000Y-66040000D03*
G04 #@! TO.N,/P3*
X149860000Y-63500000D03*
G04 #@! TO.N,/P2*
X149860000Y-60960000D03*
D10*
G04 #@! TO.N,/P1*
X149860000Y-58420000D03*
G04 #@! TD*
G04 #@! TO.N,+3V3*
G04 #@! TO.C,J3*
X153900000Y-81300000D03*
D11*
G04 #@! TO.N,/ST_BOOT0*
X156440000Y-81300000D03*
G04 #@! TO.N,GND*
X158980000Y-81300000D03*
G04 #@! TD*
D10*
G04 #@! TO.N,/ST_PA6*
G04 #@! TO.C,J5*
X156100000Y-77500000D03*
D11*
G04 #@! TO.N,/ST_PA7*
X158640000Y-77500000D03*
G04 #@! TD*
D10*
G04 #@! TO.N,/ST_PB3_SCK*
G04 #@! TO.C,J7*
X153550000Y-58400000D03*
D11*
G04 #@! TO.N,/ST_PB4_MISO*
X153550000Y-60940000D03*
G04 #@! TO.N,/ST_PB5_MOSI*
X153550000Y-63480000D03*
G04 #@! TD*
D10*
G04 #@! TO.N,/ST_USART-TX*
G04 #@! TO.C,J4*
X158740000Y-61000000D03*
D11*
G04 #@! TO.N,/ST_USART-RX*
X156200000Y-61000000D03*
G04 #@! TO.N,GND*
X158740000Y-58460000D03*
G04 #@! TO.N,/ST_PA1*
X156200000Y-58460000D03*
G04 #@! TD*
D12*
G04 #@! TO.N,GND*
X154300000Y-69000000D03*
X156100000Y-69000000D03*
X156100000Y-70700000D03*
X154300000Y-70700000D03*
X155700000Y-79400000D03*
X158950000Y-79350000D03*
X159950000Y-63150000D03*
X160550000Y-73750000D03*
X158550000Y-65300000D03*
X158500000Y-73900000D03*
X155050000Y-74600000D03*
X153600000Y-79100000D03*
X151400000Y-79400000D03*
X151950000Y-80850000D03*
X164000000Y-82800000D03*
X160500000Y-56900000D03*
X151700000Y-57800000D03*
X151700000Y-59100000D03*
X148300000Y-56800000D03*
X157300000Y-62300000D03*
X153824990Y-76700000D03*
X152125010Y-62899994D03*
X152125010Y-61300000D03*
G04 #@! TO.N,+3V3*
X151900000Y-74400000D03*
X151971408Y-70128584D03*
G04 #@! TO.N,/P11*
X152950000Y-72250000D03*
G04 #@! TO.N,/P8*
X151193413Y-72406587D03*
G04 #@! TO.N,/P3*
X151183969Y-69175953D03*
G04 #@! TO.N,/ST_PA1*
X151187108Y-71475010D03*
G04 #@! TD*
D13*
G04 #@! TO.N,GND*
X164440001Y-83160000D02*
X147980000Y-83160000D01*
X147980000Y-81636890D01*
X148418524Y-81636890D01*
X148463175Y-81784099D01*
X148588359Y-82046920D01*
X148762412Y-82280269D01*
X148978645Y-82475178D01*
X149228748Y-82624157D01*
X149503109Y-82721481D01*
X149733000Y-82600814D01*
X149733000Y-81407000D01*
X149987000Y-81407000D01*
X149987000Y-82600814D01*
X150216891Y-82721481D01*
X150491252Y-82624157D01*
X150741355Y-82475178D01*
X150957588Y-82280269D01*
X151131641Y-82046920D01*
X151256825Y-81784099D01*
X151301476Y-81636890D01*
X151180155Y-81407000D01*
X149987000Y-81407000D01*
X149733000Y-81407000D01*
X148539845Y-81407000D01*
X148418524Y-81636890D01*
X147980000Y-81636890D01*
X147980000Y-57570000D01*
X148371928Y-57570000D01*
X148371928Y-59270000D01*
X148384188Y-59394482D01*
X148420498Y-59514180D01*
X148479463Y-59624494D01*
X148558815Y-59721185D01*
X148655506Y-59800537D01*
X148765820Y-59859502D01*
X148838380Y-59881513D01*
X148706525Y-60013368D01*
X148544010Y-60256589D01*
X148432068Y-60526842D01*
X148375000Y-60813740D01*
X148375000Y-61106260D01*
X148432068Y-61393158D01*
X148544010Y-61663411D01*
X148706525Y-61906632D01*
X148913368Y-62113475D01*
X149087760Y-62230000D01*
X148913368Y-62346525D01*
X148706525Y-62553368D01*
X148544010Y-62796589D01*
X148432068Y-63066842D01*
X148375000Y-63353740D01*
X148375000Y-63646260D01*
X148432068Y-63933158D01*
X148544010Y-64203411D01*
X148706525Y-64446632D01*
X148913368Y-64653475D01*
X149087760Y-64770000D01*
X148913368Y-64886525D01*
X148706525Y-65093368D01*
X148544010Y-65336589D01*
X148432068Y-65606842D01*
X148375000Y-65893740D01*
X148375000Y-66186260D01*
X148432068Y-66473158D01*
X148544010Y-66743411D01*
X148706525Y-66986632D01*
X148913368Y-67193475D01*
X149087760Y-67310000D01*
X148913368Y-67426525D01*
X148706525Y-67633368D01*
X148544010Y-67876589D01*
X148432068Y-68146842D01*
X148375000Y-68433740D01*
X148375000Y-68726260D01*
X148432068Y-69013158D01*
X148544010Y-69283411D01*
X148706525Y-69526632D01*
X148913368Y-69733475D01*
X149087760Y-69850000D01*
X148913368Y-69966525D01*
X148706525Y-70173368D01*
X148544010Y-70416589D01*
X148432068Y-70686842D01*
X148375000Y-70973740D01*
X148375000Y-71266260D01*
X148432068Y-71553158D01*
X148544010Y-71823411D01*
X148706525Y-72066632D01*
X148913368Y-72273475D01*
X149087760Y-72390000D01*
X148913368Y-72506525D01*
X148706525Y-72713368D01*
X148544010Y-72956589D01*
X148432068Y-73226842D01*
X148375000Y-73513740D01*
X148375000Y-73806260D01*
X148432068Y-74093158D01*
X148544010Y-74363411D01*
X148706525Y-74606632D01*
X148913368Y-74813475D01*
X149087760Y-74930000D01*
X148913368Y-75046525D01*
X148706525Y-75253368D01*
X148544010Y-75496589D01*
X148432068Y-75766842D01*
X148375000Y-76053740D01*
X148375000Y-76346260D01*
X148432068Y-76633158D01*
X148544010Y-76903411D01*
X148706525Y-77146632D01*
X148913368Y-77353475D01*
X149087760Y-77470000D01*
X148913368Y-77586525D01*
X148706525Y-77793368D01*
X148544010Y-78036589D01*
X148432068Y-78306842D01*
X148375000Y-78593740D01*
X148375000Y-78886260D01*
X148432068Y-79173158D01*
X148544010Y-79443411D01*
X148706525Y-79686632D01*
X148913368Y-79893475D01*
X149095534Y-80015195D01*
X148978645Y-80084822D01*
X148762412Y-80279731D01*
X148588359Y-80513080D01*
X148463175Y-80775901D01*
X148418524Y-80923110D01*
X148539845Y-81153000D01*
X149733000Y-81153000D01*
X149733000Y-81133000D01*
X149987000Y-81133000D01*
X149987000Y-81153000D01*
X151180155Y-81153000D01*
X151301476Y-80923110D01*
X151256825Y-80775901D01*
X151131641Y-80513080D01*
X151084591Y-80450000D01*
X152411928Y-80450000D01*
X152411928Y-82150000D01*
X152424188Y-82274482D01*
X152460498Y-82394180D01*
X152519463Y-82504494D01*
X152598815Y-82601185D01*
X152695506Y-82680537D01*
X152805820Y-82739502D01*
X152925518Y-82775812D01*
X153050000Y-82788072D01*
X154750000Y-82788072D01*
X154874482Y-82775812D01*
X154994180Y-82739502D01*
X155104494Y-82680537D01*
X155201185Y-82601185D01*
X155280537Y-82504494D01*
X155339502Y-82394180D01*
X155361513Y-82321620D01*
X155493368Y-82453475D01*
X155736589Y-82615990D01*
X156006842Y-82727932D01*
X156293740Y-82785000D01*
X156586260Y-82785000D01*
X156873158Y-82727932D01*
X157143411Y-82615990D01*
X157386632Y-82453475D01*
X157593475Y-82246632D01*
X157715195Y-82064466D01*
X157784822Y-82181355D01*
X157979731Y-82397588D01*
X158213080Y-82571641D01*
X158475901Y-82696825D01*
X158623110Y-82741476D01*
X158853000Y-82620155D01*
X158853000Y-81427000D01*
X159107000Y-81427000D01*
X159107000Y-82620155D01*
X159336890Y-82741476D01*
X159484099Y-82696825D01*
X159746920Y-82571641D01*
X159980269Y-82397588D01*
X160175178Y-82181355D01*
X160324157Y-81931252D01*
X160421481Y-81656891D01*
X160300814Y-81427000D01*
X159107000Y-81427000D01*
X158853000Y-81427000D01*
X158833000Y-81427000D01*
X158833000Y-81173000D01*
X158853000Y-81173000D01*
X158853000Y-79979845D01*
X159107000Y-79979845D01*
X159107000Y-81173000D01*
X160300814Y-81173000D01*
X160421481Y-80943109D01*
X160324157Y-80668748D01*
X160175178Y-80418645D01*
X159980269Y-80202412D01*
X159746920Y-80028359D01*
X159484099Y-79903175D01*
X159336890Y-79858524D01*
X159107000Y-79979845D01*
X158853000Y-79979845D01*
X158623110Y-79858524D01*
X158475901Y-79903175D01*
X158213080Y-80028359D01*
X157979731Y-80202412D01*
X157784822Y-80418645D01*
X157715195Y-80535534D01*
X157593475Y-80353368D01*
X157386632Y-80146525D01*
X157143411Y-79984010D01*
X156873158Y-79872068D01*
X156586260Y-79815000D01*
X156293740Y-79815000D01*
X156006842Y-79872068D01*
X155736589Y-79984010D01*
X155493368Y-80146525D01*
X155361513Y-80278380D01*
X155339502Y-80205820D01*
X155280537Y-80095506D01*
X155201185Y-79998815D01*
X155104494Y-79919463D01*
X154994180Y-79860498D01*
X154874482Y-79824188D01*
X154750000Y-79811928D01*
X153050000Y-79811928D01*
X152925518Y-79824188D01*
X152805820Y-79860498D01*
X152695506Y-79919463D01*
X152598815Y-79998815D01*
X152519463Y-80095506D01*
X152460498Y-80205820D01*
X152424188Y-80325518D01*
X152411928Y-80450000D01*
X151084591Y-80450000D01*
X150957588Y-80279731D01*
X150741355Y-80084822D01*
X150624466Y-80015195D01*
X150806632Y-79893475D01*
X151013475Y-79686632D01*
X151175990Y-79443411D01*
X151287932Y-79173158D01*
X151345000Y-78886260D01*
X151345000Y-78593740D01*
X151287932Y-78306842D01*
X151175990Y-78036589D01*
X151013475Y-77793368D01*
X150806632Y-77586525D01*
X150632240Y-77470000D01*
X150806632Y-77353475D01*
X151013475Y-77146632D01*
X151175990Y-76903411D01*
X151280955Y-76650000D01*
X154611928Y-76650000D01*
X154611928Y-78350000D01*
X154624188Y-78474482D01*
X154660498Y-78594180D01*
X154719463Y-78704494D01*
X154798815Y-78801185D01*
X154895506Y-78880537D01*
X155005820Y-78939502D01*
X155125518Y-78975812D01*
X155250000Y-78988072D01*
X156950000Y-78988072D01*
X157074482Y-78975812D01*
X157194180Y-78939502D01*
X157304494Y-78880537D01*
X157401185Y-78801185D01*
X157480537Y-78704494D01*
X157539502Y-78594180D01*
X157561513Y-78521620D01*
X157693368Y-78653475D01*
X157936589Y-78815990D01*
X158206842Y-78927932D01*
X158493740Y-78985000D01*
X158786260Y-78985000D01*
X159073158Y-78927932D01*
X159343411Y-78815990D01*
X159586632Y-78653475D01*
X159793475Y-78446632D01*
X159955990Y-78203411D01*
X160067932Y-77933158D01*
X160125000Y-77646260D01*
X160125000Y-77353740D01*
X160067932Y-77066842D01*
X159955990Y-76796589D01*
X159793475Y-76553368D01*
X159586632Y-76346525D01*
X159343411Y-76184010D01*
X159073158Y-76072068D01*
X158786260Y-76015000D01*
X158493740Y-76015000D01*
X158206842Y-76072068D01*
X157936589Y-76184010D01*
X157693368Y-76346525D01*
X157561513Y-76478380D01*
X157539502Y-76405820D01*
X157480537Y-76295506D01*
X157401185Y-76198815D01*
X157304494Y-76119463D01*
X157194180Y-76060498D01*
X157074482Y-76024188D01*
X156950000Y-76011928D01*
X155250000Y-76011928D01*
X155125518Y-76024188D01*
X155005820Y-76060498D01*
X154895506Y-76119463D01*
X154798815Y-76198815D01*
X154719463Y-76295506D01*
X154660498Y-76405820D01*
X154624188Y-76525518D01*
X154611928Y-76650000D01*
X151280955Y-76650000D01*
X151287932Y-76633158D01*
X151345000Y-76346260D01*
X151345000Y-76053740D01*
X151287932Y-75766842D01*
X151175990Y-75496589D01*
X151013475Y-75253368D01*
X150806632Y-75046525D01*
X150632240Y-74930000D01*
X150806632Y-74813475D01*
X150992047Y-74628060D01*
X151000932Y-74672729D01*
X151071414Y-74842889D01*
X151173738Y-74996028D01*
X151303972Y-75126262D01*
X151457111Y-75228586D01*
X151627271Y-75299068D01*
X151807911Y-75335000D01*
X151992089Y-75335000D01*
X152172729Y-75299068D01*
X152342889Y-75228586D01*
X152496028Y-75126262D01*
X152626262Y-74996028D01*
X152728586Y-74842889D01*
X152799068Y-74672729D01*
X152835000Y-74492089D01*
X152835000Y-74307911D01*
X152799068Y-74127271D01*
X152728586Y-73957111D01*
X152626262Y-73803972D01*
X152496028Y-73673738D01*
X152342889Y-73571414D01*
X152172729Y-73500932D01*
X151992089Y-73465000D01*
X151807911Y-73465000D01*
X151627271Y-73500932D01*
X151457111Y-73571414D01*
X151345000Y-73646324D01*
X151345000Y-73513740D01*
X151309795Y-73336755D01*
X151466142Y-73305655D01*
X151636302Y-73235173D01*
X151789441Y-73132849D01*
X151919675Y-73002615D01*
X152021999Y-72849476D01*
X152092481Y-72679316D01*
X152100044Y-72641296D01*
X152121414Y-72692889D01*
X152223738Y-72846028D01*
X152353972Y-72976262D01*
X152507111Y-73078586D01*
X152677271Y-73149068D01*
X152857911Y-73185000D01*
X153042089Y-73185000D01*
X153222729Y-73149068D01*
X153392889Y-73078586D01*
X153546028Y-72976262D01*
X153676262Y-72846028D01*
X153778586Y-72692889D01*
X153849068Y-72522729D01*
X153885000Y-72342089D01*
X153885000Y-72157911D01*
X153849068Y-71977271D01*
X153778586Y-71807111D01*
X153676262Y-71653972D01*
X153546028Y-71523738D01*
X153392889Y-71421414D01*
X153222729Y-71350932D01*
X153042089Y-71315000D01*
X152857911Y-71315000D01*
X152677271Y-71350932D01*
X152507111Y-71421414D01*
X152353972Y-71523738D01*
X152223738Y-71653972D01*
X152121414Y-71807111D01*
X152050932Y-71977271D01*
X152043369Y-72015291D01*
X152021999Y-71963698D01*
X152003546Y-71936080D01*
X152015694Y-71917899D01*
X152086176Y-71747739D01*
X152122108Y-71567099D01*
X152122108Y-71382921D01*
X152086176Y-71202281D01*
X152028726Y-71063584D01*
X152063497Y-71063584D01*
X152244137Y-71027652D01*
X152414297Y-70957170D01*
X152567436Y-70854846D01*
X152697670Y-70724612D01*
X152799994Y-70571473D01*
X152870476Y-70401313D01*
X152906408Y-70220673D01*
X152906408Y-70036495D01*
X152870476Y-69855855D01*
X152799994Y-69685695D01*
X152697670Y-69532556D01*
X152567436Y-69402322D01*
X152414297Y-69299998D01*
X152244137Y-69229516D01*
X152118969Y-69204618D01*
X152118969Y-69083864D01*
X152083037Y-68903224D01*
X152012555Y-68733064D01*
X151910231Y-68579925D01*
X151779997Y-68449691D01*
X151626858Y-68347367D01*
X151456698Y-68276885D01*
X151307912Y-68247289D01*
X151287932Y-68146842D01*
X151175990Y-67876589D01*
X151013475Y-67633368D01*
X150806632Y-67426525D01*
X150632240Y-67310000D01*
X150806632Y-67193475D01*
X151013475Y-66986632D01*
X151175990Y-66743411D01*
X151287932Y-66473158D01*
X151345000Y-66186260D01*
X151345000Y-65893740D01*
X151287932Y-65606842D01*
X151175990Y-65336589D01*
X151013475Y-65093368D01*
X150806632Y-64886525D01*
X150632240Y-64770000D01*
X150806632Y-64653475D01*
X151013475Y-64446632D01*
X151175990Y-64203411D01*
X151287932Y-63933158D01*
X151345000Y-63646260D01*
X151345000Y-63353740D01*
X151287932Y-63066842D01*
X151175990Y-62796589D01*
X151013475Y-62553368D01*
X150806632Y-62346525D01*
X150632240Y-62230000D01*
X150806632Y-62113475D01*
X151013475Y-61906632D01*
X151175990Y-61663411D01*
X151287932Y-61393158D01*
X151345000Y-61106260D01*
X151345000Y-60813740D01*
X151287932Y-60526842D01*
X151175990Y-60256589D01*
X151013475Y-60013368D01*
X150881620Y-59881513D01*
X150954180Y-59859502D01*
X151064494Y-59800537D01*
X151161185Y-59721185D01*
X151240537Y-59624494D01*
X151299502Y-59514180D01*
X151335812Y-59394482D01*
X151348072Y-59270000D01*
X151348072Y-57570000D01*
X151346103Y-57550000D01*
X152061928Y-57550000D01*
X152061928Y-59250000D01*
X152074188Y-59374482D01*
X152110498Y-59494180D01*
X152169463Y-59604494D01*
X152248815Y-59701185D01*
X152345506Y-59780537D01*
X152455820Y-59839502D01*
X152528380Y-59861513D01*
X152396525Y-59993368D01*
X152234010Y-60236589D01*
X152122068Y-60506842D01*
X152065000Y-60793740D01*
X152065000Y-61086260D01*
X152122068Y-61373158D01*
X152234010Y-61643411D01*
X152396525Y-61886632D01*
X152603368Y-62093475D01*
X152777760Y-62210000D01*
X152603368Y-62326525D01*
X152396525Y-62533368D01*
X152234010Y-62776589D01*
X152122068Y-63046842D01*
X152065000Y-63333740D01*
X152065000Y-63626260D01*
X152122068Y-63913158D01*
X152234010Y-64183411D01*
X152396525Y-64426632D01*
X152603368Y-64633475D01*
X152846589Y-64795990D01*
X153116842Y-64907932D01*
X153403740Y-64965000D01*
X153696260Y-64965000D01*
X153983158Y-64907932D01*
X154253411Y-64795990D01*
X154496632Y-64633475D01*
X154703475Y-64426632D01*
X154865990Y-64183411D01*
X154977932Y-63913158D01*
X155035000Y-63626260D01*
X155035000Y-63333740D01*
X154977932Y-63046842D01*
X154865990Y-62776589D01*
X154703475Y-62533368D01*
X154496632Y-62326525D01*
X154322240Y-62210000D01*
X154496632Y-62093475D01*
X154703475Y-61886632D01*
X154861772Y-61649724D01*
X154884010Y-61703411D01*
X155046525Y-61946632D01*
X155253368Y-62153475D01*
X155496589Y-62315990D01*
X155766842Y-62427932D01*
X156053740Y-62485000D01*
X156346260Y-62485000D01*
X156633158Y-62427932D01*
X156903411Y-62315990D01*
X157146632Y-62153475D01*
X157278487Y-62021620D01*
X157300498Y-62094180D01*
X157359463Y-62204494D01*
X157438815Y-62301185D01*
X157535506Y-62380537D01*
X157645820Y-62439502D01*
X157765518Y-62475812D01*
X157890000Y-62488072D01*
X159590000Y-62488072D01*
X159714482Y-62475812D01*
X159834180Y-62439502D01*
X159944494Y-62380537D01*
X160041185Y-62301185D01*
X160120537Y-62204494D01*
X160179502Y-62094180D01*
X160215812Y-61974482D01*
X160228072Y-61850000D01*
X160228072Y-60150000D01*
X160215812Y-60025518D01*
X160179502Y-59905820D01*
X160120537Y-59795506D01*
X160041185Y-59698815D01*
X159944494Y-59619463D01*
X159834180Y-59560498D01*
X159753534Y-59536034D01*
X159837588Y-59460269D01*
X160011641Y-59226920D01*
X160136825Y-58964099D01*
X160181476Y-58816890D01*
X160060155Y-58587000D01*
X158867000Y-58587000D01*
X158867000Y-58607000D01*
X158613000Y-58607000D01*
X158613000Y-58587000D01*
X158593000Y-58587000D01*
X158593000Y-58333000D01*
X158613000Y-58333000D01*
X158613000Y-57139186D01*
X158867000Y-57139186D01*
X158867000Y-58333000D01*
X160060155Y-58333000D01*
X160181476Y-58103110D01*
X160136825Y-57955901D01*
X160011641Y-57693080D01*
X159919837Y-57570000D01*
X161071928Y-57570000D01*
X161071928Y-59270000D01*
X161084188Y-59394482D01*
X161120498Y-59514180D01*
X161179463Y-59624494D01*
X161258815Y-59721185D01*
X161355506Y-59800537D01*
X161465820Y-59859502D01*
X161538380Y-59881513D01*
X161406525Y-60013368D01*
X161244010Y-60256589D01*
X161132068Y-60526842D01*
X161075000Y-60813740D01*
X161075000Y-61106260D01*
X161132068Y-61393158D01*
X161244010Y-61663411D01*
X161406525Y-61906632D01*
X161613368Y-62113475D01*
X161787760Y-62230000D01*
X161613368Y-62346525D01*
X161406525Y-62553368D01*
X161244010Y-62796589D01*
X161132068Y-63066842D01*
X161075000Y-63353740D01*
X161075000Y-63646260D01*
X161132068Y-63933158D01*
X161244010Y-64203411D01*
X161406525Y-64446632D01*
X161613368Y-64653475D01*
X161787760Y-64770000D01*
X161613368Y-64886525D01*
X161406525Y-65093368D01*
X161244010Y-65336589D01*
X161132068Y-65606842D01*
X161075000Y-65893740D01*
X161075000Y-66186260D01*
X161132068Y-66473158D01*
X161244010Y-66743411D01*
X161406525Y-66986632D01*
X161613368Y-67193475D01*
X161787760Y-67310000D01*
X161613368Y-67426525D01*
X161406525Y-67633368D01*
X161244010Y-67876589D01*
X161132068Y-68146842D01*
X161075000Y-68433740D01*
X161075000Y-68726260D01*
X161132068Y-69013158D01*
X161244010Y-69283411D01*
X161406525Y-69526632D01*
X161613368Y-69733475D01*
X161787760Y-69850000D01*
X161613368Y-69966525D01*
X161406525Y-70173368D01*
X161244010Y-70416589D01*
X161132068Y-70686842D01*
X161075000Y-70973740D01*
X161075000Y-71266260D01*
X161132068Y-71553158D01*
X161244010Y-71823411D01*
X161406525Y-72066632D01*
X161613368Y-72273475D01*
X161787760Y-72390000D01*
X161613368Y-72506525D01*
X161406525Y-72713368D01*
X161244010Y-72956589D01*
X161132068Y-73226842D01*
X161075000Y-73513740D01*
X161075000Y-73806260D01*
X161132068Y-74093158D01*
X161244010Y-74363411D01*
X161406525Y-74606632D01*
X161613368Y-74813475D01*
X161787760Y-74930000D01*
X161613368Y-75046525D01*
X161406525Y-75253368D01*
X161244010Y-75496589D01*
X161132068Y-75766842D01*
X161075000Y-76053740D01*
X161075000Y-76346260D01*
X161132068Y-76633158D01*
X161244010Y-76903411D01*
X161406525Y-77146632D01*
X161613368Y-77353475D01*
X161787760Y-77470000D01*
X161613368Y-77586525D01*
X161406525Y-77793368D01*
X161244010Y-78036589D01*
X161132068Y-78306842D01*
X161075000Y-78593740D01*
X161075000Y-78886260D01*
X161132068Y-79173158D01*
X161244010Y-79443411D01*
X161406525Y-79686632D01*
X161613368Y-79893475D01*
X161787760Y-80010000D01*
X161613368Y-80126525D01*
X161406525Y-80333368D01*
X161244010Y-80576589D01*
X161132068Y-80846842D01*
X161075000Y-81133740D01*
X161075000Y-81426260D01*
X161132068Y-81713158D01*
X161244010Y-81983411D01*
X161406525Y-82226632D01*
X161613368Y-82433475D01*
X161856589Y-82595990D01*
X162126842Y-82707932D01*
X162413740Y-82765000D01*
X162706260Y-82765000D01*
X162993158Y-82707932D01*
X163263411Y-82595990D01*
X163506632Y-82433475D01*
X163713475Y-82226632D01*
X163875990Y-81983411D01*
X163987932Y-81713158D01*
X164045000Y-81426260D01*
X164045000Y-81133740D01*
X163987932Y-80846842D01*
X163875990Y-80576589D01*
X163713475Y-80333368D01*
X163506632Y-80126525D01*
X163332240Y-80010000D01*
X163506632Y-79893475D01*
X163713475Y-79686632D01*
X163875990Y-79443411D01*
X163987932Y-79173158D01*
X164045000Y-78886260D01*
X164045000Y-78593740D01*
X163987932Y-78306842D01*
X163875990Y-78036589D01*
X163713475Y-77793368D01*
X163506632Y-77586525D01*
X163332240Y-77470000D01*
X163506632Y-77353475D01*
X163713475Y-77146632D01*
X163875990Y-76903411D01*
X163987932Y-76633158D01*
X164045000Y-76346260D01*
X164045000Y-76053740D01*
X163987932Y-75766842D01*
X163875990Y-75496589D01*
X163713475Y-75253368D01*
X163506632Y-75046525D01*
X163332240Y-74930000D01*
X163506632Y-74813475D01*
X163713475Y-74606632D01*
X163875990Y-74363411D01*
X163987932Y-74093158D01*
X164045000Y-73806260D01*
X164045000Y-73513740D01*
X163987932Y-73226842D01*
X163875990Y-72956589D01*
X163713475Y-72713368D01*
X163506632Y-72506525D01*
X163332240Y-72390000D01*
X163506632Y-72273475D01*
X163713475Y-72066632D01*
X163875990Y-71823411D01*
X163987932Y-71553158D01*
X164045000Y-71266260D01*
X164045000Y-70973740D01*
X163987932Y-70686842D01*
X163875990Y-70416589D01*
X163713475Y-70173368D01*
X163506632Y-69966525D01*
X163332240Y-69850000D01*
X163506632Y-69733475D01*
X163713475Y-69526632D01*
X163875990Y-69283411D01*
X163987932Y-69013158D01*
X164045000Y-68726260D01*
X164045000Y-68433740D01*
X163987932Y-68146842D01*
X163875990Y-67876589D01*
X163713475Y-67633368D01*
X163506632Y-67426525D01*
X163332240Y-67310000D01*
X163506632Y-67193475D01*
X163713475Y-66986632D01*
X163875990Y-66743411D01*
X163987932Y-66473158D01*
X164045000Y-66186260D01*
X164045000Y-65893740D01*
X163987932Y-65606842D01*
X163875990Y-65336589D01*
X163713475Y-65093368D01*
X163506632Y-64886525D01*
X163332240Y-64770000D01*
X163506632Y-64653475D01*
X163713475Y-64446632D01*
X163875990Y-64203411D01*
X163987932Y-63933158D01*
X164045000Y-63646260D01*
X164045000Y-63353740D01*
X163987932Y-63066842D01*
X163875990Y-62796589D01*
X163713475Y-62553368D01*
X163506632Y-62346525D01*
X163332240Y-62230000D01*
X163506632Y-62113475D01*
X163713475Y-61906632D01*
X163875990Y-61663411D01*
X163987932Y-61393158D01*
X164045000Y-61106260D01*
X164045000Y-60813740D01*
X163987932Y-60526842D01*
X163875990Y-60256589D01*
X163713475Y-60013368D01*
X163581620Y-59881513D01*
X163654180Y-59859502D01*
X163764494Y-59800537D01*
X163861185Y-59721185D01*
X163940537Y-59624494D01*
X163999502Y-59514180D01*
X164035812Y-59394482D01*
X164048072Y-59270000D01*
X164048072Y-57570000D01*
X164035812Y-57445518D01*
X163999502Y-57325820D01*
X163940537Y-57215506D01*
X163861185Y-57118815D01*
X163764494Y-57039463D01*
X163654180Y-56980498D01*
X163534482Y-56944188D01*
X163410000Y-56931928D01*
X161710000Y-56931928D01*
X161585518Y-56944188D01*
X161465820Y-56980498D01*
X161355506Y-57039463D01*
X161258815Y-57118815D01*
X161179463Y-57215506D01*
X161120498Y-57325820D01*
X161084188Y-57445518D01*
X161071928Y-57570000D01*
X159919837Y-57570000D01*
X159837588Y-57459731D01*
X159621355Y-57264822D01*
X159371252Y-57115843D01*
X159096891Y-57018519D01*
X158867000Y-57139186D01*
X158613000Y-57139186D01*
X158383109Y-57018519D01*
X158108748Y-57115843D01*
X157858645Y-57264822D01*
X157642412Y-57459731D01*
X157471100Y-57689406D01*
X157353475Y-57513368D01*
X157146632Y-57306525D01*
X156903411Y-57144010D01*
X156633158Y-57032068D01*
X156346260Y-56975000D01*
X156053740Y-56975000D01*
X155766842Y-57032068D01*
X155496589Y-57144010D01*
X155253368Y-57306525D01*
X155046525Y-57513368D01*
X155036014Y-57529100D01*
X155025812Y-57425518D01*
X154989502Y-57305820D01*
X154930537Y-57195506D01*
X154851185Y-57098815D01*
X154754494Y-57019463D01*
X154644180Y-56960498D01*
X154524482Y-56924188D01*
X154400000Y-56911928D01*
X152700000Y-56911928D01*
X152575518Y-56924188D01*
X152455820Y-56960498D01*
X152345506Y-57019463D01*
X152248815Y-57098815D01*
X152169463Y-57195506D01*
X152110498Y-57305820D01*
X152074188Y-57425518D01*
X152061928Y-57550000D01*
X151346103Y-57550000D01*
X151335812Y-57445518D01*
X151299502Y-57325820D01*
X151240537Y-57215506D01*
X151161185Y-57118815D01*
X151064494Y-57039463D01*
X150954180Y-56980498D01*
X150834482Y-56944188D01*
X150710000Y-56931928D01*
X149010000Y-56931928D01*
X148885518Y-56944188D01*
X148765820Y-56980498D01*
X148655506Y-57039463D01*
X148558815Y-57118815D01*
X148479463Y-57215506D01*
X148420498Y-57325820D01*
X148384188Y-57445518D01*
X148371928Y-57570000D01*
X147980000Y-57570000D01*
X147980000Y-56540000D01*
X164440000Y-56540000D01*
X164440001Y-83160000D01*
G04 #@! TA.AperFunction,Conductor*
D14*
G36*
X164440001Y-83160000D02*
G01*
X147980000Y-83160000D01*
X147980000Y-81636890D01*
X148418524Y-81636890D01*
X148463175Y-81784099D01*
X148588359Y-82046920D01*
X148762412Y-82280269D01*
X148978645Y-82475178D01*
X149228748Y-82624157D01*
X149503109Y-82721481D01*
X149733000Y-82600814D01*
X149733000Y-81407000D01*
X149987000Y-81407000D01*
X149987000Y-82600814D01*
X150216891Y-82721481D01*
X150491252Y-82624157D01*
X150741355Y-82475178D01*
X150957588Y-82280269D01*
X151131641Y-82046920D01*
X151256825Y-81784099D01*
X151301476Y-81636890D01*
X151180155Y-81407000D01*
X149987000Y-81407000D01*
X149733000Y-81407000D01*
X148539845Y-81407000D01*
X148418524Y-81636890D01*
X147980000Y-81636890D01*
X147980000Y-57570000D01*
X148371928Y-57570000D01*
X148371928Y-59270000D01*
X148384188Y-59394482D01*
X148420498Y-59514180D01*
X148479463Y-59624494D01*
X148558815Y-59721185D01*
X148655506Y-59800537D01*
X148765820Y-59859502D01*
X148838380Y-59881513D01*
X148706525Y-60013368D01*
X148544010Y-60256589D01*
X148432068Y-60526842D01*
X148375000Y-60813740D01*
X148375000Y-61106260D01*
X148432068Y-61393158D01*
X148544010Y-61663411D01*
X148706525Y-61906632D01*
X148913368Y-62113475D01*
X149087760Y-62230000D01*
X148913368Y-62346525D01*
X148706525Y-62553368D01*
X148544010Y-62796589D01*
X148432068Y-63066842D01*
X148375000Y-63353740D01*
X148375000Y-63646260D01*
X148432068Y-63933158D01*
X148544010Y-64203411D01*
X148706525Y-64446632D01*
X148913368Y-64653475D01*
X149087760Y-64770000D01*
X148913368Y-64886525D01*
X148706525Y-65093368D01*
X148544010Y-65336589D01*
X148432068Y-65606842D01*
X148375000Y-65893740D01*
X148375000Y-66186260D01*
X148432068Y-66473158D01*
X148544010Y-66743411D01*
X148706525Y-66986632D01*
X148913368Y-67193475D01*
X149087760Y-67310000D01*
X148913368Y-67426525D01*
X148706525Y-67633368D01*
X148544010Y-67876589D01*
X148432068Y-68146842D01*
X148375000Y-68433740D01*
X148375000Y-68726260D01*
X148432068Y-69013158D01*
X148544010Y-69283411D01*
X148706525Y-69526632D01*
X148913368Y-69733475D01*
X149087760Y-69850000D01*
X148913368Y-69966525D01*
X148706525Y-70173368D01*
X148544010Y-70416589D01*
X148432068Y-70686842D01*
X148375000Y-70973740D01*
X148375000Y-71266260D01*
X148432068Y-71553158D01*
X148544010Y-71823411D01*
X148706525Y-72066632D01*
X148913368Y-72273475D01*
X149087760Y-72390000D01*
X148913368Y-72506525D01*
X148706525Y-72713368D01*
X148544010Y-72956589D01*
X148432068Y-73226842D01*
X148375000Y-73513740D01*
X148375000Y-73806260D01*
X148432068Y-74093158D01*
X148544010Y-74363411D01*
X148706525Y-74606632D01*
X148913368Y-74813475D01*
X149087760Y-74930000D01*
X148913368Y-75046525D01*
X148706525Y-75253368D01*
X148544010Y-75496589D01*
X148432068Y-75766842D01*
X148375000Y-76053740D01*
X148375000Y-76346260D01*
X148432068Y-76633158D01*
X148544010Y-76903411D01*
X148706525Y-77146632D01*
X148913368Y-77353475D01*
X149087760Y-77470000D01*
X148913368Y-77586525D01*
X148706525Y-77793368D01*
X148544010Y-78036589D01*
X148432068Y-78306842D01*
X148375000Y-78593740D01*
X148375000Y-78886260D01*
X148432068Y-79173158D01*
X148544010Y-79443411D01*
X148706525Y-79686632D01*
X148913368Y-79893475D01*
X149095534Y-80015195D01*
X148978645Y-80084822D01*
X148762412Y-80279731D01*
X148588359Y-80513080D01*
X148463175Y-80775901D01*
X148418524Y-80923110D01*
X148539845Y-81153000D01*
X149733000Y-81153000D01*
X149733000Y-81133000D01*
X149987000Y-81133000D01*
X149987000Y-81153000D01*
X151180155Y-81153000D01*
X151301476Y-80923110D01*
X151256825Y-80775901D01*
X151131641Y-80513080D01*
X151084591Y-80450000D01*
X152411928Y-80450000D01*
X152411928Y-82150000D01*
X152424188Y-82274482D01*
X152460498Y-82394180D01*
X152519463Y-82504494D01*
X152598815Y-82601185D01*
X152695506Y-82680537D01*
X152805820Y-82739502D01*
X152925518Y-82775812D01*
X153050000Y-82788072D01*
X154750000Y-82788072D01*
X154874482Y-82775812D01*
X154994180Y-82739502D01*
X155104494Y-82680537D01*
X155201185Y-82601185D01*
X155280537Y-82504494D01*
X155339502Y-82394180D01*
X155361513Y-82321620D01*
X155493368Y-82453475D01*
X155736589Y-82615990D01*
X156006842Y-82727932D01*
X156293740Y-82785000D01*
X156586260Y-82785000D01*
X156873158Y-82727932D01*
X157143411Y-82615990D01*
X157386632Y-82453475D01*
X157593475Y-82246632D01*
X157715195Y-82064466D01*
X157784822Y-82181355D01*
X157979731Y-82397588D01*
X158213080Y-82571641D01*
X158475901Y-82696825D01*
X158623110Y-82741476D01*
X158853000Y-82620155D01*
X158853000Y-81427000D01*
X159107000Y-81427000D01*
X159107000Y-82620155D01*
X159336890Y-82741476D01*
X159484099Y-82696825D01*
X159746920Y-82571641D01*
X159980269Y-82397588D01*
X160175178Y-82181355D01*
X160324157Y-81931252D01*
X160421481Y-81656891D01*
X160300814Y-81427000D01*
X159107000Y-81427000D01*
X158853000Y-81427000D01*
X158833000Y-81427000D01*
X158833000Y-81173000D01*
X158853000Y-81173000D01*
X158853000Y-79979845D01*
X159107000Y-79979845D01*
X159107000Y-81173000D01*
X160300814Y-81173000D01*
X160421481Y-80943109D01*
X160324157Y-80668748D01*
X160175178Y-80418645D01*
X159980269Y-80202412D01*
X159746920Y-80028359D01*
X159484099Y-79903175D01*
X159336890Y-79858524D01*
X159107000Y-79979845D01*
X158853000Y-79979845D01*
X158623110Y-79858524D01*
X158475901Y-79903175D01*
X158213080Y-80028359D01*
X157979731Y-80202412D01*
X157784822Y-80418645D01*
X157715195Y-80535534D01*
X157593475Y-80353368D01*
X157386632Y-80146525D01*
X157143411Y-79984010D01*
X156873158Y-79872068D01*
X156586260Y-79815000D01*
X156293740Y-79815000D01*
X156006842Y-79872068D01*
X155736589Y-79984010D01*
X155493368Y-80146525D01*
X155361513Y-80278380D01*
X155339502Y-80205820D01*
X155280537Y-80095506D01*
X155201185Y-79998815D01*
X155104494Y-79919463D01*
X154994180Y-79860498D01*
X154874482Y-79824188D01*
X154750000Y-79811928D01*
X153050000Y-79811928D01*
X152925518Y-79824188D01*
X152805820Y-79860498D01*
X152695506Y-79919463D01*
X152598815Y-79998815D01*
X152519463Y-80095506D01*
X152460498Y-80205820D01*
X152424188Y-80325518D01*
X152411928Y-80450000D01*
X151084591Y-80450000D01*
X150957588Y-80279731D01*
X150741355Y-80084822D01*
X150624466Y-80015195D01*
X150806632Y-79893475D01*
X151013475Y-79686632D01*
X151175990Y-79443411D01*
X151287932Y-79173158D01*
X151345000Y-78886260D01*
X151345000Y-78593740D01*
X151287932Y-78306842D01*
X151175990Y-78036589D01*
X151013475Y-77793368D01*
X150806632Y-77586525D01*
X150632240Y-77470000D01*
X150806632Y-77353475D01*
X151013475Y-77146632D01*
X151175990Y-76903411D01*
X151280955Y-76650000D01*
X154611928Y-76650000D01*
X154611928Y-78350000D01*
X154624188Y-78474482D01*
X154660498Y-78594180D01*
X154719463Y-78704494D01*
X154798815Y-78801185D01*
X154895506Y-78880537D01*
X155005820Y-78939502D01*
X155125518Y-78975812D01*
X155250000Y-78988072D01*
X156950000Y-78988072D01*
X157074482Y-78975812D01*
X157194180Y-78939502D01*
X157304494Y-78880537D01*
X157401185Y-78801185D01*
X157480537Y-78704494D01*
X157539502Y-78594180D01*
X157561513Y-78521620D01*
X157693368Y-78653475D01*
X157936589Y-78815990D01*
X158206842Y-78927932D01*
X158493740Y-78985000D01*
X158786260Y-78985000D01*
X159073158Y-78927932D01*
X159343411Y-78815990D01*
X159586632Y-78653475D01*
X159793475Y-78446632D01*
X159955990Y-78203411D01*
X160067932Y-77933158D01*
X160125000Y-77646260D01*
X160125000Y-77353740D01*
X160067932Y-77066842D01*
X159955990Y-76796589D01*
X159793475Y-76553368D01*
X159586632Y-76346525D01*
X159343411Y-76184010D01*
X159073158Y-76072068D01*
X158786260Y-76015000D01*
X158493740Y-76015000D01*
X158206842Y-76072068D01*
X157936589Y-76184010D01*
X157693368Y-76346525D01*
X157561513Y-76478380D01*
X157539502Y-76405820D01*
X157480537Y-76295506D01*
X157401185Y-76198815D01*
X157304494Y-76119463D01*
X157194180Y-76060498D01*
X157074482Y-76024188D01*
X156950000Y-76011928D01*
X155250000Y-76011928D01*
X155125518Y-76024188D01*
X155005820Y-76060498D01*
X154895506Y-76119463D01*
X154798815Y-76198815D01*
X154719463Y-76295506D01*
X154660498Y-76405820D01*
X154624188Y-76525518D01*
X154611928Y-76650000D01*
X151280955Y-76650000D01*
X151287932Y-76633158D01*
X151345000Y-76346260D01*
X151345000Y-76053740D01*
X151287932Y-75766842D01*
X151175990Y-75496589D01*
X151013475Y-75253368D01*
X150806632Y-75046525D01*
X150632240Y-74930000D01*
X150806632Y-74813475D01*
X150992047Y-74628060D01*
X151000932Y-74672729D01*
X151071414Y-74842889D01*
X151173738Y-74996028D01*
X151303972Y-75126262D01*
X151457111Y-75228586D01*
X151627271Y-75299068D01*
X151807911Y-75335000D01*
X151992089Y-75335000D01*
X152172729Y-75299068D01*
X152342889Y-75228586D01*
X152496028Y-75126262D01*
X152626262Y-74996028D01*
X152728586Y-74842889D01*
X152799068Y-74672729D01*
X152835000Y-74492089D01*
X152835000Y-74307911D01*
X152799068Y-74127271D01*
X152728586Y-73957111D01*
X152626262Y-73803972D01*
X152496028Y-73673738D01*
X152342889Y-73571414D01*
X152172729Y-73500932D01*
X151992089Y-73465000D01*
X151807911Y-73465000D01*
X151627271Y-73500932D01*
X151457111Y-73571414D01*
X151345000Y-73646324D01*
X151345000Y-73513740D01*
X151309795Y-73336755D01*
X151466142Y-73305655D01*
X151636302Y-73235173D01*
X151789441Y-73132849D01*
X151919675Y-73002615D01*
X152021999Y-72849476D01*
X152092481Y-72679316D01*
X152100044Y-72641296D01*
X152121414Y-72692889D01*
X152223738Y-72846028D01*
X152353972Y-72976262D01*
X152507111Y-73078586D01*
X152677271Y-73149068D01*
X152857911Y-73185000D01*
X153042089Y-73185000D01*
X153222729Y-73149068D01*
X153392889Y-73078586D01*
X153546028Y-72976262D01*
X153676262Y-72846028D01*
X153778586Y-72692889D01*
X153849068Y-72522729D01*
X153885000Y-72342089D01*
X153885000Y-72157911D01*
X153849068Y-71977271D01*
X153778586Y-71807111D01*
X153676262Y-71653972D01*
X153546028Y-71523738D01*
X153392889Y-71421414D01*
X153222729Y-71350932D01*
X153042089Y-71315000D01*
X152857911Y-71315000D01*
X152677271Y-71350932D01*
X152507111Y-71421414D01*
X152353972Y-71523738D01*
X152223738Y-71653972D01*
X152121414Y-71807111D01*
X152050932Y-71977271D01*
X152043369Y-72015291D01*
X152021999Y-71963698D01*
X152003546Y-71936080D01*
X152015694Y-71917899D01*
X152086176Y-71747739D01*
X152122108Y-71567099D01*
X152122108Y-71382921D01*
X152086176Y-71202281D01*
X152028726Y-71063584D01*
X152063497Y-71063584D01*
X152244137Y-71027652D01*
X152414297Y-70957170D01*
X152567436Y-70854846D01*
X152697670Y-70724612D01*
X152799994Y-70571473D01*
X152870476Y-70401313D01*
X152906408Y-70220673D01*
X152906408Y-70036495D01*
X152870476Y-69855855D01*
X152799994Y-69685695D01*
X152697670Y-69532556D01*
X152567436Y-69402322D01*
X152414297Y-69299998D01*
X152244137Y-69229516D01*
X152118969Y-69204618D01*
X152118969Y-69083864D01*
X152083037Y-68903224D01*
X152012555Y-68733064D01*
X151910231Y-68579925D01*
X151779997Y-68449691D01*
X151626858Y-68347367D01*
X151456698Y-68276885D01*
X151307912Y-68247289D01*
X151287932Y-68146842D01*
X151175990Y-67876589D01*
X151013475Y-67633368D01*
X150806632Y-67426525D01*
X150632240Y-67310000D01*
X150806632Y-67193475D01*
X151013475Y-66986632D01*
X151175990Y-66743411D01*
X151287932Y-66473158D01*
X151345000Y-66186260D01*
X151345000Y-65893740D01*
X151287932Y-65606842D01*
X151175990Y-65336589D01*
X151013475Y-65093368D01*
X150806632Y-64886525D01*
X150632240Y-64770000D01*
X150806632Y-64653475D01*
X151013475Y-64446632D01*
X151175990Y-64203411D01*
X151287932Y-63933158D01*
X151345000Y-63646260D01*
X151345000Y-63353740D01*
X151287932Y-63066842D01*
X151175990Y-62796589D01*
X151013475Y-62553368D01*
X150806632Y-62346525D01*
X150632240Y-62230000D01*
X150806632Y-62113475D01*
X151013475Y-61906632D01*
X151175990Y-61663411D01*
X151287932Y-61393158D01*
X151345000Y-61106260D01*
X151345000Y-60813740D01*
X151287932Y-60526842D01*
X151175990Y-60256589D01*
X151013475Y-60013368D01*
X150881620Y-59881513D01*
X150954180Y-59859502D01*
X151064494Y-59800537D01*
X151161185Y-59721185D01*
X151240537Y-59624494D01*
X151299502Y-59514180D01*
X151335812Y-59394482D01*
X151348072Y-59270000D01*
X151348072Y-57570000D01*
X151346103Y-57550000D01*
X152061928Y-57550000D01*
X152061928Y-59250000D01*
X152074188Y-59374482D01*
X152110498Y-59494180D01*
X152169463Y-59604494D01*
X152248815Y-59701185D01*
X152345506Y-59780537D01*
X152455820Y-59839502D01*
X152528380Y-59861513D01*
X152396525Y-59993368D01*
X152234010Y-60236589D01*
X152122068Y-60506842D01*
X152065000Y-60793740D01*
X152065000Y-61086260D01*
X152122068Y-61373158D01*
X152234010Y-61643411D01*
X152396525Y-61886632D01*
X152603368Y-62093475D01*
X152777760Y-62210000D01*
X152603368Y-62326525D01*
X152396525Y-62533368D01*
X152234010Y-62776589D01*
X152122068Y-63046842D01*
X152065000Y-63333740D01*
X152065000Y-63626260D01*
X152122068Y-63913158D01*
X152234010Y-64183411D01*
X152396525Y-64426632D01*
X152603368Y-64633475D01*
X152846589Y-64795990D01*
X153116842Y-64907932D01*
X153403740Y-64965000D01*
X153696260Y-64965000D01*
X153983158Y-64907932D01*
X154253411Y-64795990D01*
X154496632Y-64633475D01*
X154703475Y-64426632D01*
X154865990Y-64183411D01*
X154977932Y-63913158D01*
X155035000Y-63626260D01*
X155035000Y-63333740D01*
X154977932Y-63046842D01*
X154865990Y-62776589D01*
X154703475Y-62533368D01*
X154496632Y-62326525D01*
X154322240Y-62210000D01*
X154496632Y-62093475D01*
X154703475Y-61886632D01*
X154861772Y-61649724D01*
X154884010Y-61703411D01*
X155046525Y-61946632D01*
X155253368Y-62153475D01*
X155496589Y-62315990D01*
X155766842Y-62427932D01*
X156053740Y-62485000D01*
X156346260Y-62485000D01*
X156633158Y-62427932D01*
X156903411Y-62315990D01*
X157146632Y-62153475D01*
X157278487Y-62021620D01*
X157300498Y-62094180D01*
X157359463Y-62204494D01*
X157438815Y-62301185D01*
X157535506Y-62380537D01*
X157645820Y-62439502D01*
X157765518Y-62475812D01*
X157890000Y-62488072D01*
X159590000Y-62488072D01*
X159714482Y-62475812D01*
X159834180Y-62439502D01*
X159944494Y-62380537D01*
X160041185Y-62301185D01*
X160120537Y-62204494D01*
X160179502Y-62094180D01*
X160215812Y-61974482D01*
X160228072Y-61850000D01*
X160228072Y-60150000D01*
X160215812Y-60025518D01*
X160179502Y-59905820D01*
X160120537Y-59795506D01*
X160041185Y-59698815D01*
X159944494Y-59619463D01*
X159834180Y-59560498D01*
X159753534Y-59536034D01*
X159837588Y-59460269D01*
X160011641Y-59226920D01*
X160136825Y-58964099D01*
X160181476Y-58816890D01*
X160060155Y-58587000D01*
X158867000Y-58587000D01*
X158867000Y-58607000D01*
X158613000Y-58607000D01*
X158613000Y-58587000D01*
X158593000Y-58587000D01*
X158593000Y-58333000D01*
X158613000Y-58333000D01*
X158613000Y-57139186D01*
X158867000Y-57139186D01*
X158867000Y-58333000D01*
X160060155Y-58333000D01*
X160181476Y-58103110D01*
X160136825Y-57955901D01*
X160011641Y-57693080D01*
X159919837Y-57570000D01*
X161071928Y-57570000D01*
X161071928Y-59270000D01*
X161084188Y-59394482D01*
X161120498Y-59514180D01*
X161179463Y-59624494D01*
X161258815Y-59721185D01*
X161355506Y-59800537D01*
X161465820Y-59859502D01*
X161538380Y-59881513D01*
X161406525Y-60013368D01*
X161244010Y-60256589D01*
X161132068Y-60526842D01*
X161075000Y-60813740D01*
X161075000Y-61106260D01*
X161132068Y-61393158D01*
X161244010Y-61663411D01*
X161406525Y-61906632D01*
X161613368Y-62113475D01*
X161787760Y-62230000D01*
X161613368Y-62346525D01*
X161406525Y-62553368D01*
X161244010Y-62796589D01*
X161132068Y-63066842D01*
X161075000Y-63353740D01*
X161075000Y-63646260D01*
X161132068Y-63933158D01*
X161244010Y-64203411D01*
X161406525Y-64446632D01*
X161613368Y-64653475D01*
X161787760Y-64770000D01*
X161613368Y-64886525D01*
X161406525Y-65093368D01*
X161244010Y-65336589D01*
X161132068Y-65606842D01*
X161075000Y-65893740D01*
X161075000Y-66186260D01*
X161132068Y-66473158D01*
X161244010Y-66743411D01*
X161406525Y-66986632D01*
X161613368Y-67193475D01*
X161787760Y-67310000D01*
X161613368Y-67426525D01*
X161406525Y-67633368D01*
X161244010Y-67876589D01*
X161132068Y-68146842D01*
X161075000Y-68433740D01*
X161075000Y-68726260D01*
X161132068Y-69013158D01*
X161244010Y-69283411D01*
X161406525Y-69526632D01*
X161613368Y-69733475D01*
X161787760Y-69850000D01*
X161613368Y-69966525D01*
X161406525Y-70173368D01*
X161244010Y-70416589D01*
X161132068Y-70686842D01*
X161075000Y-70973740D01*
X161075000Y-71266260D01*
X161132068Y-71553158D01*
X161244010Y-71823411D01*
X161406525Y-72066632D01*
X161613368Y-72273475D01*
X161787760Y-72390000D01*
X161613368Y-72506525D01*
X161406525Y-72713368D01*
X161244010Y-72956589D01*
X161132068Y-73226842D01*
X161075000Y-73513740D01*
X161075000Y-73806260D01*
X161132068Y-74093158D01*
X161244010Y-74363411D01*
X161406525Y-74606632D01*
X161613368Y-74813475D01*
X161787760Y-74930000D01*
X161613368Y-75046525D01*
X161406525Y-75253368D01*
X161244010Y-75496589D01*
X161132068Y-75766842D01*
X161075000Y-76053740D01*
X161075000Y-76346260D01*
X161132068Y-76633158D01*
X161244010Y-76903411D01*
X161406525Y-77146632D01*
X161613368Y-77353475D01*
X161787760Y-77470000D01*
X161613368Y-77586525D01*
X161406525Y-77793368D01*
X161244010Y-78036589D01*
X161132068Y-78306842D01*
X161075000Y-78593740D01*
X161075000Y-78886260D01*
X161132068Y-79173158D01*
X161244010Y-79443411D01*
X161406525Y-79686632D01*
X161613368Y-79893475D01*
X161787760Y-80010000D01*
X161613368Y-80126525D01*
X161406525Y-80333368D01*
X161244010Y-80576589D01*
X161132068Y-80846842D01*
X161075000Y-81133740D01*
X161075000Y-81426260D01*
X161132068Y-81713158D01*
X161244010Y-81983411D01*
X161406525Y-82226632D01*
X161613368Y-82433475D01*
X161856589Y-82595990D01*
X162126842Y-82707932D01*
X162413740Y-82765000D01*
X162706260Y-82765000D01*
X162993158Y-82707932D01*
X163263411Y-82595990D01*
X163506632Y-82433475D01*
X163713475Y-82226632D01*
X163875990Y-81983411D01*
X163987932Y-81713158D01*
X164045000Y-81426260D01*
X164045000Y-81133740D01*
X163987932Y-80846842D01*
X163875990Y-80576589D01*
X163713475Y-80333368D01*
X163506632Y-80126525D01*
X163332240Y-80010000D01*
X163506632Y-79893475D01*
X163713475Y-79686632D01*
X163875990Y-79443411D01*
X163987932Y-79173158D01*
X164045000Y-78886260D01*
X164045000Y-78593740D01*
X163987932Y-78306842D01*
X163875990Y-78036589D01*
X163713475Y-77793368D01*
X163506632Y-77586525D01*
X163332240Y-77470000D01*
X163506632Y-77353475D01*
X163713475Y-77146632D01*
X163875990Y-76903411D01*
X163987932Y-76633158D01*
X164045000Y-76346260D01*
X164045000Y-76053740D01*
X163987932Y-75766842D01*
X163875990Y-75496589D01*
X163713475Y-75253368D01*
X163506632Y-75046525D01*
X163332240Y-74930000D01*
X163506632Y-74813475D01*
X163713475Y-74606632D01*
X163875990Y-74363411D01*
X163987932Y-74093158D01*
X164045000Y-73806260D01*
X164045000Y-73513740D01*
X163987932Y-73226842D01*
X163875990Y-72956589D01*
X163713475Y-72713368D01*
X163506632Y-72506525D01*
X163332240Y-72390000D01*
X163506632Y-72273475D01*
X163713475Y-72066632D01*
X163875990Y-71823411D01*
X163987932Y-71553158D01*
X164045000Y-71266260D01*
X164045000Y-70973740D01*
X163987932Y-70686842D01*
X163875990Y-70416589D01*
X163713475Y-70173368D01*
X163506632Y-69966525D01*
X163332240Y-69850000D01*
X163506632Y-69733475D01*
X163713475Y-69526632D01*
X163875990Y-69283411D01*
X163987932Y-69013158D01*
X164045000Y-68726260D01*
X164045000Y-68433740D01*
X163987932Y-68146842D01*
X163875990Y-67876589D01*
X163713475Y-67633368D01*
X163506632Y-67426525D01*
X163332240Y-67310000D01*
X163506632Y-67193475D01*
X163713475Y-66986632D01*
X163875990Y-66743411D01*
X163987932Y-66473158D01*
X164045000Y-66186260D01*
X164045000Y-65893740D01*
X163987932Y-65606842D01*
X163875990Y-65336589D01*
X163713475Y-65093368D01*
X163506632Y-64886525D01*
X163332240Y-64770000D01*
X163506632Y-64653475D01*
X163713475Y-64446632D01*
X163875990Y-64203411D01*
X163987932Y-63933158D01*
X164045000Y-63646260D01*
X164045000Y-63353740D01*
X163987932Y-63066842D01*
X163875990Y-62796589D01*
X163713475Y-62553368D01*
X163506632Y-62346525D01*
X163332240Y-62230000D01*
X163506632Y-62113475D01*
X163713475Y-61906632D01*
X163875990Y-61663411D01*
X163987932Y-61393158D01*
X164045000Y-61106260D01*
X164045000Y-60813740D01*
X163987932Y-60526842D01*
X163875990Y-60256589D01*
X163713475Y-60013368D01*
X163581620Y-59881513D01*
X163654180Y-59859502D01*
X163764494Y-59800537D01*
X163861185Y-59721185D01*
X163940537Y-59624494D01*
X163999502Y-59514180D01*
X164035812Y-59394482D01*
X164048072Y-59270000D01*
X164048072Y-57570000D01*
X164035812Y-57445518D01*
X163999502Y-57325820D01*
X163940537Y-57215506D01*
X163861185Y-57118815D01*
X163764494Y-57039463D01*
X163654180Y-56980498D01*
X163534482Y-56944188D01*
X163410000Y-56931928D01*
X161710000Y-56931928D01*
X161585518Y-56944188D01*
X161465820Y-56980498D01*
X161355506Y-57039463D01*
X161258815Y-57118815D01*
X161179463Y-57215506D01*
X161120498Y-57325820D01*
X161084188Y-57445518D01*
X161071928Y-57570000D01*
X159919837Y-57570000D01*
X159837588Y-57459731D01*
X159621355Y-57264822D01*
X159371252Y-57115843D01*
X159096891Y-57018519D01*
X158867000Y-57139186D01*
X158613000Y-57139186D01*
X158383109Y-57018519D01*
X158108748Y-57115843D01*
X157858645Y-57264822D01*
X157642412Y-57459731D01*
X157471100Y-57689406D01*
X157353475Y-57513368D01*
X157146632Y-57306525D01*
X156903411Y-57144010D01*
X156633158Y-57032068D01*
X156346260Y-56975000D01*
X156053740Y-56975000D01*
X155766842Y-57032068D01*
X155496589Y-57144010D01*
X155253368Y-57306525D01*
X155046525Y-57513368D01*
X155036014Y-57529100D01*
X155025812Y-57425518D01*
X154989502Y-57305820D01*
X154930537Y-57195506D01*
X154851185Y-57098815D01*
X154754494Y-57019463D01*
X154644180Y-56960498D01*
X154524482Y-56924188D01*
X154400000Y-56911928D01*
X152700000Y-56911928D01*
X152575518Y-56924188D01*
X152455820Y-56960498D01*
X152345506Y-57019463D01*
X152248815Y-57098815D01*
X152169463Y-57195506D01*
X152110498Y-57305820D01*
X152074188Y-57425518D01*
X152061928Y-57550000D01*
X151346103Y-57550000D01*
X151335812Y-57445518D01*
X151299502Y-57325820D01*
X151240537Y-57215506D01*
X151161185Y-57118815D01*
X151064494Y-57039463D01*
X150954180Y-56980498D01*
X150834482Y-56944188D01*
X150710000Y-56931928D01*
X149010000Y-56931928D01*
X148885518Y-56944188D01*
X148765820Y-56980498D01*
X148655506Y-57039463D01*
X148558815Y-57118815D01*
X148479463Y-57215506D01*
X148420498Y-57325820D01*
X148384188Y-57445518D01*
X148371928Y-57570000D01*
X147980000Y-57570000D01*
X147980000Y-56540000D01*
X164440000Y-56540000D01*
X164440001Y-83160000D01*
G37*
G04 #@! TD.AperFunction*
G04 #@! TD*
M02*
