M48
; DRILL file {KiCad (5.1.8)-1} date 06/06/21 23:54:05
; FORMAT={-:-/ absolute / metric / decimal}
; #@! TF.CreationDate,2021-06-06T23:54:05+01:00
; #@! TF.GenerationSoftware,Kicad,Pcbnew,(5.1.8)-1
; #@! TF.FileFunction,Plated,1,4,PTH
FMAT,2
METRIC
T1C0.300
T2C1.000
%
G90
G05
T1
X148.2Y-60.0
X148.2Y-72.1
X148.3Y-56.8
X148.3Y-64.9
X148.3Y-80.0
X148.3Y-82.8
X151.022Y-69.174
X151.185Y-71.51
X151.193Y-72.407
X151.4Y-82.9
X151.7Y-59.1
X151.9Y-74.8
X151.95Y-70.35
X151.95Y-80.85
X152.1Y-76.7
X152.4Y-68.3
X152.98Y-72.0
X153.0Y-76.1
X153.6Y-79.1
X154.1Y-74.3
X154.3Y-69.0
X154.3Y-70.7
X155.05Y-75.1
X156.1Y-69.0
X156.1Y-70.7
X157.3Y-62.3
X157.4Y-78.8
X157.5Y-57.0
X158.0Y-76.1
X158.1Y-82.9
X158.5Y-73.9
X158.55Y-65.3
X158.95Y-79.35
X159.95Y-63.15
X160.3Y-83.0
X160.5Y-56.9
X160.55Y-73.75
X161.2Y-70.5
X164.0Y-70.3
X164.0Y-82.8
X164.1Y-75.5
X164.2Y-61.2
T2
X153.55Y-58.4
X153.55Y-60.94
X153.55Y-63.48
X149.86Y-58.42
X149.86Y-60.96
X149.86Y-63.5
X149.86Y-66.04
X149.86Y-68.58
X149.86Y-71.12
X149.86Y-73.66
X149.86Y-76.2
X149.86Y-78.74
X149.86Y-81.28
X156.2Y-58.46
X156.2Y-61.0
X158.74Y-58.46
X158.74Y-61.0
X153.9Y-81.3
X156.44Y-81.3
X158.98Y-81.3
X156.1Y-77.5
X158.64Y-77.5
X162.56Y-58.42
X162.56Y-60.96
X162.56Y-63.5
X162.56Y-66.04
X162.56Y-68.58
X162.56Y-71.12
X162.56Y-73.66
X162.56Y-76.2
X162.56Y-78.74
X162.56Y-81.28
T0
M30
