G04 #@! TF.GenerationSoftware,KiCad,Pcbnew,(5.1.8)-1*
G04 #@! TF.CreationDate,2021-06-06T23:03:40+01:00*
G04 #@! TF.ProjectId,qfn-practice,71666e2d-7072-4616-9374-6963652e6b69,rev?*
G04 #@! TF.SameCoordinates,Original*
G04 #@! TF.FileFunction,Soldermask,Top*
G04 #@! TF.FilePolarity,Negative*
%FSLAX46Y46*%
G04 Gerber Fmt 4.6, Leading zero omitted, Abs format (unit mm)*
G04 Created by KiCad (PCBNEW (5.1.8)-1) date 2021-06-06 23:03:40*
%MOMM*%
%LPD*%
G01*
G04 APERTURE LIST*
%ADD10R,1.700000X1.700000*%
%ADD11O,1.700000X1.700000*%
%ADD12C,0.100000*%
%ADD13R,2.500000X2.500000*%
G04 APERTURE END LIST*
D10*
G04 #@! TO.C,J1*
X162560000Y-58420000D03*
D11*
X162560000Y-60960000D03*
X162560000Y-63500000D03*
X162560000Y-66040000D03*
X162560000Y-68580000D03*
X162560000Y-71120000D03*
X162560000Y-73660000D03*
X162560000Y-76200000D03*
X162560000Y-78740000D03*
X162560000Y-81280000D03*
G04 #@! TD*
G04 #@! TO.C,J2*
X149860000Y-81280000D03*
X149860000Y-78740000D03*
X149860000Y-76200000D03*
X149860000Y-73660000D03*
X149860000Y-71120000D03*
X149860000Y-68580000D03*
X149860000Y-66040000D03*
X149860000Y-63500000D03*
X149860000Y-60960000D03*
D10*
X149860000Y-58420000D03*
G04 #@! TD*
D12*
G04 #@! TO.C,U2*
G36*
X156655139Y-71470865D02*
G01*
X156663581Y-71473425D01*
X156671361Y-71477584D01*
X156678180Y-71483180D01*
X156811820Y-71616820D01*
X156817416Y-71623639D01*
X156821575Y-71631419D01*
X156824135Y-71639861D01*
X156825000Y-71648640D01*
X156825000Y-72180000D01*
X156824135Y-72188779D01*
X156821575Y-72197221D01*
X156817416Y-72205001D01*
X156811820Y-72211820D01*
X156805001Y-72217416D01*
X156797221Y-72221575D01*
X156788779Y-72224135D01*
X156780000Y-72225000D01*
X156620000Y-72225000D01*
X156611221Y-72224135D01*
X156602779Y-72221575D01*
X156594999Y-72217416D01*
X156588180Y-72211820D01*
X156582584Y-72205001D01*
X156578425Y-72197221D01*
X156575865Y-72188779D01*
X156575000Y-72180000D01*
X156575000Y-71515000D01*
X156575865Y-71506221D01*
X156578425Y-71497779D01*
X156582584Y-71489999D01*
X156588180Y-71483180D01*
X156594999Y-71477584D01*
X156602779Y-71473425D01*
X156611221Y-71470865D01*
X156620000Y-71470000D01*
X156646360Y-71470000D01*
X156655139Y-71470865D01*
G37*
G36*
X153543779Y-71225865D02*
G01*
X153552221Y-71228425D01*
X153560001Y-71232584D01*
X153566820Y-71238180D01*
X153572416Y-71244999D01*
X153576575Y-71252779D01*
X153579135Y-71261221D01*
X153580000Y-71270000D01*
X153580000Y-71296360D01*
X153579135Y-71305139D01*
X153576575Y-71313581D01*
X153572416Y-71321361D01*
X153566820Y-71328180D01*
X153433180Y-71461820D01*
X153426361Y-71467416D01*
X153418581Y-71471575D01*
X153410139Y-71474135D01*
X153401360Y-71475000D01*
X152870000Y-71475000D01*
X152861221Y-71474135D01*
X152852779Y-71471575D01*
X152844999Y-71467416D01*
X152838180Y-71461820D01*
X152832584Y-71455001D01*
X152828425Y-71447221D01*
X152825865Y-71438779D01*
X152825000Y-71430000D01*
X152825000Y-71270000D01*
X152825865Y-71261221D01*
X152828425Y-71252779D01*
X152832584Y-71244999D01*
X152838180Y-71238180D01*
X152844999Y-71232584D01*
X152852779Y-71228425D01*
X152861221Y-71225865D01*
X152870000Y-71225000D01*
X153535000Y-71225000D01*
X153543779Y-71225865D01*
G37*
G36*
G01*
X154075000Y-72162500D02*
X154075000Y-71412500D01*
G75*
G02*
X154137500Y-71350000I62500J0D01*
G01*
X154262500Y-71350000D01*
G75*
G02*
X154325000Y-71412500I0J-62500D01*
G01*
X154325000Y-72162500D01*
G75*
G02*
X154262500Y-72225000I-62500J0D01*
G01*
X154137500Y-72225000D01*
G75*
G02*
X154075000Y-72162500I0J62500D01*
G01*
G37*
G36*
G01*
X152825000Y-68912500D02*
X152825000Y-68787500D01*
G75*
G02*
X152887500Y-68725000I62500J0D01*
G01*
X153637500Y-68725000D01*
G75*
G02*
X153700000Y-68787500I0J-62500D01*
G01*
X153700000Y-68912500D01*
G75*
G02*
X153637500Y-68975000I-62500J0D01*
G01*
X152887500Y-68975000D01*
G75*
G02*
X152825000Y-68912500I0J62500D01*
G01*
G37*
G36*
X153788779Y-67475865D02*
G01*
X153797221Y-67478425D01*
X153805001Y-67482584D01*
X153811820Y-67488180D01*
X153817416Y-67494999D01*
X153821575Y-67502779D01*
X153824135Y-67511221D01*
X153825000Y-67520000D01*
X153825000Y-68185000D01*
X153824135Y-68193779D01*
X153821575Y-68202221D01*
X153817416Y-68210001D01*
X153811820Y-68216820D01*
X153805001Y-68222416D01*
X153797221Y-68226575D01*
X153788779Y-68229135D01*
X153780000Y-68230000D01*
X153753640Y-68230000D01*
X153744861Y-68229135D01*
X153736419Y-68226575D01*
X153728639Y-68222416D01*
X153721820Y-68216820D01*
X153588180Y-68083180D01*
X153582584Y-68076361D01*
X153578425Y-68068581D01*
X153575865Y-68060139D01*
X153575000Y-68051360D01*
X153575000Y-67520000D01*
X153575865Y-67511221D01*
X153578425Y-67502779D01*
X153582584Y-67494999D01*
X153588180Y-67488180D01*
X153594999Y-67482584D01*
X153602779Y-67478425D01*
X153611221Y-67475865D01*
X153620000Y-67475000D01*
X153780000Y-67475000D01*
X153788779Y-67475865D01*
G37*
G36*
G01*
X155075000Y-68287500D02*
X155075000Y-67537500D01*
G75*
G02*
X155137500Y-67475000I62500J0D01*
G01*
X155262500Y-67475000D01*
G75*
G02*
X155325000Y-67537500I0J-62500D01*
G01*
X155325000Y-68287500D01*
G75*
G02*
X155262500Y-68350000I-62500J0D01*
G01*
X155137500Y-68350000D01*
G75*
G02*
X155075000Y-68287500I0J62500D01*
G01*
G37*
G36*
G01*
X156700000Y-70912500D02*
X156700000Y-70787500D01*
G75*
G02*
X156762500Y-70725000I62500J0D01*
G01*
X157512500Y-70725000D01*
G75*
G02*
X157575000Y-70787500I0J-62500D01*
G01*
X157575000Y-70912500D01*
G75*
G02*
X157512500Y-70975000I-62500J0D01*
G01*
X156762500Y-70975000D01*
G75*
G02*
X156700000Y-70912500I0J62500D01*
G01*
G37*
G36*
G01*
X154075000Y-68287500D02*
X154075000Y-67537500D01*
G75*
G02*
X154137500Y-67475000I62500J0D01*
G01*
X154262500Y-67475000D01*
G75*
G02*
X154325000Y-67537500I0J-62500D01*
G01*
X154325000Y-68287500D01*
G75*
G02*
X154262500Y-68350000I-62500J0D01*
G01*
X154137500Y-68350000D01*
G75*
G02*
X154075000Y-68287500I0J62500D01*
G01*
G37*
G36*
G01*
X154575000Y-68287500D02*
X154575000Y-67537500D01*
G75*
G02*
X154637500Y-67475000I62500J0D01*
G01*
X154762500Y-67475000D01*
G75*
G02*
X154825000Y-67537500I0J-62500D01*
G01*
X154825000Y-68287500D01*
G75*
G02*
X154762500Y-68350000I-62500J0D01*
G01*
X154637500Y-68350000D01*
G75*
G02*
X154575000Y-68287500I0J62500D01*
G01*
G37*
G36*
G01*
X155575000Y-68287500D02*
X155575000Y-67537500D01*
G75*
G02*
X155637500Y-67475000I62500J0D01*
G01*
X155762500Y-67475000D01*
G75*
G02*
X155825000Y-67537500I0J-62500D01*
G01*
X155825000Y-68287500D01*
G75*
G02*
X155762500Y-68350000I-62500J0D01*
G01*
X155637500Y-68350000D01*
G75*
G02*
X155575000Y-68287500I0J62500D01*
G01*
G37*
G36*
G01*
X156075000Y-68287500D02*
X156075000Y-67537500D01*
G75*
G02*
X156137500Y-67475000I62500J0D01*
G01*
X156262500Y-67475000D01*
G75*
G02*
X156325000Y-67537500I0J-62500D01*
G01*
X156325000Y-68287500D01*
G75*
G02*
X156262500Y-68350000I-62500J0D01*
G01*
X156137500Y-68350000D01*
G75*
G02*
X156075000Y-68287500I0J62500D01*
G01*
G37*
G36*
X156788779Y-67475865D02*
G01*
X156797221Y-67478425D01*
X156805001Y-67482584D01*
X156811820Y-67488180D01*
X156817416Y-67494999D01*
X156821575Y-67502779D01*
X156824135Y-67511221D01*
X156825000Y-67520000D01*
X156825000Y-68051360D01*
X156824135Y-68060139D01*
X156821575Y-68068581D01*
X156817416Y-68076361D01*
X156811820Y-68083180D01*
X156678180Y-68216820D01*
X156671361Y-68222416D01*
X156663581Y-68226575D01*
X156655139Y-68229135D01*
X156646360Y-68230000D01*
X156620000Y-68230000D01*
X156611221Y-68229135D01*
X156602779Y-68226575D01*
X156594999Y-68222416D01*
X156588180Y-68216820D01*
X156582584Y-68210001D01*
X156578425Y-68202221D01*
X156575865Y-68193779D01*
X156575000Y-68185000D01*
X156575000Y-67520000D01*
X156575865Y-67511221D01*
X156578425Y-67502779D01*
X156582584Y-67494999D01*
X156588180Y-67488180D01*
X156594999Y-67482584D01*
X156602779Y-67478425D01*
X156611221Y-67475865D01*
X156620000Y-67475000D01*
X156780000Y-67475000D01*
X156788779Y-67475865D01*
G37*
G36*
G01*
X156700000Y-70412500D02*
X156700000Y-70287500D01*
G75*
G02*
X156762500Y-70225000I62500J0D01*
G01*
X157512500Y-70225000D01*
G75*
G02*
X157575000Y-70287500I0J-62500D01*
G01*
X157575000Y-70412500D01*
G75*
G02*
X157512500Y-70475000I-62500J0D01*
G01*
X156762500Y-70475000D01*
G75*
G02*
X156700000Y-70412500I0J62500D01*
G01*
G37*
G36*
X157538779Y-68225865D02*
G01*
X157547221Y-68228425D01*
X157555001Y-68232584D01*
X157561820Y-68238180D01*
X157567416Y-68244999D01*
X157571575Y-68252779D01*
X157574135Y-68261221D01*
X157575000Y-68270000D01*
X157575000Y-68430000D01*
X157574135Y-68438779D01*
X157571575Y-68447221D01*
X157567416Y-68455001D01*
X157561820Y-68461820D01*
X157555001Y-68467416D01*
X157547221Y-68471575D01*
X157538779Y-68474135D01*
X157530000Y-68475000D01*
X156865000Y-68475000D01*
X156856221Y-68474135D01*
X156847779Y-68471575D01*
X156839999Y-68467416D01*
X156833180Y-68461820D01*
X156827584Y-68455001D01*
X156823425Y-68447221D01*
X156820865Y-68438779D01*
X156820000Y-68430000D01*
X156820000Y-68403640D01*
X156820865Y-68394861D01*
X156823425Y-68386419D01*
X156827584Y-68378639D01*
X156833180Y-68371820D01*
X156966820Y-68238180D01*
X156973639Y-68232584D01*
X156981419Y-68228425D01*
X156989861Y-68225865D01*
X156998640Y-68225000D01*
X157530000Y-68225000D01*
X157538779Y-68225865D01*
G37*
G36*
G01*
X155575000Y-72162500D02*
X155575000Y-71412500D01*
G75*
G02*
X155637500Y-71350000I62500J0D01*
G01*
X155762500Y-71350000D01*
G75*
G02*
X155825000Y-71412500I0J-62500D01*
G01*
X155825000Y-72162500D01*
G75*
G02*
X155762500Y-72225000I-62500J0D01*
G01*
X155637500Y-72225000D01*
G75*
G02*
X155575000Y-72162500I0J62500D01*
G01*
G37*
G36*
G01*
X152825000Y-70912500D02*
X152825000Y-70787500D01*
G75*
G02*
X152887500Y-70725000I62500J0D01*
G01*
X153637500Y-70725000D01*
G75*
G02*
X153700000Y-70787500I0J-62500D01*
G01*
X153700000Y-70912500D01*
G75*
G02*
X153637500Y-70975000I-62500J0D01*
G01*
X152887500Y-70975000D01*
G75*
G02*
X152825000Y-70912500I0J62500D01*
G01*
G37*
G36*
G01*
X152825000Y-69912500D02*
X152825000Y-69787500D01*
G75*
G02*
X152887500Y-69725000I62500J0D01*
G01*
X153637500Y-69725000D01*
G75*
G02*
X153700000Y-69787500I0J-62500D01*
G01*
X153700000Y-69912500D01*
G75*
G02*
X153637500Y-69975000I-62500J0D01*
G01*
X152887500Y-69975000D01*
G75*
G02*
X152825000Y-69912500I0J62500D01*
G01*
G37*
G36*
G01*
X156700000Y-68912500D02*
X156700000Y-68787500D01*
G75*
G02*
X156762500Y-68725000I62500J0D01*
G01*
X157512500Y-68725000D01*
G75*
G02*
X157575000Y-68787500I0J-62500D01*
G01*
X157575000Y-68912500D01*
G75*
G02*
X157512500Y-68975000I-62500J0D01*
G01*
X156762500Y-68975000D01*
G75*
G02*
X156700000Y-68912500I0J62500D01*
G01*
G37*
G36*
G01*
X156700000Y-69412500D02*
X156700000Y-69287500D01*
G75*
G02*
X156762500Y-69225000I62500J0D01*
G01*
X157512500Y-69225000D01*
G75*
G02*
X157575000Y-69287500I0J-62500D01*
G01*
X157575000Y-69412500D01*
G75*
G02*
X157512500Y-69475000I-62500J0D01*
G01*
X156762500Y-69475000D01*
G75*
G02*
X156700000Y-69412500I0J62500D01*
G01*
G37*
G36*
G01*
X156700000Y-69912500D02*
X156700000Y-69787500D01*
G75*
G02*
X156762500Y-69725000I62500J0D01*
G01*
X157512500Y-69725000D01*
G75*
G02*
X157575000Y-69787500I0J-62500D01*
G01*
X157575000Y-69912500D01*
G75*
G02*
X157512500Y-69975000I-62500J0D01*
G01*
X156762500Y-69975000D01*
G75*
G02*
X156700000Y-69912500I0J62500D01*
G01*
G37*
G36*
G01*
X152825000Y-70412500D02*
X152825000Y-70287500D01*
G75*
G02*
X152887500Y-70225000I62500J0D01*
G01*
X153637500Y-70225000D01*
G75*
G02*
X153700000Y-70287500I0J-62500D01*
G01*
X153700000Y-70412500D01*
G75*
G02*
X153637500Y-70475000I-62500J0D01*
G01*
X152887500Y-70475000D01*
G75*
G02*
X152825000Y-70412500I0J62500D01*
G01*
G37*
G36*
G01*
X156075000Y-72162500D02*
X156075000Y-71412500D01*
G75*
G02*
X156137500Y-71350000I62500J0D01*
G01*
X156262500Y-71350000D01*
G75*
G02*
X156325000Y-71412500I0J-62500D01*
G01*
X156325000Y-72162500D01*
G75*
G02*
X156262500Y-72225000I-62500J0D01*
G01*
X156137500Y-72225000D01*
G75*
G02*
X156075000Y-72162500I0J62500D01*
G01*
G37*
G36*
X157538779Y-71225865D02*
G01*
X157547221Y-71228425D01*
X157555001Y-71232584D01*
X157561820Y-71238180D01*
X157567416Y-71244999D01*
X157571575Y-71252779D01*
X157574135Y-71261221D01*
X157575000Y-71270000D01*
X157575000Y-71430000D01*
X157574135Y-71438779D01*
X157571575Y-71447221D01*
X157567416Y-71455001D01*
X157561820Y-71461820D01*
X157555001Y-71467416D01*
X157547221Y-71471575D01*
X157538779Y-71474135D01*
X157530000Y-71475000D01*
X156998640Y-71475000D01*
X156989861Y-71474135D01*
X156981419Y-71471575D01*
X156973639Y-71467416D01*
X156966820Y-71461820D01*
X156833180Y-71328180D01*
X156827584Y-71321361D01*
X156823425Y-71313581D01*
X156820865Y-71305139D01*
X156820000Y-71296360D01*
X156820000Y-71270000D01*
X156820865Y-71261221D01*
X156823425Y-71252779D01*
X156827584Y-71244999D01*
X156833180Y-71238180D01*
X156839999Y-71232584D01*
X156847779Y-71228425D01*
X156856221Y-71225865D01*
X156865000Y-71225000D01*
X157530000Y-71225000D01*
X157538779Y-71225865D01*
G37*
G36*
G01*
X154575000Y-72162500D02*
X154575000Y-71412500D01*
G75*
G02*
X154637500Y-71350000I62500J0D01*
G01*
X154762500Y-71350000D01*
G75*
G02*
X154825000Y-71412500I0J-62500D01*
G01*
X154825000Y-72162500D01*
G75*
G02*
X154762500Y-72225000I-62500J0D01*
G01*
X154637500Y-72225000D01*
G75*
G02*
X154575000Y-72162500I0J62500D01*
G01*
G37*
G36*
X153410139Y-68225865D02*
G01*
X153418581Y-68228425D01*
X153426361Y-68232584D01*
X153433180Y-68238180D01*
X153566820Y-68371820D01*
X153572416Y-68378639D01*
X153576575Y-68386419D01*
X153579135Y-68394861D01*
X153580000Y-68403640D01*
X153580000Y-68430000D01*
X153579135Y-68438779D01*
X153576575Y-68447221D01*
X153572416Y-68455001D01*
X153566820Y-68461820D01*
X153560001Y-68467416D01*
X153552221Y-68471575D01*
X153543779Y-68474135D01*
X153535000Y-68475000D01*
X152870000Y-68475000D01*
X152861221Y-68474135D01*
X152852779Y-68471575D01*
X152844999Y-68467416D01*
X152838180Y-68461820D01*
X152832584Y-68455001D01*
X152828425Y-68447221D01*
X152825865Y-68438779D01*
X152825000Y-68430000D01*
X152825000Y-68270000D01*
X152825865Y-68261221D01*
X152828425Y-68252779D01*
X152832584Y-68244999D01*
X152838180Y-68238180D01*
X152844999Y-68232584D01*
X152852779Y-68228425D01*
X152861221Y-68225865D01*
X152870000Y-68225000D01*
X153401360Y-68225000D01*
X153410139Y-68225865D01*
G37*
G36*
G01*
X152825000Y-69412500D02*
X152825000Y-69287500D01*
G75*
G02*
X152887500Y-69225000I62500J0D01*
G01*
X153637500Y-69225000D01*
G75*
G02*
X153700000Y-69287500I0J-62500D01*
G01*
X153700000Y-69412500D01*
G75*
G02*
X153637500Y-69475000I-62500J0D01*
G01*
X152887500Y-69475000D01*
G75*
G02*
X152825000Y-69412500I0J62500D01*
G01*
G37*
G36*
X153788779Y-71470865D02*
G01*
X153797221Y-71473425D01*
X153805001Y-71477584D01*
X153811820Y-71483180D01*
X153817416Y-71489999D01*
X153821575Y-71497779D01*
X153824135Y-71506221D01*
X153825000Y-71515000D01*
X153825000Y-72180000D01*
X153824135Y-72188779D01*
X153821575Y-72197221D01*
X153817416Y-72205001D01*
X153811820Y-72211820D01*
X153805001Y-72217416D01*
X153797221Y-72221575D01*
X153788779Y-72224135D01*
X153780000Y-72225000D01*
X153620000Y-72225000D01*
X153611221Y-72224135D01*
X153602779Y-72221575D01*
X153594999Y-72217416D01*
X153588180Y-72211820D01*
X153582584Y-72205001D01*
X153578425Y-72197221D01*
X153575865Y-72188779D01*
X153575000Y-72180000D01*
X153575000Y-71648640D01*
X153575865Y-71639861D01*
X153578425Y-71631419D01*
X153582584Y-71623639D01*
X153588180Y-71616820D01*
X153721820Y-71483180D01*
X153728639Y-71477584D01*
X153736419Y-71473425D01*
X153744861Y-71470865D01*
X153753640Y-71470000D01*
X153780000Y-71470000D01*
X153788779Y-71470865D01*
G37*
G36*
G01*
X155075000Y-72162500D02*
X155075000Y-71412500D01*
G75*
G02*
X155137500Y-71350000I62500J0D01*
G01*
X155262500Y-71350000D01*
G75*
G02*
X155325000Y-71412500I0J-62500D01*
G01*
X155325000Y-72162500D01*
G75*
G02*
X155262500Y-72225000I-62500J0D01*
G01*
X155137500Y-72225000D01*
G75*
G02*
X155075000Y-72162500I0J62500D01*
G01*
G37*
D13*
X155200000Y-69850000D03*
G04 #@! TD*
G04 #@! TO.C,C1*
G36*
G01*
X160189000Y-74690800D02*
X159111000Y-74690800D01*
G75*
G02*
X158775000Y-74354800I0J336000D01*
G01*
X158775000Y-73226800D01*
G75*
G02*
X159111000Y-72890800I336000J0D01*
G01*
X160189000Y-72890800D01*
G75*
G02*
X160525000Y-73226800I0J-336000D01*
G01*
X160525000Y-74354800D01*
G75*
G02*
X160189000Y-74690800I-336000J0D01*
G01*
G37*
G36*
G01*
X160189000Y-72100000D02*
X159111000Y-72100000D01*
G75*
G02*
X158775000Y-71764000I0J336000D01*
G01*
X158775000Y-70636000D01*
G75*
G02*
X159111000Y-70300000I336000J0D01*
G01*
X160189000Y-70300000D01*
G75*
G02*
X160525000Y-70636000I0J-336000D01*
G01*
X160525000Y-71764000D01*
G75*
G02*
X160189000Y-72100000I-336000J0D01*
G01*
G37*
G04 #@! TD*
G04 #@! TO.C,C2*
G36*
G01*
X153539000Y-75909200D02*
X152461000Y-75909200D01*
G75*
G02*
X152125000Y-75573200I0J336000D01*
G01*
X152125000Y-74445200D01*
G75*
G02*
X152461000Y-74109200I336000J0D01*
G01*
X153539000Y-74109200D01*
G75*
G02*
X153875000Y-74445200I0J-336000D01*
G01*
X153875000Y-75573200D01*
G75*
G02*
X153539000Y-75909200I-336000J0D01*
G01*
G37*
G36*
G01*
X153539000Y-78500000D02*
X152461000Y-78500000D01*
G75*
G02*
X152125000Y-78164000I0J336000D01*
G01*
X152125000Y-77036000D01*
G75*
G02*
X152461000Y-76700000I336000J0D01*
G01*
X153539000Y-76700000D01*
G75*
G02*
X153875000Y-77036000I0J-336000D01*
G01*
X153875000Y-78164000D01*
G75*
G02*
X153539000Y-78500000I-336000J0D01*
G01*
G37*
G04 #@! TD*
G04 #@! TO.C,C3*
G36*
G01*
X159111000Y-64509200D02*
X160189000Y-64509200D01*
G75*
G02*
X160525000Y-64845200I0J-336000D01*
G01*
X160525000Y-65973200D01*
G75*
G02*
X160189000Y-66309200I-336000J0D01*
G01*
X159111000Y-66309200D01*
G75*
G02*
X158775000Y-65973200I0J336000D01*
G01*
X158775000Y-64845200D01*
G75*
G02*
X159111000Y-64509200I336000J0D01*
G01*
G37*
G36*
G01*
X159111000Y-67100000D02*
X160189000Y-67100000D01*
G75*
G02*
X160525000Y-67436000I0J-336000D01*
G01*
X160525000Y-68564000D01*
G75*
G02*
X160189000Y-68900000I-336000J0D01*
G01*
X159111000Y-68900000D01*
G75*
G02*
X158775000Y-68564000I0J336000D01*
G01*
X158775000Y-67436000D01*
G75*
G02*
X159111000Y-67100000I336000J0D01*
G01*
G37*
G04 #@! TD*
G04 #@! TO.C,JP2*
G36*
G01*
X158058750Y-73377500D02*
X157741250Y-73377500D01*
G75*
G02*
X157582500Y-73218750I0J158750D01*
G01*
X157582500Y-72901250D01*
G75*
G02*
X157741250Y-72742500I158750J0D01*
G01*
X158058750Y-72742500D01*
G75*
G02*
X158217500Y-72901250I0J-158750D01*
G01*
X158217500Y-73218750D01*
G75*
G02*
X158058750Y-73377500I-158750J0D01*
G01*
G37*
G36*
G01*
X158058750Y-74192500D02*
X157741250Y-74192500D01*
G75*
G02*
X157582500Y-74033750I0J158750D01*
G01*
X157582500Y-73716250D01*
G75*
G02*
X157741250Y-73557500I158750J0D01*
G01*
X158058750Y-73557500D01*
G75*
G02*
X158217500Y-73716250I0J-158750D01*
G01*
X158217500Y-74033750D01*
G75*
G02*
X158058750Y-74192500I-158750J0D01*
G01*
G37*
G04 #@! TD*
G04 #@! TO.C,JP5*
G36*
G01*
X154891250Y-73722500D02*
X155208750Y-73722500D01*
G75*
G02*
X155367500Y-73881250I0J-158750D01*
G01*
X155367500Y-74198750D01*
G75*
G02*
X155208750Y-74357500I-158750J0D01*
G01*
X154891250Y-74357500D01*
G75*
G02*
X154732500Y-74198750I0J158750D01*
G01*
X154732500Y-73881250D01*
G75*
G02*
X154891250Y-73722500I158750J0D01*
G01*
G37*
G36*
G01*
X154891250Y-72907500D02*
X155208750Y-72907500D01*
G75*
G02*
X155367500Y-73066250I0J-158750D01*
G01*
X155367500Y-73383750D01*
G75*
G02*
X155208750Y-73542500I-158750J0D01*
G01*
X154891250Y-73542500D01*
G75*
G02*
X154732500Y-73383750I0J158750D01*
G01*
X154732500Y-73066250D01*
G75*
G02*
X154891250Y-72907500I158750J0D01*
G01*
G37*
G04 #@! TD*
D10*
G04 #@! TO.C,J3*
X153900000Y-81300000D03*
D11*
X156440000Y-81300000D03*
X158980000Y-81300000D03*
G04 #@! TD*
D10*
G04 #@! TO.C,J5*
X156100000Y-77500000D03*
D11*
X158640000Y-77500000D03*
G04 #@! TD*
D10*
G04 #@! TO.C,J7*
X153550000Y-58400000D03*
D11*
X153550000Y-60940000D03*
X153550000Y-63480000D03*
G04 #@! TD*
D10*
G04 #@! TO.C,J4*
X158740000Y-61000000D03*
D11*
X156200000Y-61000000D03*
X158740000Y-58460000D03*
X156200000Y-58460000D03*
G04 #@! TD*
M02*
